<?xml version="1.0" encoding="UTF-8" standalone="no" ?>
<!DOCTYPE svg PUBLIC "-//W3C//DTD SVG 1.1//EN" "http://www.w3.org/Graphics/SVG/1.1/DTD/svg11.dtd">
<svg xmlns="http://www.w3.org/2000/svg" xmlns:xlink="http://www.w3.org/1999/xlink" version="1.1" width="1080" height="1080" viewBox="0 0 1080 1080" xml:space="preserve">
<desc>Created with Fabric.js 5.2.4</desc>
<defs>
</defs>
<rect x="0" y="0" width="100%" height="100%" fill="transparent"></rect>
<g transform="matrix(1 0 0 1 540 540)" id="bdffcd9d-ecaa-41c3-9762-2a9583f0442d"  >
</g>
<g transform="matrix(1 0 0 1 540 540)" id="2073f9a8-83b0-4d12-994c-23d3b447b61e"  >
<rect style="stroke: none; stroke-width: 1; stroke-dasharray: none; stroke-linecap: butt; stroke-dashoffset: 0; stroke-linejoin: miter; stroke-miterlimit: 4; fill: rgb(255,255,255); fill-rule: nonzero; opacity: 1; visibility: hidden;" vector-effect="non-scaling-stroke"  x="-540" y="-540" rx="0" ry="0" width="1080" height="1080" />
</g>
<g transform="matrix(1 0 0 1 540 540)"  >
<rect style="stroke: none; stroke-width: 1; stroke-dasharray: none; stroke-linecap: butt; stroke-dashoffset: 0; stroke-linejoin: miter; stroke-miterlimit: 4; fill: rgb(255,255,255); fill-rule: nonzero; opacity: 1; visibility: hidden;" vector-effect="non-scaling-stroke"  x="-250" y="-250" rx="0" ry="0" width="500" height="500" />
</g>
<g transform="matrix(0.46 0 0 0.46 540 540)"  >
<rect style="stroke: none; stroke-width: 1; stroke-dasharray: none; stroke-linecap: butt; stroke-dashoffset: 0; stroke-linejoin: miter; stroke-miterlimit: 4; fill: rgb(255,255,255); fill-rule: nonzero; opacity: 1; visibility: hidden;" vector-effect="non-scaling-stroke"  x="-540" y="-540" rx="0" ry="0" width="1080" height="1080" />
</g>
<g transform="matrix(10.1 0 0 10.1 546.7 560.87)"  >
<path style="stroke: none; stroke-width: 1; stroke-dasharray: none; stroke-linecap: butt; stroke-dashoffset: 0; stroke-linejoin: miter; stroke-miterlimit: 4; fill: rgb(255,255,255); fill-rule: nonzero; opacity: 1;" vector-effect="non-scaling-stroke"  transform=" translate(-48, -48)" d="M 44 2.30935 C 46.4752 0.880283 49.5248 0.880284 52 2.30935 L 85.5692 21.6905 C 88.0444 23.1196 89.5692 25.7606 89.5692 28.6187 L 89.5692 67.3811 C 89.5692 70.2393 88.0444 72.8803 85.5692 74.3093 L 52 93.6905 C 49.5248 95.1196 46.4752 95.1196 44 93.6905 L 10.4308 74.3093 C 7.95558 72.8803 6.43079 70.2393 6.43079 67.3811 L 6.43079 28.6187 C 6.43079 25.7606 7.95558 23.1196 10.4308 21.6905 L 44 2.30935 Z" stroke-linecap="round" />
</g>
<g transform="matrix(10.1 0 0 10.1 557.75 557.92)"  >
<path style="stroke: none; stroke-width: 1; stroke-dasharray: none; stroke-linecap: butt; stroke-dashoffset: 0; stroke-linejoin: miter; stroke-miterlimit: 4; fill: rgb(184,184,184); fill-rule: evenodd; opacity: 1;" vector-effect="non-scaling-stroke"  transform=" translate(-47.95, -48)" d="M 84.1907 22.9024 L 51.5701 4.06896 C 49.3322 2.77689 46.575 2.77689 44.337 4.06896 L 11.7165 22.9024 C 9.47853 24.1945 8.09991 26.5824 8.09991 29.1665 L 8.09991 66.8335 C 8.09991 69.4176 9.47853 71.8055 11.7165 73.0975 L 44.337 91.931 C 46.575 93.2231 49.3322 93.2231 51.5701 91.931 L 84.1907 73.0975 C 86.4286 71.8055 87.8072 69.4176 87.8072 66.8335 L 87.8072 29.1665 C 87.8072 26.5824 86.4286 24.1945 84.1907 22.9024 Z M 53.1201 1.38436 C 49.923 -0.461454 45.9841 -0.461455 42.7871 1.38436 L 10.1665 20.2178 C 6.96946 22.0637 5 25.4749 5 29.1665 L 5 66.8335 C 5 70.5251 6.96946 73.9363 10.1665 75.7821 L 42.7871 94.6156 C 45.9841 96.4614 49.923 96.4614 53.1201 94.6156 L 85.7406 75.7821 C 88.9377 73.9363 90.9071 70.5251 90.9071 66.8335 L 90.9071 29.1665 C 90.9071 25.4749 88.9377 22.0637 85.7406 20.2178 L 53.1201 1.38436 Z" stroke-linecap="round" />
</g>
<g transform="matrix(10.1 0 0 10.1 585.22 652.91)"  >
<path style="stroke: none; stroke-width: 1; stroke-dasharray: none; stroke-linecap: butt; stroke-dashoffset: 0; stroke-linejoin: miter; stroke-miterlimit: 4; fill: rgb(255,255,255); fill-rule: evenodd; opacity: 1;" vector-effect="non-scaling-stroke"  transform=" translate(-51.56, -57.19)" d="M 53.713 62.196 L 53.713 66.8892 C 54.476 67.2803 55.3783 67.5736 56.4201 67.7692 C 57.4618 67.9647 58.5597 68.0625 59.714 68.0625 C 60.8389 68.0625 61.9074 67.955 62.9198 67.7398 C 63.9322 67.5248 64.82 67.1703 65.5829 66.6765 C 66.3458 66.1828 66.9499 65.5374 67.3949 64.7406 C 67.8399 63.9437 68.0625 62.9587 68.0625 61.7854 C 68.0625 60.9347 67.9354 60.1892 67.681 59.5488 C 67.4267 58.9084 67.0599 58.3388 66.5806 57.8402 C 66.1013 57.3415 65.5267 56.8942 64.8566 56.4982 C 64.1866 56.1022 63.431 55.7282 62.5897 55.3762 C 61.9735 55.122 61.4209 54.8752 60.9318 54.6356 C 60.4427 54.396 60.027 54.1516 59.6846 53.9023 C 59.3422 53.6529 59.0782 53.3889 58.8923 53.1103 C 58.7065 52.8316 58.6135 52.5163 58.6135 52.1643 C 58.6135 51.8417 58.6967 51.5508 58.863 51.2917 C 59.0293 51.0325 59.2641 50.8102 59.5673 50.6243 C 59.8705 50.4386 60.2422 50.2943 60.6823 50.1917 C 61.1226 50.089 61.6116 50.0377 62.1496 50.0377 C 62.5408 50.0377 62.9541 50.0671 63.3893 50.1257 C 63.8246 50.1844 64.2623 50.2748 64.7026 50.397 C 65.1428 50.5192 65.5706 50.6733 65.9864 50.859 C 66.4021 51.0448 66.786 51.2599 67.1381 51.5044 L 67.1381 47.1191 C 66.4241 46.8454 65.644 46.6425 64.7979 46.5105 C 63.9518 46.3785 62.981 46.3125 61.8855 46.3125 C 60.7703 46.3125 59.714 46.4323 58.7163 46.6718 C 57.7186 46.9114 56.8407 47.2853 56.0826 47.7938 C 55.3245 48.3023 54.7254 48.95 54.2853 49.7371 C 53.8451 50.5241 53.625 51.4652 53.625 52.5603 C 53.625 53.9585 54.0285 55.1513 54.8355 56.1389 C 55.6424 57.1264 56.8675 57.9623 58.5109 58.6468 C 59.1564 58.9108 59.758 59.1698 60.3156 59.4241 C 60.8731 59.6783 61.3549 59.9423 61.7607 60.2161 C 62.1667 60.4898 62.487 60.7881 62.7218 61.1107 C 62.9566 61.4333 63.074 61.8 63.074 62.2107 C 63.074 62.5138 63.0006 62.7949 62.8538 63.054 C 62.7071 63.3131 62.4846 63.5379 62.1863 63.7286 C 61.8879 63.9193 61.5162 64.0684 61.0712 64.1759 C 60.6261 64.2835 60.1053 64.3373 59.5086 64.3373 C 58.4913 64.3373 57.4838 64.1588 56.4861 63.8019 C 55.4884 63.4451 54.564 62.9098 53.713 62.196 L 53.713 62.196 Z M 45.8231 50.6327 L 51.8438 50.6327 L 51.8438 46.7812 L 35.0625 46.7812 L 35.0625 50.6327 L 41.0537 50.6327 L 41.0537 67.7812 L 45.8231 67.7812 L 45.8231 50.6327 Z" stroke-linecap="round" />
</g>
<g transform="matrix(21.26 0 0 21.26 599.54 584.11)"  >
<g style="" vector-effect="non-scaling-stroke"   >
		<g transform="matrix(1 0 0 1 -2 -3.1)"  >
<path style="stroke: none; stroke-width: 1; stroke-dasharray: none; stroke-linecap: butt; stroke-dashoffset: 0; stroke-linejoin: miter; stroke-miterlimit: 4; fill: rgb(86,170,255); fill-rule: nonzero; opacity: 1;" vector-effect="non-scaling-stroke"  transform=" translate(-14, -13.4)" d="M 24 4 L 4 4 C 2.3431457505076194 4 1 5.343145750507619 1 7 L 1 21 C 0.9979677943952674 21.43244035183299 1.0936850249125016 21.85974941664207 1.2800000000000002 22.25 C 1.423736103361748 22.552022305539378 1.7089545357241693 22.76218325570116 2.0399999999999996 22.81 L 2.18 22.81 C 2.46722715318493 22.809636283044856 2.7404301571958887 22.685784254559888 2.93 22.47 L 9.93 14.54 L 13.8 19.369999999999997 C 13.969985529225672 19.580513389009155 14.218021792471443 19.713158940047435 14.487485847966802 19.737655672365193 C 14.756949903462157 19.762152404682954 15.024839687989491 19.67640922162405 15.23 19.499999999999996 L 19 16.32 L 22.34 19.18 C 22.630411693058587 19.430157506801613 23.038260549117865 19.49230590391541 23.39 19.34 C 24.14308936791599 19.004350726608504 24.982501851342303 18.91341437423732 25.79 19.08 C 26.08771921809397 19.140836562178173 26.396948904101727 19.063000966015853 26.630389370213422 18.868467244256106 C 26.863829836325117 18.673933522496363 26.996152169371424 18.383809102780294 26.99 18.08 L 26.99 7 C 26.990009183119035 5.347043149750824 25.652947667155647 4.0055098561420746 24 4 Z" stroke-linecap="round" />
</g>
		<g transform="matrix(1 0 0 1 -3.41 1.5)"  >
<path style="stroke: none; stroke-width: 1; stroke-dasharray: none; stroke-linecap: butt; stroke-dashoffset: 0; stroke-linejoin: miter; stroke-miterlimit: 4; fill: rgb(4,120,237); fill-rule: nonzero; opacity: 1;" vector-effect="non-scaling-stroke"  transform=" translate(-12.59, -18)" d="M 23.64 17.66 L 19.64 14.24 C 19.265775984249164 13.91991227690471 18.714224015750837 13.91991227690471 18.34 14.24 L 14.73 17.33 L 10.73 12.329999999999998 C 10.543286078231286 12.123077374603264 10.278688101816892 12.003464590744702 10 12 C 9.705812234731313 11.994532241350822 9.424146650577324 12.118904057730504 9.23 12.34 L 1.43 21.16 C 1.1716759349660424 21.45453318402844 1.109133734488533 21.87278414972178 1.27 22.23 C 1.75326478222969 23.305077132557624 2.821301717045886 23.99754063974615 4 24 L 20 24 C 20.552284749830793 24 21 23.552284749830793 21 23 C 20.999165540067594 21.93881482413786 21.42004571588801 20.92078841595686 22.17 20.17 C 22.519988641277422 19.818031696901006 22.934104107776886 19.53629740411858 23.39 19.340000000000003 C 23.708642738345297 19.204803774526827 23.934711363407896 18.91443977108559 23.98765004985904 18.57237441247819 C 24.040588736310188 18.230309053870787 23.91286837128729 17.885191992440127 23.650000000000002 17.660000000000004 Z" stroke-linecap="round" />
</g>
		<g transform="matrix(1 0 0 1 9 6.51)"  >
<path style="stroke: none; stroke-width: 1; stroke-dasharray: none; stroke-linecap: butt; stroke-dashoffset: 0; stroke-linejoin: miter; stroke-miterlimit: 4; fill: rgb(255,255,255); fill-rule: nonzero; opacity: 1;" vector-effect="non-scaling-stroke"  transform=" translate(-25, -23.01)" d="M 28.54 26.54 C 26.584911985598993 28.49508801440101 23.415088014401007 28.49508801440101 21.46 26.54 C 19.504911985598994 24.584911985598993 19.50491198559899 21.41508801440101 21.46 19.46 C 21.90261568253662 19.033466811320938 22.42168160493541 18.694208038511274 22.990000000000002 18.46 C 24.86942293733691 17.618721131783385 27.072401331568948 18.015654175789155 28.540000000000006 19.46 C 29.48041700687635 20.39804263010167 30.008937836854187 21.67172739141759 30.008937836854187 23 C 30.008937836854184 24.328272608582413 29.480417006876344 25.601957369898333 28.54 26.54 Z" stroke-linecap="round" />
</g>
		<g transform="matrix(1 0 0 1 9 6.5)"  >
<path style="stroke: none; stroke-width: 1; stroke-dasharray: none; stroke-linecap: butt; stroke-dashoffset: 0; stroke-linejoin: miter; stroke-miterlimit: 4; fill: rgb(86,170,255); fill-rule: nonzero; opacity: 1;" vector-effect="non-scaling-stroke"  transform=" translate(-25, -23)" d="M 25 29 C 22.57304684062737 29.001910062982073 20.383953678622653 27.54156485292668 19.45361943532566 25.30000658201816 C 18.523285192028666 23.058448311109636 19.034951817928693 20.477182290644556 20.75 18.759999999999998 C 21.875409542853607 17.633337741819457 23.402544511405594 17.000280061505368 24.995 17.000280061505368 C 26.587455488594408 17.000280061505368 28.11459045714639 17.633337741819457 29.240000000000002 18.759999999999998 C 30.366662258180543 19.885409542853605 30.999719938494632 21.412544511405592 30.999719938494632 23.004999999999995 C 30.999719938494632 24.597455488594402 30.366662258180543 26.12459045714639 29.240000000000002 27.25 L 29.240000000000002 27.25 C 28.114225625303735 28.371873186279316 26.589328732297723 29.00125280013793 25 29 Z M 25 19 C 23.942280255984826 19.001813796894368 22.928336264005065 19.422492687183844 22.179999999999996 20.17 C 21.425825386616506 20.920673471310042 21.001838939415215 21.940908834732284 21.001838939415215 23.005000000000003 C 21.001838939415215 24.06909116526772 21.425825386616502 25.089326528689963 22.18 25.840000000000003 C 23.192847947389645 26.851061619440106 24.668152998807496 27.24497313560027 26.050182019728883 26.873351892709962 C 27.43221104065027 26.50173064981966 28.511000946197143 25.42103475504037 28.880182019728885 24.038351892709965 C 29.249363093260627 22.655669030379556 28.85284794738964 21.181061619440104 27.84 20.17 C 27.29535452636975 19.61940507213037 26.59911224498209 19.243434240181035 25.84 19.090000000000003 C 25.563961902930355 19.03043294191388 25.28239191801695 19.000264729244584 24.999999999999996 19 Z M 28.55 26.54 L 28.55 26.54 Z" stroke-linecap="round" />
</g>
		<g transform="matrix(1 0 0 1 8.96 6.53)"  >
<path style="stroke: none; stroke-width: 1; stroke-dasharray: none; stroke-linecap: butt; stroke-dashoffset: 0; stroke-linejoin: miter; stroke-miterlimit: 4; fill: rgb(86,170,255); fill-rule: nonzero; opacity: 1;" vector-effect="non-scaling-stroke"  transform=" translate(-24.96, -23.03)" d="M 21.46 27.54 C 21.0537349276472 27.542362623049147 20.68641995604832 27.298696223542663 20.530629049786402 26.923481505644244 C 20.37483814352448 26.54826678774582 20.461540051227544 26.116090455897595 20.75 25.83 L 27.82 18.759999999999998 C 28.216760277455702 18.420223204071295 28.808194171545708 18.443067730318965 29.17756322061337 18.81243677938663 C 29.546932269681033 19.18180582845429 29.569776795928703 19.773239722544297 29.23 20.169999999999998 L 22.16 27.24 C 21.9753695398964 27.428414263716896 21.723769266900927 27.536242952143528 21.46 27.54 Z" stroke-linecap="round" />
</g>
		<g transform="matrix(1 0 0 1 0 -6.5)"  >
<circle style="stroke: none; stroke-width: 1; stroke-dasharray: none; stroke-linecap: butt; stroke-dashoffset: 0; stroke-linejoin: miter; stroke-miterlimit: 4; fill: rgb(255,255,255); fill-rule: nonzero; opacity: 1;" vector-effect="non-scaling-stroke"  cx="0" cy="0" r="2" />
</g>
</g>
</g>
</svg>