<?xml version="1.0" encoding="UTF-8" standalone="no" ?>
<!DOCTYPE svg PUBLIC "-//W3C//DTD SVG 1.1//EN" "http://www.w3.org/Graphics/SVG/1.1/DTD/svg11.dtd">
<svg xmlns="http://www.w3.org/2000/svg" xmlns:xlink="http://www.w3.org/1999/xlink" version="1.1" width="1080" height="1080" viewBox="0 0 1080 1080" xml:space="preserve">
<desc>Created with Fabric.js 5.2.4</desc>
<defs>
</defs>
<rect x="0" y="0" width="100%" height="100%" fill="transparent"></rect>
<g transform="matrix(1 0 0 1 540 540)" id="2073f9a8-83b0-4d12-994c-23d3b447b61e"  >
<rect style="stroke: none; stroke-width: 1; stroke-dasharray: none; stroke-linecap: butt; stroke-dashoffset: 0; stroke-linejoin: miter; stroke-miterlimit: 4; fill: rgb(255,255,255); fill-rule: nonzero; opacity: 1; visibility: hidden;" vector-effect="non-scaling-stroke"  x="-540" y="-540" rx="0" ry="0" width="1080" height="1080" />
</g>
<g transform="matrix(1 0 0 1 540 540)" id="bdffcd9d-ecaa-41c3-9762-2a9583f0442d"  >
</g>
<g transform="matrix(1 0 0 1 540 540)"  >
<rect style="stroke: none; stroke-width: 1; stroke-dasharray: none; stroke-linecap: butt; stroke-dashoffset: 0; stroke-linejoin: miter; stroke-miterlimit: 4; fill: rgb(255,255,255); fill-rule: nonzero; opacity: 1; visibility: hidden;" vector-effect="non-scaling-stroke"  x="-250" y="-250" rx="0" ry="0" width="500" height="500" />
</g>
<g transform="matrix(0.46 0 0 0.46 540 540)"  >
<rect style="stroke: none; stroke-width: 1; stroke-dasharray: none; stroke-linecap: butt; stroke-dashoffset: 0; stroke-linejoin: miter; stroke-miterlimit: 4; fill: rgb(255,255,255); fill-rule: nonzero; opacity: 1; visibility: hidden;" vector-effect="non-scaling-stroke"  x="-540" y="-540" rx="0" ry="0" width="1080" height="1080" />
</g>
<g transform="matrix(10.1 0 0 10.1 546.7 560.87)"  >
<path style="stroke: none; stroke-width: 1; stroke-dasharray: none; stroke-linecap: butt; stroke-dashoffset: 0; stroke-linejoin: miter; stroke-miterlimit: 4; fill: rgb(255,255,255); fill-rule: nonzero; opacity: 1;" vector-effect="non-scaling-stroke"  transform=" translate(-48, -48)" d="M 44 2.30935 C 46.4752 0.880283 49.5248 0.880284 52 2.30935 L 85.5692 21.6905 C 88.0444 23.1196 89.5692 25.7606 89.5692 28.6187 L 89.5692 67.3811 C 89.5692 70.2393 88.0444 72.8803 85.5692 74.3093 L 52 93.6905 C 49.5248 95.1196 46.4752 95.1196 44 93.6905 L 10.4308 74.3093 C 7.95558 72.8803 6.43079 70.2393 6.43079 67.3811 L 6.43079 28.6187 C 6.43079 25.7606 7.95558 23.1196 10.4308 21.6905 L 44 2.30935 Z" stroke-linecap="round" />
</g>
<g transform="matrix(10.1 0 0 10.1 557.75 560.88)"  >
<path style="stroke: none; stroke-width: 1; stroke-dasharray: none; stroke-linecap: butt; stroke-dashoffset: 0; stroke-linejoin: miter; stroke-miterlimit: 4; fill: rgb(49,120,198); fill-rule: evenodd; opacity: 1;" vector-effect="non-scaling-stroke"  transform=" translate(-47.95, -48)" d="M 84.1907 22.9024 L 51.5701 4.06896 C 49.3322 2.77689 46.575 2.77689 44.337 4.06896 L 11.7165 22.9024 C 9.47853 24.1945 8.09991 26.5824 8.09991 29.1665 L 8.09991 66.8335 C 8.09991 69.4176 9.47853 71.8055 11.7165 73.0975 L 44.337 91.931 C 46.575 93.2231 49.3322 93.2231 51.5701 91.931 L 84.1907 73.0975 C 86.4286 71.8055 87.8072 69.4176 87.8072 66.8335 L 87.8072 29.1665 C 87.8072 26.5824 86.4286 24.1945 84.1907 22.9024 Z M 53.1201 1.38436 C 49.923 -0.461454 45.9841 -0.461455 42.7871 1.38436 L 10.1665 20.2178 C 6.96946 22.0637 5 25.4749 5 29.1665 L 5 66.8335 C 5 70.5251 6.96946 73.9363 10.1665 75.7821 L 42.7871 94.6156 C 45.9841 96.4614 49.923 96.4614 53.1201 94.6156 L 85.7406 75.7821 C 88.9377 73.9363 90.9071 70.5251 90.9071 66.8335 L 90.9071 29.1665 C 90.9071 25.4749 88.9377 22.0637 85.7406 20.2178 L 53.1201 1.38436 Z" stroke-linecap="round" />
</g>
<g transform="matrix(10.1 0 0 10.1 582.26 652.91)"  >
<path style="stroke: none; stroke-width: 1; stroke-dasharray: none; stroke-linecap: butt; stroke-dashoffset: 0; stroke-linejoin: miter; stroke-miterlimit: 4; fill: rgb(255,255,255); fill-rule: evenodd; opacity: 1;" vector-effect="non-scaling-stroke"  transform=" translate(-51.56, -57.19)" d="M 53.713 62.196 L 53.713 66.8892 C 54.476 67.2803 55.3783 67.5736 56.4201 67.7692 C 57.4618 67.9647 58.5597 68.0625 59.714 68.0625 C 60.8389 68.0625 61.9074 67.955 62.9198 67.7398 C 63.9322 67.5248 64.82 67.1703 65.5829 66.6765 C 66.3458 66.1828 66.9499 65.5374 67.3949 64.7406 C 67.8399 63.9437 68.0625 62.9587 68.0625 61.7854 C 68.0625 60.9347 67.9354 60.1892 67.681 59.5488 C 67.4267 58.9084 67.0599 58.3388 66.5806 57.8402 C 66.1013 57.3415 65.5267 56.8942 64.8566 56.4982 C 64.1866 56.1022 63.431 55.7282 62.5897 55.3762 C 61.9735 55.122 61.4209 54.8752 60.9318 54.6356 C 60.4427 54.396 60.027 54.1516 59.6846 53.9023 C 59.3422 53.6529 59.0782 53.3889 58.8923 53.1103 C 58.7065 52.8316 58.6135 52.5163 58.6135 52.1643 C 58.6135 51.8417 58.6967 51.5508 58.863 51.2917 C 59.0293 51.0325 59.2641 50.8102 59.5673 50.6243 C 59.8705 50.4386 60.2422 50.2943 60.6823 50.1917 C 61.1226 50.089 61.6116 50.0377 62.1496 50.0377 C 62.5408 50.0377 62.9541 50.0671 63.3893 50.1257 C 63.8246 50.1844 64.2623 50.2748 64.7026 50.397 C 65.1428 50.5192 65.5706 50.6733 65.9864 50.859 C 66.4021 51.0448 66.786 51.2599 67.1381 51.5044 L 67.1381 47.1191 C 66.4241 46.8454 65.644 46.6425 64.7979 46.5105 C 63.9518 46.3785 62.981 46.3125 61.8855 46.3125 C 60.7703 46.3125 59.714 46.4323 58.7163 46.6718 C 57.7186 46.9114 56.8407 47.2853 56.0826 47.7938 C 55.3245 48.3023 54.7254 48.95 54.2853 49.7371 C 53.8451 50.5241 53.625 51.4652 53.625 52.5603 C 53.625 53.9585 54.0285 55.1513 54.8355 56.1389 C 55.6424 57.1264 56.8675 57.9623 58.5109 58.6468 C 59.1564 58.9108 59.758 59.1698 60.3156 59.4241 C 60.8731 59.6783 61.3549 59.9423 61.7607 60.2161 C 62.1667 60.4898 62.487 60.7881 62.7218 61.1107 C 62.9566 61.4333 63.074 61.8 63.074 62.2107 C 63.074 62.5138 63.0006 62.7949 62.8538 63.054 C 62.7071 63.3131 62.4846 63.5379 62.1863 63.7286 C 61.8879 63.9193 61.5162 64.0684 61.0712 64.1759 C 60.6261 64.2835 60.1053 64.3373 59.5086 64.3373 C 58.4913 64.3373 57.4838 64.1588 56.4861 63.8019 C 55.4884 63.4451 54.564 62.9098 53.713 62.196 L 53.713 62.196 Z M 45.8231 50.6327 L 51.8438 50.6327 L 51.8438 46.7812 L 35.0625 46.7812 L 35.0625 50.6327 L 41.0537 50.6327 L 41.0537 67.7812 L 45.8231 67.7812 L 45.8231 50.6327 Z" stroke-linecap="round" />
</g>
<g transform="matrix(0.25 0 0 0.25 562.91 540)"  >
<g style="" vector-effect="non-scaling-stroke"   >
		<g transform="matrix(9.77 0 0 9.77 0.86 0)"  >
<path style="stroke: none; stroke-width: 1; stroke-dasharray: none; stroke-linecap: butt; stroke-dashoffset: 0; stroke-linejoin: miter; stroke-miterlimit: 4; fill: rgb(54,69,72); fill-rule: evenodd; opacity: 1;" vector-effect="non-scaling-stroke"  transform=" translate(-127.93, -107.26)" d="M 38.617 173.984 L 38.617 157.622 C 38.617 155.472 39.961 153.745 42.187 153.745 L 42.803 153.745 C 45.028 153.745 46.366 155.47400000000002 46.366 157.622 L 46.366 192.06900000000002 C 46.366 200.46900000000002 42.216 207.15300000000002 34.984 211.411 C 31.67115202506884 213.3737297757744 27.8896087568723 214.4050597580098 24.039 214.39600000000002 L 22.502000000000002 214.39600000000002 C 14.100000000000003 214.39600000000002 7.4250000000000025 210.24300000000002 3.1600000000000037 203.01600000000002 C 1.1944988371900729 199.70364352325768 0.16329080318846234 195.9205891170192 0.17600000000000193 192.06900000000002 L 0.1760000000000037 190.53400000000002 C 0.1760000000000037 182.13100000000003 4.328000000000004 175.45100000000002 11.554000000000004 171.18500000000003 C 14.86623321566181 169.21823177034142 18.649872415065097 168.1866129349177 22.501999999999992 168.20000000000002 L 24.039 168.20000000000002 C 29.725 168.20000000000002 34.549 170.40400000000002 38.617000000000004 173.984 z M 7.924 191.3 C 7.924 197.36800000000002 10.865 201.93 16.182 204.84 C 18.331999999999997 206.016 20.665999999999997 206.648 23.119 206.648 C 29.075 206.648 33.493 203.838 36.54 198.791 C 37.957 196.44299999999998 38.617 193.874 38.617 191.143 C 38.617 185.883 36.126999999999995 181.778 31.887999999999998 178.729 C 29.317999999999998 176.881 26.424999999999997 175.954 23.269999999999996 175.954 C 16.777999999999995 175.954 12.105999999999996 179.234 9.301999999999996 185.06 C 8.355999999999996 187.03 7.923999999999996 189.121 7.923999999999996 191.3 z M 73.248 168.20000000000002 L 74.322 168.20000000000002 C 83.3 168.20000000000002 90.128 172.555 94.455 180.39200000000002 C 96.185 183.52700000000002 97.111 186.949 97.111 190.53400000000002 L 97.111 192.06900000000002 C 97.111 200.46900000000002 92.96900000000001 207.162 85.726 211.412 C 82.373 213.37900000000002 78.669 214.39600000000002 74.783 214.39600000000002 L 73.248 214.39600000000002 C 64.846 214.39600000000002 58.169000000000004 210.24300000000002 53.906000000000006 203.01600000000002 C 51.93954118418925 199.7039044166991 50.90729825445482 195.92085675958398 50.919000000000004 192.06900000000002 L 50.919000000000004 190.53400000000002 C 50.919000000000004 182.13000000000002 55.088 175.472 62.29600000000001 171.187 C 65.647 169.196 69.35400000000001 168.20000000000002 73.248 168.20000000000002 z M 58.668000000000006 191.3 C 58.668000000000006 197.19 61.55800000000001 201.52300000000002 66.533 204.57000000000002 C 68.869 206.00000000000003 71.44200000000001 206.64800000000002 74.171 206.64800000000002 C 79.99100000000001 206.64800000000002 84.293 203.69700000000003 87.287 198.78500000000003 C 88.715 196.443 89.361 193.87000000000003 89.361 191.14300000000003 C 89.361 185.66600000000003 86.723 181.48200000000003 82.21300000000001 178.45000000000002 C 79.742 176.787 76.99100000000001 175.954 74.01500000000001 175.954 C 67.52300000000001 175.954 62.85100000000001 179.234 60.048000000000016 185.06 C 59.100000000000016 187.03 58.66800000000001 189.121 58.66800000000001 191.3 z M 129.324 176.573 C 128.15400000000002 176.025 125.96400000000001 175.84300000000002 124.70000000000002 175.79500000000002 C 118.22600000000001 175.55100000000002 113.54200000000002 179.197 110.79400000000001 184.90800000000002 C 109.84500000000001 186.87800000000001 109.412 188.96300000000002 109.412 191.14300000000003 C 109.412 197.78000000000003 112.897 202.42700000000002 118.82100000000001 205.26000000000002 C 120.98500000000001 206.294 123.77900000000001 206.49 126.144 206.49 C 128.22400000000002 206.49 131.16400000000002 205.216 133.01 204.339 L 133.32999999999998 204.187 L 134.76299999999998 204.187 L 134.92099999999996 204.21900000000002 C 136.68299999999996 204.586 138.01299999999998 205.70300000000003 138.01299999999998 207.59900000000002 L 138.01299999999998 208.366 C 138.01299999999998 213.084 129.39099999999996 214.16400000000002 126.10099999999997 214.394 C 114.49099999999997 215.197 105.80799999999996 208.821 102.49799999999996 197.747 C 101.92299999999996 195.824 101.66399999999996 193.91400000000002 101.66399999999996 191.91000000000003 L 101.66399999999996 190.37700000000004 C 101.66399999999996 181.97400000000005 105.83399999999996 175.31800000000004 113.04099999999995 171.03700000000003 C 116.39199999999995 169.04700000000003 120.09799999999996 168.04700000000003 123.99099999999996 168.04700000000003 L 125.52699999999996 168.04700000000003 C 129.65699999999995 168.04700000000003 133.46099999999996 169.22000000000003 136.87099999999995 171.54900000000004 L 137.15099999999995 171.74300000000002 L 137.32799999999995 172.03500000000003 C 137.69599999999994 172.64500000000004 138.01299999999995 173.35100000000003 138.01299999999995 174.07700000000003 L 138.01299999999995 174.84400000000002 C 138.01299999999995 176.82200000000003 136.53299999999996 177.88600000000002 134.74699999999996 178.23000000000002 L 134.59899999999996 178.25600000000003 L 134.14099999999996 178.25600000000003 C 132.98499999999996 178.25600000000003 130.35599999999997 177.05900000000003 129.32399999999996 176.57300000000004 z M 154.45800000000003 181.82 C 157.46800000000002 178.80599999999998 160.48800000000003 175.798 163.54300000000003 172.834 C 164.39400000000003 172.007 167.61700000000005 168.507 168.88600000000002 168.507 L 170.27400000000003 168.507 L 170.43200000000002 168.54 C 172.20000000000002 168.90699999999998 173.52400000000003 170.02599999999998 173.52400000000003 171.926 L 173.52400000000003 172.69199999999998 C 173.52400000000003 173.98799999999997 172.00600000000003 175.49399999999997 171.16900000000004 176.38099999999997 C 169.38900000000004 178.26799999999997 167.51500000000004 180.09299999999996 165.69300000000004 181.94099999999997 L 156.33100000000005 191.44499999999996 C 160.36200000000005 195.48499999999996 164.38900000000004 199.52799999999996 168.38700000000006 203.59899999999996 C 169.49587351848936 204.72266727691513 170.596238280984 205.85469961058124 171.68799999999993 206.99499999999983 C 172.07300000000004 207.39999999999995 172.64100000000005 207.90399999999994 172.96400000000006 208.46499999999995 C 173.31100000000006 208.99099999999996 173.52400000000006 209.58399999999995 173.52400000000006 210.21699999999996 L 173.52400000000006 211.01699999999997 L 173.47900000000007 211.20199999999997 C 173.04400000000007 212.96999999999997 171.92200000000008 214.39599999999996 169.96300000000008 214.39599999999996 L 169.3460000000001 214.39599999999996 C 168.06400000000008 214.39599999999996 166.6160000000001 212.94599999999997 165.73800000000008 212.11699999999996 C 163.92800000000008 210.41099999999997 162.1810000000001 208.61699999999996 160.4070000000001 206.87399999999997 L 154.45800000000008 201.03399999999996 L 154.45800000000008 210.36799999999997 C 154.45800000000008 212.51799999999997 153.11200000000008 214.24599999999998 150.8890000000001 214.24599999999998 L 150.27900000000008 214.24599999999998 C 148.05300000000008 214.24599999999998 146.7090000000001 212.51799999999997 146.7090000000001 210.368 L 146.7090000000001 157.772 C 146.7090000000001 155.62199999999999 148.0540000000001 153.902 150.27900000000008 153.902 L 150.8890000000001 153.902 C 153.1120000000001 153.902 154.45800000000008 155.62199999999999 154.45800000000008 157.772 L 154.45800000000008 181.82 z M 251.03500000000003 168.507 L 251.80500000000004 168.507 C 254.12900000000005 168.507 255.68000000000004 170.073 255.68000000000004 172.38400000000001 C 255.68000000000004 175.592 252.61300000000003 176.413 249.96000000000004 176.413 C 246.48000000000005 176.413 243.15700000000004 178.52 240.75800000000004 180.883 C 237.76700000000002 183.83200000000002 236.45800000000003 187.609 236.45800000000003 191.76100000000002 L 236.45800000000003 210.52000000000004 C 236.45800000000003 212.67000000000004 235.11500000000004 214.39600000000004 232.88800000000003 214.39600000000004 L 232.27600000000004 214.39600000000004 C 230.04900000000004 214.39600000000004 228.70700000000005 212.67100000000005 228.70700000000005 210.52000000000004 L 228.70700000000005 190.68400000000003 C 228.70700000000005 183.06700000000004 232.41500000000005 176.84900000000002 238.59700000000004 172.48800000000003 C 242.28800000000004 169.88300000000004 246.51600000000005 168.50800000000004 251.03500000000003 168.50800000000004 z M 195.961 205.683 C 198.781 206.668 201.996 206.527 204.889 206.023 C 206.369 205.394 210.15300000000002 203.743 211.54500000000002 203.98499999999999 L 211.76200000000003 204.022 L 211.96200000000002 204.12 C 212.812 204.532 213.62300000000002 205.115 214.05700000000002 205.98000000000002 C 215.07100000000003 208.007 214.584 210.04500000000002 212.592 211.19600000000003 L 211.929 211.57900000000004 C 204.579 215.82100000000003 196.761 215.23300000000003 189.434 211.27100000000004 C 185.93099999999998 209.37700000000004 183.251 206.56600000000003 181.274 203.13900000000004 L 180.812 202.33800000000005 C 176.09300000000002 194.16600000000005 176.73000000000002 185.57000000000005 182.05200000000002 177.79900000000004 C 183.889 175.11300000000003 186.29000000000002 173.03800000000004 189.097 171.41500000000002 L 190.15900000000002 170.80200000000002 C 197.08100000000002 166.806 204.50000000000003 167.08 211.609 170.58700000000002 C 215.43200000000002 172.473 218.529 175.28400000000002 220.663 178.98100000000002 L 221.047 179.64700000000002 C 222.597 182.33300000000003 220.589 184.67300000000003 218.516 186.27300000000002 C 216.10999999999999 188.12900000000002 213.68099999999998 190.36300000000003 211.375 192.35300000000004 C 206.233 196.79200000000003 201.099 201.24100000000004 195.961 205.68300000000005 z M 189.306 201.009 C 195.056 196.07899999999998 200.80800000000002 191.14399999999998 206.543 186.19299999999998 C 208.50300000000001 184.503 210.65200000000002 182.749 212.596 180.97199999999998 C 211.036 179.00599999999997 208.43 177.58899999999997 206.216 176.74399999999997 C 201.746 175.04099999999997 197.339 175.61299999999997 193.24 177.97899999999998 C 187.875 181.077 185.59 186.01 185.79000000000002 192.14899999999997 C 185.87000000000003 194.56699999999998 186.52 196.89699999999996 187.80300000000003 198.95399999999998 C 188.25500000000002 199.67899999999997 188.76000000000002 200.35999999999999 189.306 201.009 z M 147.488 45.732 L 170.35399999999998 45.732 L 170.35399999999998 69.107 L 181.915 69.107 C 187.255 69.107 192.74599999999998 68.156 197.802 66.443 C 200.287 65.6 203.075 64.428 205.52599999999998 62.952999999999996 C 202.29799999999997 58.739 200.64999999999998 53.41799999999999 200.16599999999997 48.172999999999995 C 199.50599999999997 41.038 200.94599999999997 31.751999999999995 205.77399999999997 26.167999999999996 L 208.17799999999997 23.387999999999995 L 211.04199999999997 25.690999999999995 C 218.253 31.483999999999995 224.31799999999998 39.58 225.38699999999997 48.809 C 234.06999999999996 46.254999999999995 244.265 46.858999999999995 251.91799999999998 51.275999999999996 L 255.05799999999996 53.087999999999994 L 253.40599999999998 56.31399999999999 C 246.933 68.946 233.4 72.86 220.17 72.167 C 200.373 121.476 157.272 144.82 105.01299999999999 144.82 C 78.01299999999999 144.82 53.24299999999999 134.727 39.136999999999986 110.773 L 38.905999999999985 110.383 L 36.850999999999985 106.201 C 32.082999999999984 95.657 30.498999999999985 84.106 31.572999999999986 72.564 L 31.895999999999987 69.107 L 51.45 69.107 L 51.45 45.732 L 74.315 45.732 L 74.315 22.866 L 120.048 22.866 L 120.048 0 L 147.488 0 L 147.488 45.732" stroke-linecap="round" />
</g>
		<g transform="matrix(9.77 0 0 9.77 143.54 -218.95)"  >
<path style="stroke: none; stroke-width: 1; stroke-dasharray: none; stroke-linecap: butt; stroke-dashoffset: 0; stroke-linejoin: miter; stroke-miterlimit: 4; fill: rgb(34,160,200); fill-rule: evenodd; opacity: 1;" vector-effect="non-scaling-stroke"  transform=" translate(-142.54, -84.83)" d="M 221.57 54.38 C 223.10299999999998 42.464 214.18599999999998 33.105000000000004 208.656 28.661 C 202.28300000000002 36.029 201.293 55.339 211.291 63.469 C 205.71099999999998 68.425 193.954 72.917 181.915 72.917 L 35.37 72.917 C 34.199999999999996 85.48400000000001 36.406 97.057 41.445 106.962 L 43.112 110.012 C 44.16751273825166 111.8021873187887 45.32093005793561 113.53281405836658 46.567 115.196 C 52.592 115.583 58.147 115.716 63.229 115.604 L 63.231 115.604 C 73.218 115.384 81.367 114.204 87.543 112.064 C 88.4506543933901 111.78166610391635 89.41856901090642 112.27061311537784 89.72991262467694 113.1687300792987 C 90.04125623844746 114.06684704321955 89.58365261433957 115.04996799713224 88.69600000000001 115.38999999999999 C 87.87400000000001 115.67599999999999 87.01800000000001 115.942 86.13400000000001 116.195 L 86.13100000000001 116.195 C 81.26800000000001 117.58399999999999 76.05300000000001 118.51799999999999 69.32500000000002 118.93299999999999 C 69.72500000000002 118.94 68.90900000000002 118.993 68.90700000000001 118.993 C 68.67800000000001 119.008 68.39000000000001 119.041 68.16000000000001 119.053 C 65.51200000000001 119.202 62.65400000000001 119.233 59.73200000000001 119.233 C 56.536000000000016 119.233 53.38900000000001 119.173 49.87000000000001 118.99300000000001 L 49.78000000000001 119.05300000000001 C 61.99000000000001 132.77700000000002 81.08200000000001 141.008 105.01400000000001 141.008 C 155.662 141.008 198.622 118.55600000000001 217.64600000000002 68.15100000000001 C 231.14200000000002 69.53600000000002 244.113 66.09400000000001 250.013 54.57600000000001 C 240.615 49.153000000000006 228.529 50.882000000000005 221.57 54.38000000000001" stroke-linecap="round" />
</g>
		<g transform="matrix(9.77 0 0 9.77 52.83 -295.82)"  >
<path style="stroke: none; stroke-width: 1; stroke-dasharray: none; stroke-linecap: butt; stroke-dashoffset: 0; stroke-linejoin: miter; stroke-miterlimit: 4; fill: rgb(55,177,217); fill-rule: evenodd; opacity: 1;" vector-effect="non-scaling-stroke"  transform=" translate(-133.25, -76.96)" d="M 221.57 54.38 C 223.10299999999998 42.464 214.18599999999998 33.105000000000004 208.656 28.661 C 202.28300000000002 36.029 201.293 55.339 211.291 63.469 C 205.71099999999998 68.425 193.954 72.917 181.915 72.917 L 44.048 72.917 C 43.45 92.163 50.592 106.77199999999999 63.228 115.604 L 63.231 115.604 C 73.218 115.384 81.367 114.204 87.543 112.064 C 88.4506543933901 111.78166610391635 89.41856901090642 112.27061311537784 89.72991262467694 113.1687300792987 C 90.04125623844746 114.06684704321955 89.58365261433957 115.04996799713224 88.69600000000001 115.38999999999999 C 87.87400000000001 115.67599999999999 87.01800000000001 115.942 86.13400000000001 116.195 L 86.13100000000001 116.195 C 81.26800000000001 117.58399999999999 75.60500000000002 118.63799999999999 68.87700000000001 119.053 C 68.87500000000001 119.053 68.71400000000001 118.898 68.712 118.898 C 85.949 127.74 110.94200000000001 127.708 139.597 116.701 C 171.727 104.357 201.626 80.841 222.48700000000002 53.943999999999996 C 222.17300000000003 54.086 221.86700000000002 54.230999999999995 221.57000000000002 54.379999999999995" stroke-linecap="round" />
</g>
		<g transform="matrix(9.77 0 0 9.77 -58.8 71.7)"  >
<path style="stroke: none; stroke-width: 1; stroke-dasharray: none; stroke-linecap: butt; stroke-dashoffset: 0; stroke-linejoin: miter; stroke-miterlimit: 4; fill: rgb(27,129,165); fill-rule: evenodd; opacity: 1;" vector-effect="non-scaling-stroke"  transform=" translate(-121.82, -114.6)" d="M 35.645 88.186 C 36.555 94.918 38.525000000000006 101.221 41.445 106.962 L 43.112 110.012 C 44.167333644750755 111.80229967163507 45.32075743289003 113.53293611670425 46.56699999999999 115.19599999999998 C 52.593 115.583 58.147999999999996 115.716 63.231 115.604 C 73.218 115.384 81.367 114.204 87.543 112.064 C 88.4506543933901 111.78166610391635 89.41856901090642 112.27061311537784 89.72991262467694 113.1687300792987 C 90.04125623844746 114.06684704321955 89.58365261433957 115.04996799713224 88.69600000000001 115.38999999999999 C 87.87400000000001 115.67599999999999 87.01800000000001 115.942 86.13400000000001 116.195 L 86.13100000000001 116.195 C 81.26800000000001 117.58399999999999 75.63500000000002 118.57799999999999 68.90700000000001 118.994 C 68.67600000000002 119.008 68.27300000000001 119.011 68.04 119.024 C 65.394 119.172 62.565000000000005 119.263 59.64200000000001 119.263 C 56.44700000000001 119.263 53.17900000000001 119.202 49.662000000000006 119.02300000000001 C 61.87200000000001 132.747 81.08200000000001 141.008 105.01400000000001 141.008 C 148.37400000000002 141.008 186.098 124.55000000000001 207.993 88.186 L 35.645 88.186" stroke-linecap="round" />
</g>
		<g transform="matrix(9.77 0 0 9.77 -106.11 -4.92)"  >
<path style="stroke: none; stroke-width: 1; stroke-dasharray: none; stroke-linecap: butt; stroke-dashoffset: 0; stroke-linejoin: miter; stroke-miterlimit: 4; fill: rgb(29,145,180); fill-rule: evenodd; opacity: 1;" vector-effect="non-scaling-stroke"  transform=" translate(-116.97, -106.75)" d="M 45.367 88.186 C 47.958999999999996 100.006 54.187999999999995 109.28500000000001 63.230999999999995 115.60400000000001 C 73.21799999999999 115.38400000000001 81.36699999999999 114.20400000000001 87.54299999999999 112.06400000000001 C 88.45065439339008 111.78166610391636 89.41856901090641 112.27061311537786 89.72991262467693 113.16873007929871 C 90.04125623844745 114.06684704321957 89.58365261433956 115.04996799713226 88.696 115.39 C 87.874 115.676 87.018 115.94200000000001 86.134 116.19500000000001 L 86.131 116.19500000000001 C 81.268 117.584 75.516 118.578 68.787 118.99400000000001 C 86.02300000000001 127.83400000000002 110.944 127.70700000000001 139.597 116.70100000000001 C 156.931 110.04100000000001 173.614 100.12700000000001 188.58100000000002 88.186 L 45.367 88.186" stroke-linecap="round" />
</g>
		<g transform="matrix(9.77 0 0 9.77 -500.37 -578.48)"  >
<path style="stroke: none; stroke-width: 1; stroke-dasharray: none; stroke-linecap: butt; stroke-dashoffset: 0; stroke-linejoin: miter; stroke-miterlimit: 4; fill: rgb(35,163,194); fill-rule: evenodd; opacity: 1;" vector-effect="non-scaling-stroke"  transform=" translate(-76.6, -48.02)" d="M 55.26 49.543 L 75.078 49.543 L 75.078 69.361 L 55.26 69.361 L 55.26 49.543 z M 56.911 51.195 L 58.475 51.195 L 58.475 67.71 L 56.911 67.71 L 56.911 51.195 z M 59.851 51.195 L 61.478 51.195 L 61.478 67.71 L 59.852000000000004 67.71 L 59.852000000000004 51.195 z M 62.853 51.195 L 64.48 51.195 L 64.48 67.71 L 62.853 67.71 L 62.853 51.195 z M 65.857 51.195 L 67.483 51.195 L 67.483 67.71 L 65.857 67.71 L 65.857 51.195 z M 68.86 51.195 L 70.486 51.195 L 70.486 67.71 L 68.86 67.71 L 68.86 51.195 z M 71.862 51.195 L 73.42699999999999 51.195 L 73.42699999999999 67.71 L 71.862 67.71 L 71.862 51.195 z M 78.126 26.677 L 97.94500000000001 26.677 L 97.94500000000001 46.494 L 78.125 46.494 L 78.125 26.677 z M 79.778 28.329 L 81.34100000000001 28.329 L 81.34100000000001 44.843 L 79.778 44.843 L 79.778 28.329 z M 82.718 28.329 L 84.34400000000001 28.329 L 84.34400000000001 44.843 L 82.71900000000001 44.843 L 82.71900000000001 28.329 z M 85.72 28.329 L 87.346 28.329 L 87.346 44.843 L 85.72 44.843 L 85.72 28.329 z M 88.723 28.329 L 90.349 28.329 L 90.349 44.843 L 88.723 44.843 L 88.723 28.329 z M 91.726 28.329 L 93.353 28.329 L 93.353 44.843 L 91.726 44.843 L 91.726 28.329 z M 94.728 28.329 L 96.294 28.329 L 96.294 44.843 L 94.728 44.843 L 94.728 28.329 z" stroke-linecap="round" />
</g>
		<g transform="matrix(9.77 0 0 9.77 -388.72 -466.83)"  >
<path style="stroke: none; stroke-width: 1; stroke-dasharray: none; stroke-linecap: butt; stroke-dashoffset: 0; stroke-linejoin: miter; stroke-miterlimit: 4; fill: rgb(52,187,222); fill-rule: evenodd; opacity: 1;" vector-effect="non-scaling-stroke"  transform=" translate(-88.03, -59.45)" d="M 78.126 49.543 L 97.94500000000001 49.543 L 97.94500000000001 69.361 L 78.125 69.361 L 78.125 49.543 z M 79.778 51.195 L 81.34100000000001 51.195 L 81.34100000000001 67.71 L 79.778 67.71 L 79.778 51.195 z M 82.718 51.195 L 84.34400000000001 51.195 L 84.34400000000001 67.71 L 82.71900000000001 67.71 L 82.71900000000001 51.195 z M 85.72 51.195 L 87.346 51.195 L 87.346 67.71 L 85.72 67.71 L 85.72 51.195 z M 88.723 51.195 L 90.349 51.195 L 90.349 67.71 L 88.723 67.71 L 88.723 51.195 z M 91.726 51.195 L 93.353 51.195 L 93.353 67.71 L 91.726 67.71 L 91.726 51.195 z M 94.728 51.195 L 96.294 51.195 L 96.294 67.71 L 94.728 67.71 L 94.728 51.195 z" stroke-linecap="round" />
</g>
		<g transform="matrix(9.77 0 0 9.77 -165.41 -466.83)"  >
<path style="stroke: none; stroke-width: 1; stroke-dasharray: none; stroke-linecap: butt; stroke-dashoffset: 0; stroke-linejoin: miter; stroke-miterlimit: 4; fill: rgb(35,163,194); fill-rule: evenodd; opacity: 1;" vector-effect="non-scaling-stroke"  transform=" translate(-110.9, -59.45)" d="M 100.993 49.543 L 120.81099999999999 49.543 L 120.81099999999999 69.361 L 100.993 69.361 L 100.993 49.543 z M 102.64399999999999 51.195 L 104.207 51.195 L 104.207 67.71 L 102.64399999999999 67.71 L 102.64399999999999 51.195 z M 105.58399999999999 51.195 L 107.21 51.195 L 107.21 67.71 L 105.58399999999999 67.71 L 105.58399999999999 51.195 z M 108.58699999999999 51.195 L 110.213 51.195 L 110.213 67.71 L 108.58699999999999 67.71 L 108.58699999999999 51.195 z M 111.58999999999999 51.195 L 113.216 51.195 L 113.216 67.71 L 111.58999999999999 67.71 L 111.58999999999999 51.195 z M 114.59199999999998 51.195 L 116.21999999999998 51.195 L 116.21999999999998 67.71 L 114.59199999999998 67.71 L 114.59199999999998 51.195 z M 117.59499999999998 51.195 L 119.15899999999999 51.195 L 119.15899999999999 67.71 L 117.595 67.71 L 117.595 51.195 z" stroke-linecap="round" />
</g>
		<g transform="matrix(9.77 0 0 9.77 -53.76 -578.48)"  >
<path style="stroke: none; stroke-width: 1; stroke-dasharray: none; stroke-linecap: butt; stroke-dashoffset: 0; stroke-linejoin: miter; stroke-miterlimit: 4; fill: rgb(52,187,222); fill-rule: evenodd; opacity: 1;" vector-effect="non-scaling-stroke"  transform=" translate(-122.33, -48.02)" d="M 100.993 26.677 L 120.81099999999999 26.677 L 120.81099999999999 46.494 L 100.993 46.494 L 100.993 26.677 z M 102.64399999999999 28.329 L 104.207 28.329 L 104.207 44.843 L 102.64399999999999 44.843 L 102.64399999999999 28.329 z M 105.58399999999999 28.329 L 107.21 28.329 L 107.21 44.843 L 105.58399999999999 44.843 L 105.58399999999999 28.329 z M 108.58699999999999 28.329 L 110.213 28.329 L 110.213 44.843 L 108.58699999999999 44.843 L 108.58699999999999 28.329 z M 111.58999999999999 28.329 L 113.216 28.329 L 113.216 44.843 L 111.58999999999999 44.843 L 111.58999999999999 28.329 z M 114.59199999999998 28.329 L 116.21999999999998 28.329 L 116.21999999999998 44.843 L 114.59199999999998 44.843 L 114.59199999999998 28.329 z M 117.59499999999998 28.329 L 119.15899999999999 28.329 L 119.15899999999999 44.843 L 117.595 44.843 L 117.595 28.329 z M 123.859 49.543 L 143.677 49.543 L 143.677 69.361 L 123.859 69.361 L 123.859 49.543 z M 125.511 51.195 L 127.074 51.195 L 127.074 67.71 L 125.511 67.71 L 125.511 51.195 z M 128.451 51.195 L 130.077 51.195 L 130.077 67.71 L 128.451 67.71 L 128.451 51.195 z M 131.453 51.195 L 133.079 51.195 L 133.079 67.71 L 131.453 67.71 L 131.453 51.195 z M 134.45600000000002 51.195 L 136.08300000000003 51.195 L 136.08300000000003 67.71 L 134.45600000000002 67.71 L 134.45600000000002 51.195 z M 137.459 51.195 L 139.086 51.195 L 139.086 67.71 L 137.459 67.71 L 137.459 51.195 z M 140.462 51.195 L 142.02599999999998 51.195 L 142.02599999999998 67.71 L 140.462 67.71 L 140.462 51.195 z" stroke-linecap="round" />
</g>
		<g transform="matrix(9.77 0 0 9.77 57.89 -690.13)"  >
<path style="stroke: none; stroke-width: 1; stroke-dasharray: none; stroke-linecap: butt; stroke-dashoffset: 0; stroke-linejoin: miter; stroke-miterlimit: 4; fill: rgb(35,163,194); fill-rule: evenodd; opacity: 1;" vector-effect="non-scaling-stroke"  transform=" translate(-133.77, -36.59)" d="M 123.859 26.677 L 143.677 26.677 L 143.677 46.494 L 123.859 46.494 L 123.859 26.677 z M 125.511 28.329 L 127.074 28.329 L 127.074 44.843 L 125.511 44.843 L 125.511 28.329 z M 128.451 28.329 L 130.077 28.329 L 130.077 44.843 L 128.451 44.843 L 128.451 28.329 z M 131.453 28.329 L 133.079 28.329 L 133.079 44.843 L 131.453 44.843 L 131.453 28.329 z M 134.45600000000002 28.329 L 136.08300000000003 28.329 L 136.08300000000003 44.843 L 134.45600000000002 44.843 L 134.45600000000002 28.329 z M 137.459 28.329 L 139.086 28.329 L 139.086 44.843 L 137.459 44.843 L 137.459 28.329 z M 140.462 28.329 L 142.02599999999998 28.329 L 142.02599999999998 44.843 L 140.462 44.843 L 140.462 28.329 z" stroke-linecap="round" />
</g>
		<g transform="matrix(9.77 0 0 9.77 57.89 -913.43)"  >
<path style="stroke: none; stroke-width: 1; stroke-dasharray: none; stroke-linecap: butt; stroke-dashoffset: 0; stroke-linejoin: miter; stroke-miterlimit: 4; fill: rgb(52,187,222); fill-rule: evenodd; opacity: 1;" vector-effect="non-scaling-stroke"  transform=" translate(-133.77, -13.72)" d="M 123.859 3.81 L 143.677 3.81 L 143.677 23.63 L 123.859 23.63 L 123.859 3.81 z M 125.511 5.461 L 127.074 5.461 L 127.074 21.976999999999997 L 125.511 21.976999999999997 L 125.511 5.46 z M 128.451 5.461 L 130.077 5.461 L 130.077 21.976999999999997 L 128.451 21.976999999999997 L 128.451 5.46 z M 131.453 5.461 L 133.079 5.461 L 133.079 21.976999999999997 L 131.453 21.976999999999997 L 131.453 5.46 z M 134.45600000000002 5.461 L 136.08300000000003 5.461 L 136.08300000000003 21.976999999999997 L 134.45600000000002 21.976999999999997 L 134.45600000000002 5.46 z M 137.459 5.461 L 139.086 5.461 L 139.086 21.976999999999997 L 137.459 21.976999999999997 L 137.459 5.46 z M 140.462 5.461 L 142.02599999999998 5.461 L 142.02599999999998 21.976999999999997 L 140.462 21.976999999999997 L 140.462 5.46 z" stroke-linecap="round" />
</g>
		<g transform="matrix(9.77 0 0 9.77 281.19 -466.83)"  >
<path style="stroke: none; stroke-width: 1; stroke-dasharray: none; stroke-linecap: butt; stroke-dashoffset: 0; stroke-linejoin: miter; stroke-miterlimit: 4; fill: rgb(35,163,194); fill-rule: evenodd; opacity: 1;" vector-effect="non-scaling-stroke"  transform=" translate(-156.63, -59.45)" d="M 146.725 49.543 L 166.543 49.543 L 166.543 69.361 L 146.725 69.361 L 146.725 49.543 z M 148.375 51.195 L 149.94 51.195 L 149.94 67.71 L 148.376 67.71 L 148.376 51.195 z M 151.315 51.195 L 152.942 51.195 L 152.942 67.71 L 151.316 67.71 L 151.316 51.195 z M 154.319 51.195 L 155.946 51.195 L 155.946 67.71 L 154.319 67.71 L 154.319 51.195 z M 157.321 51.195 L 158.948 51.195 L 158.948 67.71 L 157.321 67.71 L 157.321 51.195 z M 160.325 51.195 L 161.951 51.195 L 161.951 67.71 L 160.325 67.71 L 160.325 51.195 z M 163.327 51.195 L 164.891 51.195 L 164.891 67.71 L 163.327 67.71 L 163.327 51.195 z" stroke-linecap="round" />
</g>
		<g transform="matrix(9.77 0 0 9.77 -303.35 -2.89)"  >
<path style="stroke: none; stroke-width: 1; stroke-dasharray: none; stroke-linecap: butt; stroke-dashoffset: 0; stroke-linejoin: miter; stroke-miterlimit: 4; fill: rgb(211,236,236); fill-rule: evenodd; opacity: 1;" vector-effect="non-scaling-stroke"  transform=" translate(-96.78, -106.96)" d="M 96.704 101.492 C 98.67497429423238 101.46570689940211 100.50754905999088 102.50227310127744 101.50049689530198 104.20506069578678 C 102.49344473061308 105.90784829029612 102.49305965123833 108.01326977177648 101.49948900625975 109.71569403414493 C 100.50591836128119 111.41811829651338 98.67296454440564 112.45401407706588 96.702 112.427 C 93.71122288325125 112.38600835266266 91.30839050244812 109.94957140132601 91.30893756380516 106.9585134316532 C 91.30948462516221 103.96745546198038 93.71320808868846 101.53189762465276 96.704 101.492" stroke-linecap="round" />
</g>
		<g transform="matrix(9.77 0 0 9.77 -6.61 -117.36)"  >
<path style="stroke: none; stroke-width: 1; stroke-dasharray: none; stroke-linecap: butt; stroke-dashoffset: 0; stroke-linejoin: miter; stroke-miterlimit: 4; fill: rgb(54,69,72); fill-rule: evenodd; opacity: 1;" vector-effect="non-scaling-stroke"  transform=" translate(-127.16, -95.24)" d="M 96.704 103.043 C 97.204 103.043 97.681 103.137 98.121 103.308 C 97.49679566858852 103.67036527581207 97.19297511180423 104.40616581803629 97.37967407454367 105.10336244581012 C 97.56637303728311 105.80055907358397 98.19724111255883 106.28606380091426 98.919 106.28800000000001 C 99.524 106.28800000000001 100.04899999999999 105.95300000000002 100.321 105.45700000000001 C 100.98221687301859 107.04983670611107 100.52323757723309 108.88774687597841 99.1907993262175 109.98271026930703 C 97.85836107520191 111.07767366263568 95.96634488866772 111.17175095189371 94.53185721605385 110.21436824752827 C 93.09736954344 109.25698554316281 92.45833107495511 107.47367244046379 92.95827489047532 105.8230989925911 C 93.45821870599552 104.17252554471841 94.97937358835986 103.0435155313347 96.70399999999998 103.043 M 0 90.162 L 254.327 90.162 C 248.79 88.75800000000001 236.807 86.86 238.783 79.602 C 228.713 91.254 204.42999999999998 87.777 198.301 82.03200000000001 C 191.47699999999998 91.93 151.74699999999999 88.16700000000002 148.976 80.45600000000002 C 140.42 90.49700000000001 113.90899999999999 90.49700000000001 105.35300000000001 80.45600000000002 C 102.58000000000001 88.16700000000002 62.851000000000006 91.93000000000002 56.02600000000001 82.03100000000002 C 49.89800000000001 87.77700000000002 25.61600000000001 91.25400000000002 15.546000000000014 79.60300000000002 C 17.522 86.86 5.539 88.758 0 90.163" stroke-linecap="round" />
</g>
		<g transform="matrix(9.77 0 0 9.77 -465.84 208.46)"  >
<path style="stroke: none; stroke-width: 1; stroke-dasharray: none; stroke-linecap: butt; stroke-dashoffset: 0; stroke-linejoin: miter; stroke-miterlimit: 4; fill: rgb(189,217,215); fill-rule: evenodd; opacity: 1;" vector-effect="non-scaling-stroke"  transform=" translate(-80.14, -128.6)" d="M 111.237 140.89 C 97.697 134.46499999999997 90.26599999999999 125.72999999999999 86.131 116.19599999999998 C 81.101 117.63099999999999 75.056 118.54899999999998 68.031 118.94299999999998 C 65.385 119.09099999999998 62.601000000000006 119.16699999999999 59.681000000000004 119.16699999999999 C 56.313 119.16699999999999 52.764 119.067 49.038000000000004 118.86999999999999 C 61.455000000000005 131.28 76.73 140.834 105.01400000000001 141.00799999999998 C 107.102 141.00799999999998 109.174 140.968 111.23700000000001 140.89" stroke-linecap="round" />
</g>
		<g transform="matrix(9.77 0 0 9.77 -471.13 130.26)"  >
<path style="stroke: none; stroke-width: 1; stroke-dasharray: none; stroke-linecap: butt; stroke-dashoffset: 0; stroke-linejoin: miter; stroke-miterlimit: 4; fill: rgb(211,236,236); fill-rule: evenodd; opacity: 1;" vector-effect="non-scaling-stroke"  transform=" translate(-79.6, -120.59)" d="M 91.16 124.994 C 89.28699999999999 122.451 87.47 119.255 86.134 116.194 C 81.104 117.631 75.057 118.549 68.031 118.944 C 72.857 121.563 79.75800000000001 123.99000000000001 91.161 124.994" stroke-linecap="round" />
</g>
</g>
</g>
</svg>