<?xml version="1.0" encoding="UTF-8" standalone="no" ?>
<!DOCTYPE svg PUBLIC "-//W3C//DTD SVG 1.1//EN" "http://www.w3.org/Graphics/SVG/1.1/DTD/svg11.dtd">
<svg xmlns="http://www.w3.org/2000/svg" xmlns:xlink="http://www.w3.org/1999/xlink" version="1.1" width="1080" height="1080" viewBox="0 0 1080 1080" xml:space="preserve">
<desc>Created with Fabric.js 5.2.4</desc>
<defs>
</defs>
<rect x="0" y="0" width="100%" height="100%" fill="transparent"></rect>
<g transform="matrix(1 0 0 1 540 540)" id="bdffcd9d-ecaa-41c3-9762-2a9583f0442d"  >
</g>
<g transform="matrix(1 0 0 1 540 540)" id="2073f9a8-83b0-4d12-994c-23d3b447b61e"  >
<rect style="stroke: none; stroke-width: 1; stroke-dasharray: none; stroke-linecap: butt; stroke-dashoffset: 0; stroke-linejoin: miter; stroke-miterlimit: 4; fill: rgb(255,255,255); fill-rule: nonzero; opacity: 1; visibility: hidden;" vector-effect="non-scaling-stroke"  x="-540" y="-540" rx="0" ry="0" width="1080" height="1080" />
</g>
<g transform="matrix(1 0 0 1 540 540)"  >
<rect style="stroke: none; stroke-width: 1; stroke-dasharray: none; stroke-linecap: butt; stroke-dashoffset: 0; stroke-linejoin: miter; stroke-miterlimit: 4; fill: rgb(255,255,255); fill-rule: nonzero; opacity: 1; visibility: hidden;" vector-effect="non-scaling-stroke"  x="-250" y="-250" rx="0" ry="0" width="500" height="500" />
</g>
<g transform="matrix(0.46 0 0 0.46 540 540)"  >
<rect style="stroke: none; stroke-width: 1; stroke-dasharray: none; stroke-linecap: butt; stroke-dashoffset: 0; stroke-linejoin: miter; stroke-miterlimit: 4; fill: rgb(255,255,255); fill-rule: nonzero; opacity: 1; visibility: hidden;" vector-effect="non-scaling-stroke"  x="-540" y="-540" rx="0" ry="0" width="1080" height="1080" />
</g>
<g transform="matrix(10.1 0 0 10.1 546.67 560.83)"  >
<path style="stroke: none; stroke-width: 1; stroke-dasharray: none; stroke-linecap: butt; stroke-dashoffset: 0; stroke-linejoin: miter; stroke-miterlimit: 4; fill: rgb(255,255,255); fill-rule: nonzero; opacity: 1;" vector-effect="non-scaling-stroke"  transform=" translate(-48, -48)" d="M 44 2.30935 C 46.4752 0.880283 49.5248 0.880284 52 2.30935 L 85.5692 21.6905 C 88.0444 23.1196 89.5692 25.7606 89.5692 28.6187 L 89.5692 67.3811 C 89.5692 70.2393 88.0444 72.8803 85.5692 74.3093 L 52 93.6905 C 49.5248 95.1196 46.4752 95.1196 44 93.6905 L 10.4308 74.3093 C 7.95558 72.8803 6.43079 70.2393 6.43079 67.3811 L 6.43079 28.6187 C 6.43079 25.7606 7.95558 23.1196 10.4308 21.6905 L 44 2.30935 Z" stroke-linecap="round" />
</g>
<g transform="matrix(10.1 0 0 10.1 557.72 560.84)"  >
<path style="stroke: none; stroke-width: 1; stroke-dasharray: none; stroke-linecap: butt; stroke-dashoffset: 0; stroke-linejoin: miter; stroke-miterlimit: 4; fill: rgb(198,56,49); fill-rule: evenodd; opacity: 1;" vector-effect="non-scaling-stroke"  transform=" translate(-47.95, -48)" d="M 84.1907 22.9024 L 51.5701 4.06896 C 49.3322 2.77689 46.575 2.77689 44.337 4.06896 L 11.7165 22.9024 C 9.47853 24.1945 8.09991 26.5824 8.09991 29.1665 L 8.09991 66.8335 C 8.09991 69.4176 9.47853 71.8055 11.7165 73.0975 L 44.337 91.931 C 46.575 93.2231 49.3322 93.2231 51.5701 91.931 L 84.1907 73.0975 C 86.4286 71.8055 87.8072 69.4176 87.8072 66.8335 L 87.8072 29.1665 C 87.8072 26.5824 86.4286 24.1945 84.1907 22.9024 Z M 53.1201 1.38436 C 49.923 -0.461454 45.9841 -0.461455 42.7871 1.38436 L 10.1665 20.2178 C 6.96946 22.0637 5 25.4749 5 29.1665 L 5 66.8335 C 5 70.5251 6.96946 73.9363 10.1665 75.7821 L 42.7871 94.6156 C 45.9841 96.4614 49.923 96.4614 53.1201 94.6156 L 85.7406 75.7821 C 88.9377 73.9363 90.9071 70.5251 90.9071 66.8335 L 90.9071 29.1665 C 90.9071 25.4749 88.9377 22.0637 85.7406 20.2178 L 53.1201 1.38436 Z" stroke-linecap="round" />
</g>
<g transform="matrix(10.1 0 0 10.1 582.24 652.9)"  >
<path style="stroke: none; stroke-width: 1; stroke-dasharray: none; stroke-linecap: butt; stroke-dashoffset: 0; stroke-linejoin: miter; stroke-miterlimit: 4; fill: rgb(255,255,255); fill-rule: evenodd; opacity: 1;" vector-effect="non-scaling-stroke"  transform=" translate(-51.56, -57.19)" d="M 53.713 62.196 L 53.713 66.8892 C 54.476 67.2803 55.3783 67.5736 56.4201 67.7692 C 57.4618 67.9647 58.5597 68.0625 59.714 68.0625 C 60.8389 68.0625 61.9074 67.955 62.9198 67.7398 C 63.9322 67.5248 64.82 67.1703 65.5829 66.6765 C 66.3458 66.1828 66.9499 65.5374 67.3949 64.7406 C 67.8399 63.9437 68.0625 62.9587 68.0625 61.7854 C 68.0625 60.9347 67.9354 60.1892 67.681 59.5488 C 67.4267 58.9084 67.0599 58.3388 66.5806 57.8402 C 66.1013 57.3415 65.5267 56.8942 64.8566 56.4982 C 64.1866 56.1022 63.431 55.7282 62.5897 55.3762 C 61.9735 55.122 61.4209 54.8752 60.9318 54.6356 C 60.4427 54.396 60.027 54.1516 59.6846 53.9023 C 59.3422 53.6529 59.0782 53.3889 58.8923 53.1103 C 58.7065 52.8316 58.6135 52.5163 58.6135 52.1643 C 58.6135 51.8417 58.6967 51.5508 58.863 51.2917 C 59.0293 51.0325 59.2641 50.8102 59.5673 50.6243 C 59.8705 50.4386 60.2422 50.2943 60.6823 50.1917 C 61.1226 50.089 61.6116 50.0377 62.1496 50.0377 C 62.5408 50.0377 62.9541 50.0671 63.3893 50.1257 C 63.8246 50.1844 64.2623 50.2748 64.7026 50.397 C 65.1428 50.5192 65.5706 50.6733 65.9864 50.859 C 66.4021 51.0448 66.786 51.2599 67.1381 51.5044 L 67.1381 47.1191 C 66.4241 46.8454 65.644 46.6425 64.7979 46.5105 C 63.9518 46.3785 62.981 46.3125 61.8855 46.3125 C 60.7703 46.3125 59.714 46.4323 58.7163 46.6718 C 57.7186 46.9114 56.8407 47.2853 56.0826 47.7938 C 55.3245 48.3023 54.7254 48.95 54.2853 49.7371 C 53.8451 50.5241 53.625 51.4652 53.625 52.5603 C 53.625 53.9585 54.0285 55.1513 54.8355 56.1389 C 55.6424 57.1264 56.8675 57.9623 58.5109 58.6468 C 59.1564 58.9108 59.758 59.1698 60.3156 59.4241 C 60.8731 59.6783 61.3549 59.9423 61.7607 60.2161 C 62.1667 60.4898 62.487 60.7881 62.7218 61.1107 C 62.9566 61.4333 63.074 61.8 63.074 62.2107 C 63.074 62.5138 63.0006 62.7949 62.8538 63.054 C 62.7071 63.3131 62.4846 63.5379 62.1863 63.7286 C 61.8879 63.9193 61.5162 64.0684 61.0712 64.1759 C 60.6261 64.2835 60.1053 64.3373 59.5086 64.3373 C 58.4913 64.3373 57.4838 64.1588 56.4861 63.8019 C 55.4884 63.4451 54.564 62.9098 53.713 62.196 L 53.713 62.196 Z M 45.8231 50.6327 L 51.8438 50.6327 L 51.8438 46.7812 L 35.0625 46.7812 L 35.0625 50.6327 L 41.0537 50.6327 L 41.0537 67.7812 L 45.8231 67.7812 L 45.8231 50.6327 Z" stroke-linecap="round" />
</g>
<g transform="matrix(0.28 0 0 0.28 558.83 540)"  >
<g style="" vector-effect="non-scaling-stroke"   >
		<g transform="matrix(12.97 0 0 12.97 0 0)"  >
<path style="stroke: none; stroke-width: 1; stroke-dasharray: none; stroke-linecap: butt; stroke-dashoffset: 0; stroke-linejoin: miter; stroke-miterlimit: 4; fill: rgb(255,255,255); fill-opacity: 0; fill-rule: evenodd; opacity: 1;" vector-effect="non-scaling-stroke"  transform=" translate(-96.38, -96.38)" d="M 0 0 L 192.756 0 L 192.756 192.756 L 0 192.756 L 0 0 z" stroke-linecap="round" />
</g>
		<g transform="matrix(12.97 0 0 12.97 -28.36 48.39)"  >
<path style="stroke: none; stroke-width: 1; stroke-dasharray: none; stroke-linecap: butt; stroke-dashoffset: 0; stroke-linejoin: miter; stroke-miterlimit: 4; fill: rgb(49,116,185); fill-rule: evenodd; opacity: 1;" vector-effect="non-scaling-stroke"  transform=" translate(-94.19, -100.11)" d="M 80.372 101.729 C 80.372 101.729 75.768 104.408 83.652 105.313 C 93.206 106.404 98.086 106.247 108.611 104.256 C 108.611 104.256 111.382 105.991 115.25 107.492 C 91.649 117.605 61.837 106.90700000000001 80.372 101.729 z M 77.487 88.532 C 77.487 88.532 72.32199999999999 92.35499999999999 80.213 93.17099999999999 C 90.419 94.225 98.475 94.31099999999999 112.42399999999999 91.627 C 112.42399999999999 91.627 114.35 93.582 117.38099999999999 94.64999999999999 C 88.85 102.99499999999999 57.073999999999984 95.30699999999999 77.487 88.532 z" stroke-linecap="round" />
</g>
		<g transform="matrix(12.97 0 0 12.97 175.52 -523.75)"  >
<path style="stroke: none; stroke-width: 1; stroke-dasharray: none; stroke-linecap: butt; stroke-dashoffset: 0; stroke-linejoin: miter; stroke-miterlimit: 4; fill: rgb(202,49,50); fill-rule: evenodd; opacity: 1;" vector-effect="non-scaling-stroke"  transform=" translate(-109.91, -56)" d="M 101.797 66.143 C 107.615 72.84 100.27199999999999 78.863 100.27199999999999 78.863 C 100.27199999999999 78.863 115.038 71.242 108.25599999999999 61.695 C 101.92399999999999 52.796 97.06699999999998 48.375 123.35799999999999 33.129000000000005 C 123.35699999999999 33.12800000000001 82.088 43.432 101.797 66.143 z" stroke-linecap="round" />
</g>
		<g transform="matrix(12.97 0 0 12.97 -2.73 27.43)"  >
<path style="stroke: none; stroke-width: 1; stroke-dasharray: none; stroke-linecap: butt; stroke-dashoffset: 0; stroke-linejoin: miter; stroke-miterlimit: 4; fill: rgb(49,116,185); fill-rule: evenodd; opacity: 1;" vector-effect="non-scaling-stroke"  transform=" translate(-96.17, -98.49)" d="M 133.01 111.491 C 133.01 111.491 136.41799999999998 114.301 129.256 116.474 C 115.637 120.599 72.562 121.843 60.596999999999994 116.638 C 56.29899999999999 114.766 64.363 112.171 66.89999999999999 111.623 C 69.54599999999999 111.051 71.056 111.155 71.056 111.155 C 66.273 107.787 40.14 117.77 57.784 120.634 C 105.896 128.435 145.488 117.122 133.01 111.491 z M 82.587 74.857 C 82.587 74.857 60.679 80.062 74.83 81.954 C 80.807 82.753 92.713 82.56899999999999 103.812 81.63799999999999 C 112.88 80.877 121.982 79.249 121.982 79.249 C 121.982 79.249 118.787 80.61999999999999 116.472 82.198 C 94.22099999999999 88.05099999999999 51.242999999999995 85.32499999999999 63.617 79.342 C 74.079 74.281 82.58699999999999 74.857 82.58699999999999 74.857 z M 121.891 96.824 C 144.508 85.074 134.05100000000002 73.78 126.75 75.30199999999999 C 124.965 75.675 124.164 75.99699999999999 124.164 75.99699999999999 C 124.164 75.99699999999999 124.83 74.95499999999998 126.096 74.50699999999999 C 140.537 69.43199999999999 151.64100000000002 89.47899999999998 121.44 97.41799999999999 C 121.439 97.41799999999999 121.78699999999999 97.104 121.89099999999999 96.824 z" stroke-linecap="round" />
</g>
		<g transform="matrix(12.97 0 0 12.97 -5.82 -710.83)"  >
<path style="stroke: none; stroke-width: 1; stroke-dasharray: none; stroke-linecap: butt; stroke-dashoffset: 0; stroke-linejoin: miter; stroke-miterlimit: 4; fill: rgb(202,49,50); fill-rule: evenodd; opacity: 1;" vector-effect="non-scaling-stroke"  transform=" translate(-95.93, -41.57)" d="M 108.256 8.504 C 108.256 8.504 120.779 21.035 96.375 40.298 C 76.804 55.756 91.913 64.56700000000001 96.369 74.638 C 84.943 64.331 76.562 55.256 82.184 46.812000000000005 C 90.438 34.417 113.309 28.406000000000006 108.256 8.504000000000005 z" stroke-linecap="round" />
</g>
		<g transform="matrix(12.97 0 0 12.97 101.56 349.71)"  >
<path style="stroke: none; stroke-width: 1; stroke-dasharray: none; stroke-linecap: butt; stroke-dashoffset: 0; stroke-linejoin: miter; stroke-miterlimit: 4; fill: rgb(49,116,185); fill-rule: evenodd; opacity: 1;" vector-effect="non-scaling-stroke"  transform=" translate(-104.21, -123.34)" d="M 84.812 128.674 C 106.518 130.062 139.857 127.903 140.648 117.63000000000001 C 140.648 117.63000000000001 139.13 121.52400000000002 122.707 124.61300000000001 C 104.178 128.10100000000003 81.321 127.69500000000001 67.76899999999999 125.45800000000001 C 67.76899999999999 125.45800000000001 70.54599999999999 127.75600000000001 84.81199999999998 128.674 z" stroke-linecap="round" />
</g>
		<g transform="matrix(12.97 0 0 12.97 0 832.48)"  >
<path style="stroke: none; stroke-width: 1; stroke-dasharray: none; stroke-linecap: butt; stroke-dashoffset: 0; stroke-linejoin: miter; stroke-miterlimit: 4; fill: rgb(202,49,50); fill-rule: evenodd; opacity: 1;" vector-effect="non-scaling-stroke"  transform=" translate(-96.38, -160.56)" d="M 139.645 147.096 L 138.985 147.096 L 138.985 146.726 L 140.76600000000002 146.726 L 140.76600000000002 147.096 L 140.10600000000002 147.096 L 140.10600000000002 148.94400000000002 L 139.645 148.94400000000002 L 139.645 147.096 z M 143.199 147.18800000000002 L 143.191 147.18800000000002 L 142.535 148.943 L 142.234 148.943 L 141.58200000000002 147.18800000000002 L 141.574 147.18800000000002 L 141.574 148.943 L 141.13600000000002 148.943 L 141.13600000000002 146.72500000000002 L 141.77900000000002 146.72500000000002 L 142.38300000000004 148.294 L 142.98700000000005 146.72500000000002 L 143.62400000000005 146.72500000000002 L 143.62400000000005 148.943 L 143.20000000000005 148.943 L 143.20000000000005 147.18800000000002 L 143.19900000000004 147.18800000000002 z M 81.255 167.921 C 79.208 169.695 77.044 170.69299999999998 75.101 170.69299999999998 C 72.333 170.69299999999998 70.831 169.02999999999997 70.831 166.36899999999997 C 70.831 163.48799999999997 72.43900000000001 161.37999999999997 78.875 161.37999999999997 L 81.254 161.37999999999997 L 81.254 167.92099999999996 L 81.25500000000001 167.92099999999996 z M 86.905 174.295 L 86.905 154.563 C 86.905 149.51999999999998 84.029 146.19199999999998 77.096 146.19199999999998 C 73.051 146.19199999999998 69.50500000000001 147.19099999999997 66.622 148.46399999999997 L 67.452 151.95899999999997 C 69.723 151.12499999999997 72.65899999999999 150.35199999999998 75.541 150.35199999999998 C 79.535 150.35199999999998 81.25399999999999 151.95899999999997 81.25399999999999 155.28599999999997 L 81.25399999999999 157.78099999999998 L 79.258 157.78099999999998 C 69.556 157.78099999999998 65.178 161.545 65.178 167.20399999999998 C 65.178 172.07999999999998 68.063 174.85199999999998 73.494 174.85199999999998 C 76.985 174.85199999999998 79.593 173.41099999999997 82.028 171.30199999999996 L 82.471 174.29499999999996 L 86.905 174.29499999999996 z M 105.762 174.295 L 98.717 174.295 L 90.234 146.694 L 96.38799999999999 146.694 L 101.65299999999999 163.65499999999997 L 102.82499999999999 168.75099999999998 C 105.481 161.37999999999997 107.36599999999999 153.897 108.30899999999998 146.694 L 114.29299999999998 146.694 C 112.69099999999997 155.78199999999998 109.80499999999998 165.76 105.76199999999997 174.295 z M 132.799 167.921 C 130.746 169.695 128.582 170.69299999999998 126.643 170.69299999999998 C 123.875 170.69299999999998 122.375 169.02999999999997 122.375 166.36899999999997 C 122.375 163.48799999999997 123.984 161.37999999999997 130.416 161.37999999999997 L 132.799 161.37999999999997 L 132.799 167.92099999999996 z M 138.451 174.295 L 138.451 154.563 C 138.451 149.51999999999998 135.566 146.19199999999998 128.64 146.19199999999998 C 124.59099999999998 146.19199999999998 121.04599999999999 147.19099999999997 118.16299999999998 148.46399999999997 L 118.99299999999998 151.95899999999997 C 121.26399999999998 151.12499999999997 124.20599999999997 150.35199999999998 127.08899999999998 150.35199999999998 C 131.077 150.35199999999998 132.79799999999997 151.95899999999997 132.79799999999997 155.28599999999997 L 132.79799999999997 157.78099999999998 L 130.80199999999996 157.78099999999998 C 121.09899999999996 157.78099999999998 116.72399999999996 161.545 116.72399999999996 167.20399999999998 C 116.72399999999996 172.07999999999998 119.60299999999997 174.85199999999998 125.03499999999997 174.85199999999998 C 128.52899999999997 174.85199999999998 131.13299999999998 173.41099999999997 133.57399999999996 171.30199999999996 L 134.01899999999995 174.29499999999996 L 138.45099999999994 174.29499999999996 z M 58.983 178.985 C 57.373 181.33800000000002 54.769 183.20100000000002 51.922 184.252 L 49.132 180.966 C 51.300999999999995 179.853 53.159 178.056 54.024 176.38400000000001 C 54.769 174.894 55.08 172.978 55.08 168.39200000000002 L 55.08 136.877 L 61.085 136.877 L 61.085 167.957 C 61.085 174.091 60.595 176.57 58.983000000000004 178.98499999999999 z" stroke-linecap="round" />
</g>
</g>
</g>
</svg>