<?xml version="1.0" encoding="UTF-8" standalone="no" ?>
<!DOCTYPE svg PUBLIC "-//W3C//DTD SVG 1.1//EN" "http://www.w3.org/Graphics/SVG/1.1/DTD/svg11.dtd">
<svg xmlns="http://www.w3.org/2000/svg" xmlns:xlink="http://www.w3.org/1999/xlink" version="1.1" width="1080" height="1080" viewBox="0 0 1080 1080" xml:space="preserve">
<desc>Created with Fabric.js 5.2.4</desc>
<defs>
</defs>
<rect x="0" y="0" width="100%" height="100%" fill="transparent"></rect>
<g transform="matrix(1 0 0 1 540 540)" id="bdffcd9d-ecaa-41c3-9762-2a9583f0442d"  >
</g>
<g transform="matrix(1 0 0 1 540 540)" id="2073f9a8-83b0-4d12-994c-23d3b447b61e"  >
<rect style="stroke: none; stroke-width: 1; stroke-dasharray: none; stroke-linecap: butt; stroke-dashoffset: 0; stroke-linejoin: miter; stroke-miterlimit: 4; fill: rgb(255,255,255); fill-rule: nonzero; opacity: 1; visibility: hidden;" vector-effect="non-scaling-stroke"  x="-540" y="-540" rx="0" ry="0" width="1080" height="1080" />
</g>
<g transform="matrix(1 0 0 1 540 540)"  >
<rect style="stroke: none; stroke-width: 1; stroke-dasharray: none; stroke-linecap: butt; stroke-dashoffset: 0; stroke-linejoin: miter; stroke-miterlimit: 4; fill: rgb(255,255,255); fill-rule: nonzero; opacity: 1; visibility: hidden;" vector-effect="non-scaling-stroke"  x="-250" y="-250" rx="0" ry="0" width="500" height="500" />
</g>
<g transform="matrix(0.46 0 0 0.46 540 540)"  >
<rect style="stroke: none; stroke-width: 1; stroke-dasharray: none; stroke-linecap: butt; stroke-dashoffset: 0; stroke-linejoin: miter; stroke-miterlimit: 4; fill: rgb(255,255,255); fill-rule: nonzero; opacity: 1; visibility: hidden;" vector-effect="non-scaling-stroke"  x="-540" y="-540" rx="0" ry="0" width="1080" height="1080" />
</g>
<g transform="matrix(10.1 0 0 10.1 546.7 560.87)"  >
<path style="stroke: none; stroke-width: 1; stroke-dasharray: none; stroke-linecap: butt; stroke-dashoffset: 0; stroke-linejoin: miter; stroke-miterlimit: 4; fill: rgb(255,255,255); fill-rule: nonzero; opacity: 1;" vector-effect="non-scaling-stroke"  transform=" translate(-48, -48)" d="M 44 2.30935 C 46.4752 0.880283 49.5248 0.880284 52 2.30935 L 85.5692 21.6905 C 88.0444 23.1196 89.5692 25.7606 89.5692 28.6187 L 89.5692 67.3811 C 89.5692 70.2393 88.0444 72.8803 85.5692 74.3093 L 52 93.6905 C 49.5248 95.1196 46.4752 95.1196 44 93.6905 L 10.4308 74.3093 C 7.95558 72.8803 6.43079 70.2393 6.43079 67.3811 L 6.43079 28.6187 C 6.43079 25.7606 7.95558 23.1196 10.4308 21.6905 L 44 2.30935 Z" stroke-linecap="round" />
</g>
<g transform="matrix(10.1 0 0 10.1 557.75 560.88)"  >
<path style="stroke: none; stroke-width: 1; stroke-dasharray: none; stroke-linecap: butt; stroke-dashoffset: 0; stroke-linejoin: miter; stroke-miterlimit: 4; fill: rgb(236,229,47); fill-rule: evenodd; opacity: 1;" vector-effect="non-scaling-stroke"  transform=" translate(-47.95, -48)" d="M 84.1907 22.9024 L 51.5701 4.06896 C 49.3322 2.77689 46.575 2.77689 44.337 4.06896 L 11.7165 22.9024 C 9.47853 24.1945 8.09991 26.5824 8.09991 29.1665 L 8.09991 66.8335 C 8.09991 69.4176 9.47853 71.8055 11.7165 73.0975 L 44.337 91.931 C 46.575 93.2231 49.3322 93.2231 51.5701 91.931 L 84.1907 73.0975 C 86.4286 71.8055 87.8072 69.4176 87.8072 66.8335 L 87.8072 29.1665 C 87.8072 26.5824 86.4286 24.1945 84.1907 22.9024 Z M 53.1201 1.38436 C 49.923 -0.461454 45.9841 -0.461455 42.7871 1.38436 L 10.1665 20.2178 C 6.96946 22.0637 5 25.4749 5 29.1665 L 5 66.8335 C 5 70.5251 6.96946 73.9363 10.1665 75.7821 L 42.7871 94.6156 C 45.9841 96.4614 49.923 96.4614 53.1201 94.6156 L 85.7406 75.7821 C 88.9377 73.9363 90.9071 70.5251 90.9071 66.8335 L 90.9071 29.1665 C 90.9071 25.4749 88.9377 22.0637 85.7406 20.2178 L 53.1201 1.38436 Z" stroke-linecap="round" />
</g>
<g transform="matrix(10.1 0 0 10.1 582.26 652.91)"  >
<path style="stroke: none; stroke-width: 1; stroke-dasharray: none; stroke-linecap: butt; stroke-dashoffset: 0; stroke-linejoin: miter; stroke-miterlimit: 4; fill: rgb(255,255,255); fill-rule: evenodd; opacity: 1;" vector-effect="non-scaling-stroke"  transform=" translate(-51.56, -57.19)" d="M 53.713 62.196 L 53.713 66.8892 C 54.476 67.2803 55.3783 67.5736 56.4201 67.7692 C 57.4618 67.9647 58.5597 68.0625 59.714 68.0625 C 60.8389 68.0625 61.9074 67.955 62.9198 67.7398 C 63.9322 67.5248 64.82 67.1703 65.5829 66.6765 C 66.3458 66.1828 66.9499 65.5374 67.3949 64.7406 C 67.8399 63.9437 68.0625 62.9587 68.0625 61.7854 C 68.0625 60.9347 67.9354 60.1892 67.681 59.5488 C 67.4267 58.9084 67.0599 58.3388 66.5806 57.8402 C 66.1013 57.3415 65.5267 56.8942 64.8566 56.4982 C 64.1866 56.1022 63.431 55.7282 62.5897 55.3762 C 61.9735 55.122 61.4209 54.8752 60.9318 54.6356 C 60.4427 54.396 60.027 54.1516 59.6846 53.9023 C 59.3422 53.6529 59.0782 53.3889 58.8923 53.1103 C 58.7065 52.8316 58.6135 52.5163 58.6135 52.1643 C 58.6135 51.8417 58.6967 51.5508 58.863 51.2917 C 59.0293 51.0325 59.2641 50.8102 59.5673 50.6243 C 59.8705 50.4386 60.2422 50.2943 60.6823 50.1917 C 61.1226 50.089 61.6116 50.0377 62.1496 50.0377 C 62.5408 50.0377 62.9541 50.0671 63.3893 50.1257 C 63.8246 50.1844 64.2623 50.2748 64.7026 50.397 C 65.1428 50.5192 65.5706 50.6733 65.9864 50.859 C 66.4021 51.0448 66.786 51.2599 67.1381 51.5044 L 67.1381 47.1191 C 66.4241 46.8454 65.644 46.6425 64.7979 46.5105 C 63.9518 46.3785 62.981 46.3125 61.8855 46.3125 C 60.7703 46.3125 59.714 46.4323 58.7163 46.6718 C 57.7186 46.9114 56.8407 47.2853 56.0826 47.7938 C 55.3245 48.3023 54.7254 48.95 54.2853 49.7371 C 53.8451 50.5241 53.625 51.4652 53.625 52.5603 C 53.625 53.9585 54.0285 55.1513 54.8355 56.1389 C 55.6424 57.1264 56.8675 57.9623 58.5109 58.6468 C 59.1564 58.9108 59.758 59.1698 60.3156 59.4241 C 60.8731 59.6783 61.3549 59.9423 61.7607 60.2161 C 62.1667 60.4898 62.487 60.7881 62.7218 61.1107 C 62.9566 61.4333 63.074 61.8 63.074 62.2107 C 63.074 62.5138 63.0006 62.7949 62.8538 63.054 C 62.7071 63.3131 62.4846 63.5379 62.1863 63.7286 C 61.8879 63.9193 61.5162 64.0684 61.0712 64.1759 C 60.6261 64.2835 60.1053 64.3373 59.5086 64.3373 C 58.4913 64.3373 57.4838 64.1588 56.4861 63.8019 C 55.4884 63.4451 54.564 62.9098 53.713 62.196 L 53.713 62.196 Z M 45.8231 50.6327 L 51.8438 50.6327 L 51.8438 46.7812 L 35.0625 46.7812 L 35.0625 50.6327 L 41.0537 50.6327 L 41.0537 67.7812 L 45.8231 67.7812 L 45.8231 50.6327 Z" stroke-linecap="round" />
</g>
<g transform="matrix(20.96 0 0 20.96 559.89 557.02)"  >
<g style="" vector-effect="non-scaling-stroke"   >
		<g transform="matrix(1 0 0 1 0 0)"  >
<path style="stroke: none; stroke-width: 1; stroke-dasharray: none; stroke-linecap: butt; stroke-dashoffset: 0; stroke-linejoin: miter; stroke-miterlimit: 4; fill: rgb(255,229,119); fill-rule: nonzero; opacity: 1;" vector-effect="non-scaling-stroke"  transform=" translate(-13.74, -13.71)" d="M 24.387 2.917 C 27.247 5.997 27.509 21.653 22.080000000000002 24.607999999999997 C 16.651000000000003 27.562999999999995 1.313 27.689 1.177 18.95 C 1.0410000000000001 10.210999999999999 0.159 2.666 8.303 1.974 C 16.447000000000003 1.282 21.469 -0.227 24.387 2.917 z" stroke-linecap="round" />
</g>
		<g transform="matrix(1 0 0 1 0.26 0.29)"  >
<path style="stroke: none; stroke-width: 1; stroke-dasharray: none; stroke-linecap: butt; stroke-dashoffset: 0; stroke-linejoin: miter; stroke-miterlimit: 4; fill: rgb(0,0,0); fill-rule: nonzero; opacity: 1;" vector-effect="non-scaling-stroke"  transform=" translate(-14, -14)" d="M 25.5 26 L 2.5 26 C 2.224 26 2 25.776 2 25.5 L 2 2.5 C 2 2.224 2.224 2 2.5 2 L 25.5 2 C 25.776 2 26 2.224 26 2.5 L 26 25.5 C 26 25.776 25.776 26 25.5 26 z M 3 25 L 25 25 L 25 3 L 3 3 L 3 25 z M 11.787 24.228 C 10.964 24.228 10.202000000000002 24.031000000000002 9.558 23.646 C 8.953 23.282 8.447 22.707 8.096 21.981 C 7.984 21.75 8.065 21.472 8.284 21.337000000000003 L 10.033000000000001 20.259000000000004 C 10.112000000000002 20.211000000000006 10.202000000000002 20.185000000000002 10.295000000000002 20.185000000000002 C 10.595000000000002 20.185000000000002 10.727000000000002 20.412000000000003 10.806000000000001 20.548000000000002 C 11.043000000000001 20.945 11.175 21.114 11.430000000000001 21.242 C 11.435000000000002 21.23 11.570000000000002 21.275000000000002 11.738000000000001 21.275000000000002 C 11.931000000000001 21.275000000000002 12.161000000000001 21.227000000000004 12.262 21.016000000000002 C 12.365 20.798000000000002 12.356 19.951 12.35 19.332 L 12.344999999999999 18.634 L 12.354 13.071000000000002 C 12.354 12.795000000000002 12.578 12.571000000000002 12.854 12.571000000000002 L 15.008 12.571000000000002 C 15.146999999999998 12.571000000000002 15.279 12.629000000000001 15.373999999999999 12.731000000000002 C 15.469 12.833000000000002 15.517 12.969000000000001 15.505999999999998 13.107000000000001 L 15.505999999999998 15.107000000000001 C 15.508999999999999 16.424 15.511 17.737000000000002 15.503999999999998 19.049 L 15.509999999999998 19.564999999999998 C 15.526999999999997 20.619999999999997 15.542999999999997 21.616 15.061999999999998 22.493 C 14.695999999999998 23.24 13.969999999999997 23.813 13.025999999999998 24.084999999999997 C 12.603 24.181 12.188 24.228 11.787 24.228 z M 9.216 21.938 C 9.453 22.302 9.744 22.592 10.071 22.788999999999998 C 10.796 23.220999999999997 11.782 23.342 12.777999999999999 23.118 C 13.222 22.988999999999997 13.852999999999998 22.688 14.174 22.034 C 14.538 21.368 14.524999999999999 20.541 14.509 19.582 L 14.503 19.049 C 14.511 17.735 14.508000000000001 16.424 14.505 15.11 L 14.503 13.572 L 13.351 13.572 L 13.343000000000002 18.634999999999998 L 13.348000000000003 19.322999999999997 C 13.360000000000003 20.49 13.356000000000002 21.115 13.143000000000002 21.483999999999998 C 12.764000000000003 22.278 11.820000000000002 22.407999999999998 11.060000000000002 22.171 C 10.591000000000003 21.944 10.336000000000002 21.666999999999998 10.136000000000003 21.371 L 9.216 21.938 z M 10.294 20.738 L 9.906 20.992 L 10.294 20.738 z M 10.317 20.723 L 10.324 20.718 L 10.317 20.723 z M 20.054 24.127 C 18.708 24.127 17.366 23.659 16.561 22.846 L 16.349 22.605 C 16.095 22.319 15.875 22.072 15.682 21.631 C 15.579 21.397 15.67 21.124 15.891 20.997 L 17.645 19.99 C 17.876 19.858999999999998 18.166 19.927999999999997 18.312 20.148 C 18.759 20.825 19.092000000000002 21.084 19.685000000000002 21.215 C 20.19 21.275 20.681 21.178 20.883000000000003 20.959 C 20.921000000000003 20.916999999999998 21.036 20.793 20.974000000000004 20.469 C 20.882000000000005 20.176000000000002 20.229000000000003 19.901 19.599000000000004 19.636000000000003 C 18.987000000000005 19.379 18.294000000000004 19.087000000000003 17.696000000000005 18.640000000000004 C 16.956000000000007 18.142000000000003 16.446000000000005 17.273000000000003 16.319000000000006 16.271000000000004 C 16.193000000000005 15.276000000000005 16.468000000000007 14.312000000000005 17.076000000000008 13.624000000000004 C 17.492000000000008 13.110000000000005 18.18700000000001 12.697000000000005 18.971000000000007 12.506000000000004 L 19.70200000000001 12.411000000000003 C 21.131000000000007 12.375000000000004 22.120000000000008 12.743000000000004 22.85300000000001 13.565000000000003 C 23.053000000000008 13.759000000000004 23.21100000000001 13.984000000000004 23.463000000000008 14.376000000000003 C 23.535000000000007 14.488000000000003 23.559000000000008 14.626000000000003 23.53000000000001 14.756000000000004 C 23.50100000000001 14.886000000000005 23.42000000000001 15.000000000000004 23.306000000000008 15.070000000000004 C 22.619000000000007 15.498000000000005 22.619000000000007 15.498000000000005 21.63300000000001 16.142000000000003 C 21.51100000000001 16.221000000000004 21.36200000000001 16.244000000000003 21.22300000000001 16.204000000000004 C 21.08400000000001 16.164000000000005 20.96800000000001 16.067000000000004 20.90700000000001 15.936000000000003 C 20.76400000000001 15.632000000000003 20.54000000000001 15.419000000000004 20.27700000000001 15.338000000000003 C 20.057000000000013 15.272000000000002 19.79400000000001 15.292000000000003 19.627000000000013 15.388000000000003 C 19.506000000000014 15.458000000000004 19.473000000000013 15.546000000000003 19.459000000000014 15.606000000000003 C 19.437000000000015 15.685000000000004 19.418000000000013 15.745000000000003 19.499000000000013 16.035000000000004 C 19.58200000000001 16.213000000000005 20.055000000000014 16.416000000000004 20.511000000000013 16.613000000000003 C 20.658000000000012 16.676000000000002 20.806000000000015 16.740000000000002 20.951000000000015 16.808000000000003 C 22.910000000000014 17.602000000000004 23.892000000000014 18.570000000000004 24.110000000000014 19.935000000000002 C 24.121000000000013 20.000000000000004 24.118000000000013 20.065 24.104000000000013 20.126 C 24.190000000000012 20.867 24.067000000000014 21.407 23.979000000000013 21.678 C 23.648000000000014 22.810000000000002 22.726000000000013 23.624000000000002 21.385000000000012 23.964000000000002 C 20.954 24.075 20.503 24.127 20.054 24.127 z M 16.821 21.616 C 16.898000000000003 21.719 16.987000000000002 21.818 17.095000000000002 21.941 L 17.295 22.169 C 18.098000000000003 22.979 19.76 23.347 21.138 22.997 C 21.708000000000002 22.853 22.71 22.451999999999998 23.020000000000003 21.392 C 23.082000000000004 21.2 23.199 20.724999999999998 23.078000000000003 20.038 C 23.069000000000003 19.983 23.068 19.929 23.077 19.876 C 22.912000000000003 19.224 22.406000000000002 18.479000000000003 20.55 17.726000000000003 C 20.39 17.652 20.251 17.592000000000002 20.114 17.533 C 19.48 17.26 18.823 16.977 18.558 16.37 C 18.437 15.952000000000002 18.396 15.670000000000002 18.493 15.350000000000001 C 18.570999999999998 15.014000000000001 18.791999999999998 14.717000000000002 19.125 14.524000000000001 C 19.533 14.286000000000001 20.071 14.232000000000001 20.567 14.382000000000001 C 20.936 14.496000000000002 21.258 14.719000000000001 21.509 15.028000000000002 C 21.911 14.766000000000002 22.085 14.653000000000002 22.336 14.496000000000002 C 22.261 14.395000000000001 22.197999999999997 14.324000000000002 22.128 14.255000000000003 C 21.567 13.629000000000003 20.875 13.379000000000003 19.774 13.408000000000003 L 19.150000000000002 13.489000000000003 C 18.639000000000003 13.617000000000003 18.128000000000004 13.913000000000002 17.837000000000003 14.271000000000003 C 17.406000000000002 14.759000000000002 17.219000000000005 15.437000000000003 17.309000000000005 16.146 C 17.399000000000004 16.852 17.760000000000005 17.48 18.273000000000003 17.827 C 18.793000000000003 18.214000000000002 19.399000000000004 18.470000000000002 19.985000000000003 18.716 C 20.886000000000003 19.095000000000002 21.738000000000003 19.454 21.943 20.226000000000003 C 21.945 20.235000000000003 21.947000000000003 20.244000000000003 21.949 20.253000000000004 C 22.091 20.947000000000003 21.846 21.390000000000004 21.616000000000003 21.639000000000003 C 21.183000000000003 22.107000000000003 20.416000000000004 22.312000000000005 19.514000000000003 22.201000000000004 C 18.676000000000002 22.017000000000003 18.172000000000004 21.625000000000004 17.749000000000002 21.084000000000003 L 16.821 21.616 z" stroke-linecap="round" />
</g>
</g>
</g>
</svg>