<?xml version="1.0" encoding="UTF-8" standalone="no" ?>
<!DOCTYPE svg PUBLIC "-//W3C//DTD SVG 1.1//EN" "http://www.w3.org/Graphics/SVG/1.1/DTD/svg11.dtd">
<svg xmlns="http://www.w3.org/2000/svg" xmlns:xlink="http://www.w3.org/1999/xlink" version="1.1" width="1080" height="1080" viewBox="0 0 1080 1080" xml:space="preserve">
<desc>Created with Fabric.js 5.2.4</desc>
<defs>
</defs>
<rect x="0" y="0" width="100%" height="100%" fill="transparent"></rect>
<g transform="matrix(1 0 0 1 540 540)" id="bdffcd9d-ecaa-41c3-9762-2a9583f0442d"  >
</g>
<g transform="matrix(1 0 0 1 540 540)" id="2073f9a8-83b0-4d12-994c-23d3b447b61e"  >
<rect style="stroke: none; stroke-width: 1; stroke-dasharray: none; stroke-linecap: butt; stroke-dashoffset: 0; stroke-linejoin: miter; stroke-miterlimit: 4; fill: rgb(255,255,255); fill-rule: nonzero; opacity: 1; visibility: hidden;" vector-effect="non-scaling-stroke"  x="-540" y="-540" rx="0" ry="0" width="1080" height="1080" />
</g>
<g transform="matrix(1 0 0 1 540 540)"  >
<rect style="stroke: none; stroke-width: 1; stroke-dasharray: none; stroke-linecap: butt; stroke-dashoffset: 0; stroke-linejoin: miter; stroke-miterlimit: 4; fill: rgb(255,255,255); fill-rule: nonzero; opacity: 1; visibility: hidden;" vector-effect="non-scaling-stroke"  x="-250" y="-250" rx="0" ry="0" width="500" height="500" />
</g>
<g transform="matrix(0.46 0 0 0.46 540 540)"  >
<rect style="stroke: none; stroke-width: 1; stroke-dasharray: none; stroke-linecap: butt; stroke-dashoffset: 0; stroke-linejoin: miter; stroke-miterlimit: 4; fill: rgb(255,255,255); fill-rule: nonzero; opacity: 1; visibility: hidden;" vector-effect="non-scaling-stroke"  x="-540" y="-540" rx="0" ry="0" width="1080" height="1080" />
</g>
<g transform="matrix(10.1 0 0 10.1 546.7 560.87)"  >
<path style="stroke: none; stroke-width: 1; stroke-dasharray: none; stroke-linecap: butt; stroke-dashoffset: 0; stroke-linejoin: miter; stroke-miterlimit: 4; fill: rgb(255,255,255); fill-rule: nonzero; opacity: 1;" vector-effect="non-scaling-stroke"  transform=" translate(-48, -48)" d="M 44 2.30935 C 46.4752 0.880283 49.5248 0.880284 52 2.30935 L 85.5692 21.6905 C 88.0444 23.1196 89.5692 25.7606 89.5692 28.6187 L 89.5692 67.3811 C 89.5692 70.2393 88.0444 72.8803 85.5692 74.3093 L 52 93.6905 C 49.5248 95.1196 46.4752 95.1196 44 93.6905 L 10.4308 74.3093 C 7.95558 72.8803 6.43079 70.2393 6.43079 67.3811 L 6.43079 28.6187 C 6.43079 25.7606 7.95558 23.1196 10.4308 21.6905 L 44 2.30935 Z" stroke-linecap="round" />
</g>
<g transform="matrix(10.1 0 0 10.1 557.75 560.88)"  >
<path style="stroke: none; stroke-width: 1; stroke-dasharray: none; stroke-linecap: butt; stroke-dashoffset: 0; stroke-linejoin: miter; stroke-miterlimit: 4; fill: rgb(165,176,188); fill-rule: evenodd; opacity: 1;" vector-effect="non-scaling-stroke"  transform=" translate(-47.95, -48)" d="M 84.1907 22.9024 L 51.5701 4.06896 C 49.3322 2.77689 46.575 2.77689 44.337 4.06896 L 11.7165 22.9024 C 9.47853 24.1945 8.09991 26.5824 8.09991 29.1665 L 8.09991 66.8335 C 8.09991 69.4176 9.47853 71.8055 11.7165 73.0975 L 44.337 91.931 C 46.575 93.2231 49.3322 93.2231 51.5701 91.931 L 84.1907 73.0975 C 86.4286 71.8055 87.8072 69.4176 87.8072 66.8335 L 87.8072 29.1665 C 87.8072 26.5824 86.4286 24.1945 84.1907 22.9024 Z M 53.1201 1.38436 C 49.923 -0.461454 45.9841 -0.461455 42.7871 1.38436 L 10.1665 20.2178 C 6.96946 22.0637 5 25.4749 5 29.1665 L 5 66.8335 C 5 70.5251 6.96946 73.9363 10.1665 75.7821 L 42.7871 94.6156 C 45.9841 96.4614 49.923 96.4614 53.1201 94.6156 L 85.7406 75.7821 C 88.9377 73.9363 90.9071 70.5251 90.9071 66.8335 L 90.9071 29.1665 C 90.9071 25.4749 88.9377 22.0637 85.7406 20.2178 L 53.1201 1.38436 Z" stroke-linecap="round" />
</g>
<g transform="matrix(10.1 0 0 10.1 582.26 652.91)"  >
<path style="stroke: none; stroke-width: 1; stroke-dasharray: none; stroke-linecap: butt; stroke-dashoffset: 0; stroke-linejoin: miter; stroke-miterlimit: 4; fill: rgb(255,255,255); fill-rule: evenodd; opacity: 1;" vector-effect="non-scaling-stroke"  transform=" translate(-51.56, -57.19)" d="M 53.713 62.196 L 53.713 66.8892 C 54.476 67.2803 55.3783 67.5736 56.4201 67.7692 C 57.4618 67.9647 58.5597 68.0625 59.714 68.0625 C 60.8389 68.0625 61.9074 67.955 62.9198 67.7398 C 63.9322 67.5248 64.82 67.1703 65.5829 66.6765 C 66.3458 66.1828 66.9499 65.5374 67.3949 64.7406 C 67.8399 63.9437 68.0625 62.9587 68.0625 61.7854 C 68.0625 60.9347 67.9354 60.1892 67.681 59.5488 C 67.4267 58.9084 67.0599 58.3388 66.5806 57.8402 C 66.1013 57.3415 65.5267 56.8942 64.8566 56.4982 C 64.1866 56.1022 63.431 55.7282 62.5897 55.3762 C 61.9735 55.122 61.4209 54.8752 60.9318 54.6356 C 60.4427 54.396 60.027 54.1516 59.6846 53.9023 C 59.3422 53.6529 59.0782 53.3889 58.8923 53.1103 C 58.7065 52.8316 58.6135 52.5163 58.6135 52.1643 C 58.6135 51.8417 58.6967 51.5508 58.863 51.2917 C 59.0293 51.0325 59.2641 50.8102 59.5673 50.6243 C 59.8705 50.4386 60.2422 50.2943 60.6823 50.1917 C 61.1226 50.089 61.6116 50.0377 62.1496 50.0377 C 62.5408 50.0377 62.9541 50.0671 63.3893 50.1257 C 63.8246 50.1844 64.2623 50.2748 64.7026 50.397 C 65.1428 50.5192 65.5706 50.6733 65.9864 50.859 C 66.4021 51.0448 66.786 51.2599 67.1381 51.5044 L 67.1381 47.1191 C 66.4241 46.8454 65.644 46.6425 64.7979 46.5105 C 63.9518 46.3785 62.981 46.3125 61.8855 46.3125 C 60.7703 46.3125 59.714 46.4323 58.7163 46.6718 C 57.7186 46.9114 56.8407 47.2853 56.0826 47.7938 C 55.3245 48.3023 54.7254 48.95 54.2853 49.7371 C 53.8451 50.5241 53.625 51.4652 53.625 52.5603 C 53.625 53.9585 54.0285 55.1513 54.8355 56.1389 C 55.6424 57.1264 56.8675 57.9623 58.5109 58.6468 C 59.1564 58.9108 59.758 59.1698 60.3156 59.4241 C 60.8731 59.6783 61.3549 59.9423 61.7607 60.2161 C 62.1667 60.4898 62.487 60.7881 62.7218 61.1107 C 62.9566 61.4333 63.074 61.8 63.074 62.2107 C 63.074 62.5138 63.0006 62.7949 62.8538 63.054 C 62.7071 63.3131 62.4846 63.5379 62.1863 63.7286 C 61.8879 63.9193 61.5162 64.0684 61.0712 64.1759 C 60.6261 64.2835 60.1053 64.3373 59.5086 64.3373 C 58.4913 64.3373 57.4838 64.1588 56.4861 63.8019 C 55.4884 63.4451 54.564 62.9098 53.713 62.196 L 53.713 62.196 Z M 45.8231 50.6327 L 51.8438 50.6327 L 51.8438 46.7812 L 35.0625 46.7812 L 35.0625 50.6327 L 41.0537 50.6327 L 41.0537 67.7812 L 45.8231 67.7812 L 45.8231 50.6327 Z" stroke-linecap="round" />
</g>
<g transform="matrix(0.25 0 0 0.25 562.32 557.61)"  >
<g style="" vector-effect="non-scaling-stroke"   >
		<g transform="matrix(6 0 0 6 -1.49 -235.25)"  >
<path style="stroke: none; stroke-width: 1; stroke-dasharray: none; stroke-linecap: butt; stroke-dashoffset: 0; stroke-linejoin: miter; stroke-miterlimit: 4; fill: rgb(211,56,51); fill-rule: nonzero; opacity: 1;" vector-effect="non-scaling-stroke"  transform=" translate(-127.7, -169.28)" d="M 250.741 169.278 C 250.741 238.73499999999999 195.67100000000002 295.09499999999997 127.70200000000001 295.09499999999997 C 59.733000000000004 295.09499999999997 4.664 238.735 4.664 169.278 C 4.664 99.82 59.734 43.459999999999994 127.702 43.459999999999994 C 195.672 43.459999999999994 250.74200000000002 99.82 250.74200000000002 169.278" stroke-linecap="round" />
</g>
		<g transform="matrix(6 0 0 6 -392.63 -495.46)"  >
<path style="stroke: none; stroke-width: 1; stroke-dasharray: none; stroke-linecap: butt; stroke-dashoffset: 0; stroke-linejoin: miter; stroke-miterlimit: 4; fill: rgb(239,61,58); fill-rule: nonzero; opacity: 1;" vector-effect="non-scaling-stroke"  transform=" translate(-62.51, -125.92)" d="M 9.724 200.434 C 9.724 200.434 0.794 69.26 121.749 65.488 L 113.315 51.397999999999996 L 47.727000000000004 73.42599999999999 L 28.974000000000004 94.95799999999998 L 12.602000000000004 126.31299999999999 L 3.2740000000000045 162.82799999999997 L 6.053000000000004 187.23799999999997" stroke-linecap="round" />
</g>
		<g transform="matrix(6 0 0 6 -1.47 -232.57)"  >
<path style="stroke: none; stroke-width: 1; stroke-dasharray: none; stroke-linecap: butt; stroke-dashoffset: 0; stroke-linejoin: miter; stroke-miterlimit: 4; fill: rgb(35,31,32); fill-rule: nonzero; opacity: 1;" vector-effect="non-scaling-stroke"  transform=" translate(-127.7, -169.72)" d="M 43.46 83.448 C 21.929000000000002 105.57499999999999 8.533000000000001 136.038 8.533000000000001 169.774 C 8.533000000000001 203.51 21.929000000000002 233.97199999999998 43.46 256.099 C 65.09100000000001 278.226 94.75999999999999 291.82 127.702 291.82 C 160.64499999999998 291.82 190.313 278.226 211.94400000000002 256.1 C 233.47600000000003 233.97200000000004 246.871 203.51000000000002 246.871 169.77400000000003 C 246.871 136.03700000000003 233.476 105.57500000000003 211.94400000000002 83.44800000000004 C 190.31400000000002 61.42000000000004 160.645 47.72800000000004 127.70200000000001 47.72800000000004 C 94.85900000000001 47.72800000000004 65.09200000000001 61.32100000000004 43.46000000000001 83.44800000000004 z M 38.003 261.358 C 15.083 237.941 0.893 205.495 0.893 169.774 C 0.893 134.053 15.083 101.606 38.003 78.09 C 60.924 54.673 92.676 40.087 127.703 40.087 C 162.729 40.087 194.481 54.673 217.402 78.09 C 240.322 101.507 254.512 133.953 254.512 169.774 C 254.512 205.494 240.322 237.941 217.402 261.358 C 194.481 284.874 162.72899999999998 299.361 127.70199999999998 299.361 C 92.67599999999999 299.361 60.92399999999998 284.87399999999997 38.002999999999986 261.358 z" stroke-linecap="round" />
</g>
		<g transform="matrix(6 0 0 6 10.81 -707.19)"  >
<path style="stroke: none; stroke-width: 1; stroke-dasharray: none; stroke-linecap: butt; stroke-dashoffset: 0; stroke-linejoin: miter; stroke-miterlimit: 4; fill: rgb(240,214,183); fill-rule: nonzero; opacity: 1;" vector-effect="non-scaling-stroke"  transform=" translate(-129.79, -90.59)" d="M 179.498 169.972 L 160.744 172.75 L 135.442 175.628 L 119.07000000000001 176.02499999999998 L 103.09500000000001 175.52899999999997 L 90.89000000000001 171.75899999999996 L 80.07400000000001 160.04899999999995 L 71.64000000000001 136.13599999999994 L 69.75500000000001 130.97599999999994 L 58.543000000000006 127.20599999999995 L 51.99300000000001 116.39099999999995 L 47.33000000000001 100.91099999999994 L 52.49000000000001 87.31799999999994 L 64.69500000000001 83.05099999999995 L 74.518 87.71499999999995 L 79.181 98.03499999999994 L 84.837 97.14099999999993 L 86.72200000000001 94.75999999999993 L 84.837 83.94399999999993 L 84.34100000000001 70.34999999999994 L 87.11900000000001 51.59699999999994 L 87.02000000000001 40.880999999999936 L 95.55300000000001 27.18799999999994 L 110.53600000000002 16.371999999999936 L 136.732 5.16 L 165.805 9.426 L 191.107 27.683999999999997 L 202.816 46.437 L 210.356 60.031 L 212.242 93.767 L 206.58599999999998 122.84 L 196.266 148.639 L 186.54299999999998 162.431" stroke-linecap="round" />
</g>
		<g transform="matrix(6 0 0 6 -167.72 161.56)"  >
<path style="stroke: none; stroke-width: 1; stroke-dasharray: none; stroke-linecap: butt; stroke-dashoffset: 0; stroke-linejoin: miter; stroke-miterlimit: 4; fill: rgb(51,80,97); fill-rule: nonzero; opacity: 1;" vector-effect="non-scaling-stroke"  transform=" translate(-100.02, -235.51)" d="M 163.622 251.039 L 96.64500000000001 253.81699999999998 L 96.64500000000001 265.029 L 102.30100000000002 304.422 L 99.52200000000002 307.696 L 52.68800000000002 291.721 L 49.414000000000016 286.065 L 44.750000000000014 233.079 L 33.73600000000002 201.327 L 31.355000000000018 193.786 L 68.86200000000002 167.988 L 80.57100000000003 163.324 L 90.89000000000003 176.024 L 99.82000000000002 183.963 L 110.14000000000001 187.237 L 114.80300000000001 188.62699999999998 L 120.45900000000002 213.03599999999997 L 124.72600000000001 218.19599999999997 L 135.54100000000003 214.42499999999998 L 128 229.01 L 168.68200000000002 248.26 L 163.622 251.03799999999998" stroke-linecap="round" />
</g>
		<g transform="matrix(6 0 0 6 -284.51 -927.19)"  >
<path style="stroke: none; stroke-width: 1; stroke-dasharray: none; stroke-linecap: butt; stroke-dashoffset: 0; stroke-linejoin: miter; stroke-miterlimit: 4; fill: rgb(109,107,109); fill-rule: nonzero; opacity: 1;" vector-effect="non-scaling-stroke"  transform=" translate(-80.57, -53.93)" d="M 52.49 87.516 L 64.69500000000001 83.25 L 74.518 87.913 L 79.181 98.233 L 84.837 97.34 L 86.227 91.684 L 83.44800000000001 80.868 L 86.22600000000001 55.06999999999999 L 83.84500000000001 40.97999999999999 L 92.27900000000001 31.15699999999999 L 110.53600000000002 16.669999999999987 L 105.37600000000002 9.624999999999988 L 79.57800000000002 22.32499999999999 L 68.76300000000002 30.75999999999999 L 62.71000000000002 43.85699999999999 L 53.383000000000024 56.55799999999999 L 50.605000000000025 71.541 L 52.49000000000002 87.51599999999999" stroke-linecap="round" />
</g>
		<g transform="matrix(6 0 0 6 -256.97 -954.33)"  >
<path style="stroke: none; stroke-width: 1; stroke-dasharray: none; stroke-linecap: butt; stroke-dashoffset: 0; stroke-linejoin: miter; stroke-miterlimit: 4; fill: rgb(220,217,216); fill-rule: nonzero; opacity: 1;" vector-effect="non-scaling-stroke"  transform=" translate(-85.16, -49.41)" d="M 71.74 43.46 C 71.74 43.46 78.78399999999999 26.096 106.865 17.662000000000003 C 134.945 9.228000000000003 108.255 11.609000000000002 108.255 11.609000000000002 L 77.791 23.318 L 66.084 35.026 L 60.92400000000001 44.353 L 71.74000000000001 43.46 M 57.65 84.242 C 57.65 84.242 47.826 51.398 85.333 46.73500000000001 L 83.944 41.07900000000001 L 58.146 47.132000000000005 L 50.605000000000004 71.542 L 52.49 87.516 L 57.650000000000006 84.242" stroke-linecap="round" />
</g>
		<g transform="matrix(6 0 0 6 -29.67 -722.66)"  >
<path style="stroke: none; stroke-width: 1; stroke-dasharray: none; stroke-linecap: butt; stroke-dashoffset: 0; stroke-linejoin: miter; stroke-miterlimit: 4; fill: rgb(247,228,205); fill-rule: nonzero; opacity: 1;" vector-effect="non-scaling-stroke"  transform=" translate(-123.04, -88.01)" d="M 72.633 127.802 L 78.78399999999999 121.84800000000001 C 78.78399999999999 121.84800000000001 81.56299999999999 122.14600000000002 82.059 125.42000000000002 C 82.55499999999999 128.69500000000002 83.944 158.264 104.08699999999999 174.14000000000001 C 105.972 175.62800000000001 89.10399999999998 171.758 89.10399999999998 171.758 L 74.12 148.341 M 158.859 118.871 C 158.859 118.871 159.95000000000002 104.68199999999999 163.82000000000002 105.774 C 167.69000000000003 106.865 167.69000000000003 110.734 167.69000000000003 110.734 C 167.69000000000003 110.734 158.36300000000003 116.68799999999999 158.85900000000004 118.871 M 197.755 66.878 C 197.755 66.878 190.015 68.465 189.321 75.312 C 188.626 82.158 197.755 76.701 199.144 76.205 M 141.098 67.374 C 141.098 67.374 130.77800000000002 68.76299999999999 130.77800000000002 75.312 C 130.77800000000002 81.86 142.48700000000002 81.364 145.76100000000002 78.586 M 77.395 97.836 C 77.395 97.836 59.635 87.02 57.75 97.34 C 55.865 107.659 51.697 115.10000000000001 60.528 125.916 L 54.475 124.03099999999999 L 48.82 109.544 L 46.934 95.454 L 57.75 84.242 L 69.95400000000001 85.135 L 76.99900000000001 90.79100000000001 L 77.39600000000002 97.83600000000001 M 85.83 68.267 C 85.83 68.267 93.767 26.988999999999997 134.053 19.050999999999995 C 167.19299999999998 12.501999999999995 184.65699999999998 20.440999999999995 191.206 27.980999999999995 C 191.206 27.980999999999995 161.637 -7.1440000000000055 133.55599999999998 3.5719999999999956 C 105.47599999999998 14.387999999999996 84.83699999999999 34.03399999999999 85.33299999999998 46.635999999999996 C 86.12699999999998 68.26599999999999 85.82899999999998 68.26599999999999 85.82899999999998 68.26599999999999 M 194.48 32.645 C 194.48 32.645 180.887 32.149 180.39 44.353 C 180.39 44.353 180.39 46.239000000000004 181.284 48.124 C 181.284 48.124 192.099 35.919000000000004 198.648 42.468" stroke-linecap="round" />
</g>
		<g transform="matrix(6 0 0 6 -38.72 -943.46)"  >
<path style="stroke: none; stroke-width: 1; stroke-dasharray: none; stroke-linecap: butt; stroke-dashoffset: 0; stroke-linejoin: miter; stroke-miterlimit: 4; fill: rgb(247,228,205); fill-rule: nonzero; opacity: 1;" vector-effect="non-scaling-stroke"  transform=" translate(-121.58, -51.24)" d="M 135.045 49.414 C 135.045 49.414 132.664 30.76 116.78799999999998 41.575 C 106.46799999999999 48.620000000000005 107.45999999999998 58.443 109.24699999999999 60.32900000000001 C 111.13199999999999 62.214000000000006 110.63599999999998 65.98400000000001 112.02499999999999 63.40500000000001 C 113.41399999999999 60.82500000000001 113.017 52.391000000000005 118.17699999999999 50.00900000000001 C 123.237 47.62800000000001 131.771 45.04900000000001 135.045 49.41400000000001" stroke-linecap="round" />
</g>
		<g transform="matrix(6 0 0 6 -368.36 109.76)"  >
<path style="stroke: none; stroke-width: 1; stroke-dasharray: none; stroke-linecap: butt; stroke-dashoffset: 0; stroke-linejoin: miter; stroke-miterlimit: 4; fill: rgb(73,114,139); fill-rule: nonzero; opacity: 1;" vector-effect="non-scaling-stroke"  transform=" translate(-66.58, -226.88)" d="M 90.99 176.025 L 46.932 195.67 C 46.932 195.67 65.19 268.303 55.862 290.827 L 49.314 288.446 L 48.818 260.762 L 36.613 208.372 L 31.453 193.88400000000001 L 77.394 162.92600000000002 L 90.988 176.02400000000003 M 95.454 216.21 L 101.705 223.851 L 101.705 251.93099999999998 L 94.264 251.93099999999998 C 94.264 251.93099999999998 93.371 232.28499999999997 93.371 229.904 C 93.371 227.522 94.264 219.088 94.264 219.088 M 95.653 256.198 L 74.518 257.09099999999995 L 80.571 261.35799999999995 L 95.553 263.73999999999995" stroke-linecap="round" />
</g>
		<g transform="matrix(6 0 0 6 303.14 390.64)"  >
<path style="stroke: none; stroke-width: 1; stroke-dasharray: none; stroke-linecap: butt; stroke-dashoffset: 0; stroke-linejoin: miter; stroke-miterlimit: 4; fill: rgb(51,80,97); fill-rule: nonzero; opacity: 1;" vector-effect="non-scaling-stroke"  transform=" translate(-178.6, -273.76)" d="M 167.79 251.535 L 185.153 251.039 L 189.42 294.102 L 171.659 296.484 L 167.789 251.534" stroke-linecap="round" />
</g>
		<g transform="matrix(6 0 0 6 405.22 -27.72)"  >
<path style="stroke: none; stroke-width: 1; stroke-dasharray: none; stroke-linecap: butt; stroke-dashoffset: 0; stroke-linejoin: miter; stroke-miterlimit: 4; fill: rgb(51,80,97); fill-rule: nonzero; opacity: 1;" vector-effect="non-scaling-stroke"  transform=" translate(-195.62, -203.96)" d="M 172.453 251.535 L 198.648 250.145 C 198.648 250.145 209.464 222.958 209.464 221.56900000000002 C 209.464 220.17900000000003 218.791 182.17700000000002 218.791 182.17700000000002 L 197.656 160.14900000000003 L 193.389 156.37900000000002 L 182.17700000000002 167.591 L 182.17700000000002 211.151 L 172.45300000000003 251.53500000000003" stroke-linecap="round" />
</g>
		<g transform="matrix(6 0 0 6 390.07 13.73)"  >
<path style="stroke: none; stroke-width: 1; stroke-dasharray: none; stroke-linecap: butt; stroke-dashoffset: 0; stroke-linejoin: miter; stroke-miterlimit: 4; fill: rgb(73,114,139); fill-rule: nonzero; opacity: 1;" vector-effect="non-scaling-stroke"  transform=" translate(-193.09, -210.87)" d="M 184.161 248.26 L 167.789 251.535 L 170.171 264.633 C 176.22299999999998 267.411 186.543 259.969 186.543 259.969 M 184.657 166.202 L 217.501 190.611 L 218.394 179.398 L 193.588 156.478 L 184.658 166.202" stroke-linecap="round" />
</g>
		<g transform="matrix(6 0 0 6 30.22 547.82)"  >
<path style="stroke: none; stroke-width: 1; stroke-dasharray: none; stroke-linecap: butt; stroke-dashoffset: 0; stroke-linejoin: miter; stroke-miterlimit: 4; fill: rgb(255,255,255); fill-rule: nonzero; opacity: 1;" vector-effect="non-scaling-stroke"  transform=" translate(-133.06, -299.96)" d="M 111.926 343.814 L 102.202 304.422 L 97.34 275.34900000000005 L 96.546 253.81700000000004 L 140.502 251.43600000000004 L 167.78900000000002 251.43600000000004 L 165.30900000000003 300.65100000000007 L 169.57500000000002 338.65400000000005 L 169.079 345.69900000000007 L 133.457 348.47800000000007 L 111.92599999999999 343.8140000000001" stroke-linecap="round" />
</g>
		<g transform="matrix(6 0 0 6 154.48 529.97)"  >
<path style="stroke: none; stroke-width: 1; stroke-dasharray: none; stroke-linecap: butt; stroke-dashoffset: 0; stroke-linejoin: miter; stroke-miterlimit: 4; fill: rgb(220,217,216); fill-rule: nonzero; opacity: 1;" vector-effect="non-scaling-stroke"  transform=" translate(-153.8, -296.98)" d="M 161.736 251.039 C 161.736 251.039 159.355 299.759 166.39999999999998 334.48699999999997 C 166.39999999999998 334.48699999999997 152.30999999999997 343.417 131.76999999999998 345.69899999999996 L 171.16299999999998 344.30999999999995 L 175.826 341.5319999999999 L 170.171 264.7319999999999 L 168.682 248.2599999999999" stroke-linecap="round" />
</g>
		<g transform="matrix(6 0 0 6 531.38 334.45)"  >
<path style="stroke: none; stroke-width: 1; stroke-dasharray: none; stroke-linecap: butt; stroke-dashoffset: 0; stroke-linejoin: miter; stroke-miterlimit: 4; fill: rgb(255,255,255); fill-rule: nonzero; opacity: 1;" vector-effect="non-scaling-stroke"  transform=" translate(-216.66, -264.38)" d="M 190.115 290.431 L 208.372 285.27099999999996 L 243.002 283.38599999999997 L 248.162 267.41099999999994 L 238.834 239.72699999999995 L 228.019 238.33799999999994 L 213.036 243.00199999999992 L 198.747 250.0469999999999 L 191.10700000000003 248.65699999999993 L 185.15300000000002 251.03899999999993" stroke-linecap="round" />
</g>
		<g transform="matrix(6 0 0 6 543.56 363.28)"  >
<path style="stroke: none; stroke-width: 1; stroke-dasharray: none; stroke-linecap: butt; stroke-dashoffset: 0; stroke-linejoin: miter; stroke-miterlimit: 4; fill: rgb(220,217,216); fill-rule: nonzero; opacity: 1;" vector-effect="non-scaling-stroke"  transform=" translate(-218.69, -269.2)" d="M 189.817 281.005 C 189.817 281.005 202.02200000000002 275.349 203.907 275.84499999999997 L 198.747 250.04699999999997 L 204.8 247.66499999999996 C 204.8 247.66499999999996 209.067 272.075 209.067 274.85299999999995 C 209.067 274.85299999999995 235.262 276.24199999999996 237.643 276.24199999999996 C 237.643 276.24199999999996 243.299 265.426 241.91 254.21399999999997 L 247.07 269.19699999999995 L 247.566 277.631 L 240.025 288.84299999999996 L 231.591 290.729 L 217.501 290.233 L 212.83700000000002 284.18 L 196.46500000000003 286.561 L 191.30500000000004 288.447" stroke-linecap="round" />
</g>
		<g transform="matrix(6 0 0 6 213.33 90.24)"  >
<path style="stroke: none; stroke-width: 1; stroke-dasharray: none; stroke-linecap: butt; stroke-dashoffset: 0; stroke-linejoin: miter; stroke-miterlimit: 4; fill: rgb(255,255,255); fill-rule: nonzero; opacity: 1;" vector-effect="non-scaling-stroke"  transform=" translate(-163.62, -223.65)" d="M 171.361 247.764 L 161.041 221.56900000000002 L 150.226 206.08900000000003 C 150.226 206.08900000000003 152.608 199.54100000000003 155.882 199.54100000000003 L 166.698 199.54100000000003 L 177.018 203.31100000000004 L 176.124 220.67600000000004 L 171.361 247.76400000000004" stroke-linecap="round" />
</g>
		<g transform="matrix(6 0 0 6 209.16 74.47)"  >
<path style="stroke: none; stroke-width: 1; stroke-dasharray: none; stroke-linecap: butt; stroke-dashoffset: 0; stroke-linejoin: miter; stroke-miterlimit: 4; fill: rgb(220,217,216); fill-rule: nonzero; opacity: 1;" vector-effect="non-scaling-stroke"  transform=" translate(-162.93, -221.02)" d="M 173.445 238.834 C 173.445 238.834 160.34699999999998 213.532 160.34699999999998 209.761 C 160.34699999999998 209.761 162.72899999999998 204.105 166.003 205.495 C 169.278 206.88400000000001 176.32299999999998 210.655 176.32299999999998 210.655 L 176.32299999999998 201.724 L 160.34699999999998 198.45 L 149.53199999999998 199.839 L 167.789 243.101 L 171.559 243.597" stroke-linecap="round" />
</g>
		<g transform="matrix(6 0 0 6 -147.17 -162.65)"  >
<path style="stroke: none; stroke-width: 1; stroke-dasharray: none; stroke-linecap: butt; stroke-dashoffset: 0; stroke-linejoin: miter; stroke-miterlimit: 4; fill: rgb(255,255,255); fill-rule: nonzero; opacity: 1;" vector-effect="non-scaling-stroke"  transform=" translate(-103.49, -181.48)" d="M 116.093 177.017 L 103.095 175.627 L 90.89 171.857 L 90.89 176.124 L 96.843 182.673 L 115.59700000000001 191.107" stroke-linecap="round" />
</g>
		<g transform="matrix(6 0 0 6 -141.83 -150.18)"  >
<path style="stroke: none; stroke-width: 1; stroke-dasharray: none; stroke-linecap: butt; stroke-dashoffset: 0; stroke-linejoin: miter; stroke-miterlimit: 4; fill: rgb(220,217,216); fill-rule: nonzero; opacity: 1;" vector-effect="non-scaling-stroke"  transform=" translate(-104.38, -183.57)" d="M 95.157 178.406 C 95.157 178.406 109.643 184.459 114.407 183.07 L 114.902 188.726 L 101.805 185.947 L 93.867 180.291 L 95.15700000000001 178.406" stroke-linecap="round" />
</g>
		<g transform="matrix(6 0 0 6 308.01 -122.7)"  >
<path style="stroke: none; stroke-width: 1; stroke-dasharray: none; stroke-linecap: butt; stroke-dashoffset: 0; stroke-linejoin: miter; stroke-miterlimit: 4; fill: rgb(211,56,51); fill-rule: nonzero; opacity: 1;" vector-effect="non-scaling-stroke"  transform=" translate(-179.42, -188.14)" d="M 190.115 201.129 C 182.17700000000002 200.92999999999998 174.93300000000002 199.938 168.68200000000002 198.152 C 169.079 195.57199999999997 168.28500000000003 193.09199999999998 168.98000000000002 191.206 C 170.76600000000002 189.916 173.64300000000003 189.916 176.32200000000003 189.619 C 174.04000000000002 188.527 170.76600000000002 188.031 168.18600000000004 188.726 C 168.08600000000004 186.94 167.29300000000003 185.848 166.79600000000005 184.459 C 171.26200000000006 182.871 181.78000000000006 172.453 187.73300000000006 175.826 C 190.61100000000005 177.513 191.80200000000005 186.84 192.00000000000006 191.504 C 192.19800000000006 195.274 191.60300000000007 199.045 190.11500000000007 201.129" stroke-linecap="round" />
</g>
		<g transform="matrix(6 0 0 6 308.01 -122.7)"  >
<path style="stroke: rgb(211,56,51); stroke-width: 2; stroke-dasharray: none; stroke-linecap: butt; stroke-dashoffset: 0; stroke-linejoin: miter; stroke-miterlimit: 4; fill: rgb(0,0,0); fill-rule: nonzero; opacity: 1;" vector-effect="non-scaling-stroke"  transform=" translate(-179.42, -188.14)" d="M 190.115 201.129 C 182.17700000000002 200.92999999999998 174.93300000000002 199.938 168.68200000000002 198.152 C 169.079 195.57199999999997 168.28500000000003 193.09199999999998 168.98000000000002 191.206 C 170.76600000000002 189.916 173.64300000000003 189.916 176.32200000000003 189.619 C 174.04000000000002 188.527 170.76600000000002 188.031 168.18600000000004 188.726 C 168.08600000000004 186.94 167.29300000000003 185.848 166.79600000000005 184.459 C 171.26200000000006 182.871 181.78000000000006 172.453 187.73300000000006 175.826 C 190.61100000000005 177.513 191.80200000000005 186.84 192.00000000000006 191.504 C 192.19800000000006 195.274 191.60300000000007 199.045 190.11500000000007 201.129 z" stroke-linecap="round" />
</g>
		<g transform="matrix(6 0 0 6 41.8 -75.26)"  >
<path style="stroke: none; stroke-width: 1; stroke-dasharray: none; stroke-linecap: butt; stroke-dashoffset: 0; stroke-linejoin: miter; stroke-miterlimit: 4; fill: rgb(211,56,51); fill-rule: nonzero; opacity: 1;" vector-effect="non-scaling-stroke"  transform=" translate(-135.01, -196.05)" d="M 152.112 188.13 C 152.112 188.726 152.112 189.32 152.012 189.916 C 149.532 191.504 145.562 191.504 142.784 192.893 C 146.754 193.091 149.929 194.083 152.707 195.373 C 152.607 196.862 152.607 198.45 152.509 199.938 C 147.944 203.01399999999998 143.777 207.678 138.41899999999998 210.654 C 135.83899999999997 212.04399999999998 127.00799999999998 215.61599999999999 124.32899999999998 214.921 C 122.83999999999997 214.524 122.64199999999998 212.63899999999998 122.04699999999998 210.85299999999998 C 120.75699999999998 207.08299999999997 117.77999999999999 200.92999999999998 117.48199999999999 195.17499999999998 C 117.18399999999998 187.932 116.39099999999999 175.72699999999998 124.22899999999998 177.21499999999997 C 130.57899999999998 178.40599999999998 137.922 181.28399999999996 142.784 183.96299999999997 C 145.85999999999999 185.74899999999997 147.547 187.73299999999998 152.112 188.12999999999997" stroke-linecap="round" />
</g>
		<g transform="matrix(6 0 0 6 41.8 -75.26)"  >
<path style="stroke: rgb(211,56,51); stroke-width: 2; stroke-dasharray: none; stroke-linecap: butt; stroke-dashoffset: 0; stroke-linejoin: miter; stroke-miterlimit: 4; fill: rgb(0,0,0); fill-rule: nonzero; opacity: 1;" vector-effect="non-scaling-stroke"  transform=" translate(-135.01, -196.05)" d="M 152.112 188.13 C 152.112 188.726 152.112 189.32 152.012 189.916 C 149.532 191.504 145.562 191.504 142.784 192.893 C 146.754 193.091 149.929 194.083 152.707 195.373 C 152.607 196.862 152.607 198.45 152.509 199.938 C 147.944 203.01399999999998 143.777 207.678 138.41899999999998 210.654 C 135.83899999999997 212.04399999999998 127.00799999999998 215.61599999999999 124.32899999999998 214.921 C 122.83999999999997 214.524 122.64199999999998 212.63899999999998 122.04699999999998 210.85299999999998 C 120.75699999999998 207.08299999999997 117.77999999999999 200.92999999999998 117.48199999999999 195.17499999999998 C 117.18399999999998 187.932 116.39099999999999 175.72699999999998 124.22899999999998 177.21499999999997 C 130.57899999999998 178.40599999999998 137.922 181.28399999999996 142.784 183.96299999999997 C 145.85999999999999 185.74899999999997 147.547 187.73299999999998 152.112 188.12999999999997 z" stroke-linecap="round" />
</g>
		<g transform="matrix(6 0 0 6 190.27 -100)"  >
<path style="stroke: none; stroke-width: 1; stroke-dasharray: none; stroke-linecap: butt; stroke-dashoffset: 0; stroke-linejoin: miter; stroke-miterlimit: 4; fill: rgb(211,56,51); fill-rule: nonzero; opacity: 1;" vector-effect="non-scaling-stroke"  transform=" translate(-159.78, -191.94)" d="M 156.577 196.763 C 155.882 192.793 155.088 191.703 155.386 188.229 C 166.003 181.18400000000003 167.888 200.335 156.576 196.763" stroke-linecap="round" />
</g>
		<g transform="matrix(6 0 0 6 190.27 -100)"  >
<path style="stroke: rgb(211,56,51); stroke-width: 2; stroke-dasharray: none; stroke-linecap: butt; stroke-dashoffset: 0; stroke-linejoin: miter; stroke-miterlimit: 4; fill: rgb(0,0,0); fill-rule: nonzero; opacity: 1;" vector-effect="non-scaling-stroke"  transform=" translate(-159.78, -191.94)" d="M 156.577 196.763 C 155.882 192.793 155.088 191.703 155.386 188.229 C 166.003 181.18400000000003 167.888 200.335 156.576 196.763 z" stroke-linecap="round" />
</g>
		<g transform="matrix(6 0 0 6 150.97 -90.01)"  >
<path style="stroke: none; stroke-width: 1; stroke-dasharray: none; stroke-linecap: butt; stroke-dashoffset: 0; stroke-linejoin: miter; stroke-miterlimit: 4; fill: rgb(239,61,58); fill-rule: nonzero; opacity: 1;" vector-effect="non-scaling-stroke"  transform=" translate(-153.2, -193.59)" d="M 171.857 199.938 C 171.857 199.938 168.583 195.274 170.964 193.885 C 173.346 192.49599999999998 175.628 193.885 177.017 191.504 C 178.40699999999998 189.12199999999999 177.017 187.73399999999998 177.513 184.95499999999998 C 178.00900000000001 182.177 180.291 181.68099999999998 182.673 181.18499999999997 C 185.054 180.68799999999996 191.603 179.795 192.496 182.07799999999997 L 189.71800000000002 173.64299999999997 L 184.062 171.75799999999998 L 166.30100000000002 182.07799999999997 L 165.40800000000002 187.23799999999997 L 165.40800000000002 197.55699999999996 M 122.642 215.417 C 122.047 208.074 121.452 200.831 120.856 193.488 C 119.86399999999999 182.574 123.43599999999999 184.458 132.96099999999998 184.458 C 134.45 184.458 141.891 186.146 142.38799999999998 187.238 C 144.968 192.496 138.12099999999998 191.305 145.36399999999998 195.274 C 151.41699999999997 198.549 162.23299999999998 193.29 159.75199999999998 185.848 C 158.362 184.161 152.60799999999998 185.352 150.52399999999997 184.26000000000002 L 139.50999999999996 178.60500000000002 C 134.84699999999995 176.223 124.12999999999997 172.651 119.16899999999995 176.025 C 106.56699999999995 184.558 119.96299999999995 205.991 124.42799999999995 214.921" stroke-linecap="round" />
</g>
		<g transform="matrix(6 0 0 6 21.18 -666.64)"  >
<path style="stroke: none; stroke-width: 1; stroke-dasharray: none; stroke-linecap: butt; stroke-dashoffset: 0; stroke-linejoin: miter; stroke-miterlimit: 4; fill: rgb(35,31,32); fill-rule: nonzero; opacity: 1;" vector-effect="non-scaling-stroke"  transform=" translate(-131.52, -97.38)" d="M 135.045 49.414 C 122.24499999999999 46.437000000000005 115.89499999999998 54.772 112.02499999999999 63.404 C 108.55199999999999 62.611000000000004 109.94099999999999 57.848000000000006 110.835 55.467000000000006 C 113.116 49.21600000000001 122.345 40.781000000000006 129.885 41.97200000000001 C 133.06 42.36900000000001 137.426 45.34600000000001 135.045 49.41400000000001 M 197.259 63.9 L 197.85399999999998 63.9 C 200.73199999999997 69.854 203.212 76.205 206.884 81.563 C 204.404 87.318 188.428 92.279 188.62599999999998 82.158 C 192.099 80.67 198.05299999999997 81.86 201.12899999999996 79.876 C 199.34299999999996 75.01400000000001 196.86199999999997 70.846 197.25899999999996 63.901 M 141.495 64.1 C 144.273 69.16 145.165 74.419 149.035 78.19 C 150.822 79.876 154.195 81.96 152.509 86.722 C 152.112 87.814 149.23399999999998 90.29499999999999 147.547 90.791 C 141.495 92.577 127.30499999999999 91.188 132.06799999999998 83.547 C 137.128 83.746 143.87599999999998 86.822 147.647 83.14999999999999 C 144.769 78.58599999999998 139.60899999999998 69.457 141.495 64.1 M 194.977 115.1 C 185.848 120.955 175.627 127.405 160.546 125.916 C 157.37099999999998 123.13799999999999 156.081 116.886 159.256 112.819 C 160.843 115.59700000000001 159.851 120.757 164.416 121.55 C 172.94899999999998 123.039 182.87099999999998 116.291 189.023 114.00999999999999 C 192.793 107.55999999999999 188.726 105.27799999999999 185.253 101.10999999999999 C 178.208 92.67599999999999 168.88099999999997 82.15799999999999 169.178 69.55699999999999 C 172.05599999999998 67.47299999999998 172.254 72.73199999999999 172.651 73.62499999999999 C 176.322 82.15799999999999 185.55100000000002 93.17199999999998 192.198 100.51499999999999 C 193.88500000000002 102.30099999999999 196.56400000000002 104.08699999999999 196.862 105.27799999999999 C 197.755 108.651 194.57999999999998 112.818 194.977 115.101 M 74.12 108.949 C 71.24300000000001 107.262 70.549 100.118 67.17500000000001 99.919 C 62.31300000000001 99.622 63.20600000000001 109.247 63.20600000000001 114.902 C 59.93200000000001 111.926 59.33600000000001 102.598 61.71800000000001 97.836 C 58.94000000000001 96.446 57.74800000000001 99.324 56.16100000000001 100.316 C 58.24500000000001 85.929 77.296 93.668 74.12100000000001 108.949 M 200.732 121.153 C 196.465 129.29000000000002 190.412 138.22 177.91 138.518 C 177.612 135.938 177.414 131.87 177.91 130.282 C 187.535 129.29000000000002 193.488 124.42800000000001 200.732 121.153 M 140.8 126.412 C 148.738 130.58 163.423 131.076 174.33800000000002 130.77800000000002 C 174.93300000000002 133.16000000000003 174.93300000000002 136.13600000000002 174.93300000000002 139.014 C 160.943 139.609 144.47100000000003 136.13600000000002 140.8 126.412 M 139.312 134.152 C 144.86800000000002 148.04299999999998 163.82000000000002 146.456 179.79500000000002 146.059 C 179.10100000000003 147.845 177.61200000000002 150.028 175.62800000000001 150.722 C 170.46800000000002 152.806 156.37800000000001 154.394 149.234 150.62300000000002 C 144.769 148.24200000000002 141.792 142.78400000000002 139.312 139.609 C 138.22 138.121 132.26700000000002 134.251 139.312 134.15200000000002" stroke-linecap="round" />
</g>
		<g transform="matrix(6 0 0 6 336.15 90.01)"  >
<path style="stroke: none; stroke-width: 1; stroke-dasharray: none; stroke-linecap: butt; stroke-dashoffset: 0; stroke-linejoin: miter; stroke-miterlimit: 4; fill: rgb(129,176,196); fill-rule: nonzero; opacity: 1;" vector-effect="non-scaling-stroke"  transform=" translate(-184.11, -223.62)" d="M 194.282 210.654 C 187.83200000000002 221.767 181.58200000000002 233.178 173.942 242.902 C 177.116 233.476 178.505 217.6 179.002 205.495 C 185.74900000000002 202.31900000000002 191.50400000000002 206.189 194.282 210.655" stroke-linecap="round" />
</g>
		<g transform="matrix(6 0 0 6 563.4 314.85)"  >
<path style="stroke: none; stroke-width: 1; stroke-dasharray: none; stroke-linecap: butt; stroke-dashoffset: 0; stroke-linejoin: miter; stroke-miterlimit: 4; fill: rgb(35,31,32); fill-rule: nonzero; opacity: 1;" vector-effect="non-scaling-stroke"  transform=" translate(-222.02, -261.13)" d="M 229.11 250.543 C 221.86700000000002 252.031 216.806 259.076 209.662 258.58 C 213.631 253.12199999999999 220.37800000000001 250.74099999999999 229.11 250.54299999999998 M 232.285 261.854 C 226.332 262.45 219.386 263.442 213.433 262.94599999999997 C 216.31 258.58 227.225 260.167 232.285 261.854 M 234.369 271.678 C 227.721 271.777 219.485 271.678 213.135 271.181 C 216.905 267.113 230.10199999999998 269.693 234.369 271.678" stroke-linecap="round" />
</g>
		<g transform="matrix(6 0 0 6 309.91 622.85)"  >
<path style="stroke: none; stroke-width: 1; stroke-dasharray: none; stroke-linecap: butt; stroke-dashoffset: 0; stroke-linejoin: miter; stroke-miterlimit: 4; fill: rgb(220,217,216); fill-rule: nonzero; opacity: 1;" vector-effect="non-scaling-stroke"  transform=" translate(-179.74, -312.5)" d="M 181.78 298.468 C 182.772 306.803 186.047 315.238 185.65 324.36600000000004 C 181.978 325.55600000000004 179.895 326.648 174.933 326.648 C 174.636 318.908 173.54399999999998 307.002 173.84199999999998 299.56 C 176.22299999999998 299.758 179.795 297.873 181.77999999999997 298.468" stroke-linecap="round" />
</g>
		<g transform="matrix(6 0 0 6 181.2 -176.99)"  >
<path style="stroke: none; stroke-width: 1; stroke-dasharray: none; stroke-linecap: butt; stroke-dashoffset: 0; stroke-linejoin: miter; stroke-miterlimit: 4; fill: rgb(240,214,183); fill-rule: nonzero; opacity: 1;" vector-effect="non-scaling-stroke"  transform=" translate(-158.26, -179.09)" d="M 171.064 175.43 C 167.69 177.612 164.912 180.291 161.637 182.673 C 154.493 183.07 150.623 182.177 145.464 178.109 C 145.563 177.811 146.059 177.91 146.059 177.513 C 153.69899999999998 180.887 163.423 176.124 171.064 175.429" stroke-linecap="round" />
</g>
		<g transform="matrix(6 0 0 6 124.41 102.7)"  >
<path style="stroke: none; stroke-width: 1; stroke-dasharray: none; stroke-linecap: butt; stroke-dashoffset: 0; stroke-linejoin: miter; stroke-miterlimit: 4; fill: rgb(129,176,196); fill-rule: nonzero; opacity: 1;" vector-effect="non-scaling-stroke"  transform=" translate(-148.79, -225.74)" d="M 131.175 227.324 C 133.25900000000001 218.294 141.495 213.532 148.936 208.57100000000003 C 156.576 218.29500000000002 161.24 230.79700000000003 166.4 242.90200000000004 C 154.195 239.23100000000005 141.792 233.37700000000004 131.175 227.32400000000004" stroke-linecap="round" />
</g>
		<g transform="matrix(6 0 0 6 67.55 -196.88)"  >
<path style="stroke: none; stroke-width: 1; stroke-dasharray: none; stroke-linecap: butt; stroke-dashoffset: 0; stroke-linejoin: miter; stroke-miterlimit: 4; fill: rgb(35,31,32); fill-rule: nonzero; opacity: 1;" vector-effect="non-scaling-stroke"  transform=" translate(-139.23, -175.64)" d="M 173.842 299.659 C 173.544 307.101 174.536 318.909 174.93300000000002 326.747 C 179.895 326.747 181.978 325.656 185.65000000000003 324.46500000000003 C 186.04700000000003 315.336 182.77200000000005 306.90200000000004 181.78000000000003 298.567 C 179.79500000000002 297.873 176.22300000000004 299.758 173.84200000000004 299.659 z M 97.24 257.588 C 100.515 287.454 105.178 312.458 113.81 338.952 C 132.961 344.806 155.981 345.302 172.949 340.043 C 169.87300000000002 325.16 171.163 307.002 169.377 291.026 C 167.98700000000002 279.02 168.68200000000002 267.014 166.797 254.80900000000003 C 146.257 250.54300000000003 117.28399999999999 253.81700000000004 97.24 257.588 z M 171.659 255.008 C 171.45999999999998 267.808 172.254 280.50800000000004 173.24699999999999 293.308 C 178.207 292.614 181.48199999999997 292.118 186.047 291.026 C 184.558 278.72200000000004 184.757 264.732 181.68099999999998 253.817 C 178.20799999999997 253.917 175.13099999999997 253.817 171.659 255.007 z M 196.564 252.924 C 194.183 252.428 191.504 252.924 189.321 252.924 C 190.412 263.343 192.893 274.853 193.786 285.867 C 197.25900000000001 285.966 199.144 284.279 202.022 283.783 C 202.22 274.158 201.22799999999998 260.862 196.564 252.924 z M 234.369 287.454 C 241.712 285.668 246.276 276.738 244.192 267.51 C 242.803 261.358 240.422 249.64999999999998 237.74200000000002 245.68 C 235.85700000000003 242.803 230.598 238.933 226.33200000000002 241.612 C 219.485 245.978 207.479 247.268 202.51800000000003 252.527 C 204.99800000000002 260.86199999999997 205.79200000000003 272.174 206.78400000000002 282.691 C 215.318 283.188 225.73600000000002 280.311 232.88100000000003 283.38599999999997 C 227.91900000000004 284.974 221.56900000000002 284.974 217.30200000000002 287.35499999999996 C 220.87400000000002 289.042 229.01100000000002 288.74499999999995 234.36900000000003 287.455 z M 166.301 242.90200000000002 C 161.141 230.79700000000003 156.47799999999998 218.29500000000002 148.837 208.57100000000003 C 141.39499999999998 213.53100000000003 133.259 218.29500000000002 131.076 227.324 C 141.792 233.377 154.196 239.23100000000002 166.301 242.90200000000002 z M 179.00099999999998 205.495 C 178.50499999999997 217.6 177.11599999999999 233.476 173.94099999999997 242.902 C 181.58099999999996 233.07899999999998 187.83299999999997 221.767 194.28199999999998 210.654 C 191.504 206.189 185.749 202.319 179.00199999999998 205.494 z M 164.61399999999998 200.435 C 161.736 200.136 159.25599999999997 203.808 155.48499999999999 202.22 C 154.59199999999998 203.212 153.79799999999997 204.205 152.90499999999997 205.197 C 161.23999999999998 215.317 165.10999999999999 229.607 171.55999999999997 241.414 C 175.033 230.004 174.63599999999997 217.6 175.42999999999998 205.197 C 170.66699999999997 205.395 167.98799999999997 200.732 164.61399999999998 200.434 z M 155.38599999999997 188.229 C 155.08799999999997 191.70200000000003 155.88199999999998 192.794 156.57599999999996 196.763 C 167.88799999999998 200.335 166.00299999999996 181.184 155.38599999999997 188.229 z M 142.78399999999996 184.062 C 137.92199999999997 181.382 130.57999999999996 178.50500000000002 124.22899999999996 177.315 C 116.39099999999996 175.826 117.18399999999995 188.031 117.48199999999996 195.275 C 117.77999999999996 201.029 120.75699999999996 207.082 122.04699999999995 210.952 C 122.64199999999995 212.738 122.83999999999996 214.623 124.32899999999995 215.02 C 127.00799999999995 215.616 135.93799999999996 212.143 138.41899999999995 210.75300000000001 C 143.77699999999996 207.876 147.94399999999996 203.21300000000002 152.50899999999996 200.037 C 152.60799999999995 198.549 152.60799999999995 196.961 152.70699999999997 195.473 C 149.92899999999997 194.08300000000003 146.85299999999995 193.191 142.78399999999996 192.99300000000002 C 145.46399999999997 191.60300000000004 149.53199999999995 191.60300000000004 152.01199999999997 190.01600000000002 C 152.01199999999997 189.42000000000002 152.01199999999997 188.82500000000002 152.11199999999997 188.229 C 147.54699999999997 187.733 145.85999999999996 185.74900000000002 142.78399999999996 184.062 z M 96.14899999999997 175.62800000000001 C 92.08099999999997 179.79500000000002 107.55899999999997 185.352 112.42199999999997 185.65 C 112.42199999999997 183.07 113.90999999999997 180.59 113.61199999999997 178.704 C 107.75799999999997 177.71200000000002 100.11799999999997 178.406 96.14899999999997 175.62800000000001 z M 146.15899999999996 177.513 C 146.15899999999996 177.91 145.66199999999995 177.811 145.56299999999996 178.109 C 150.82199999999995 182.17700000000002 154.69099999999997 183.06900000000002 161.73599999999996 182.673 C 164.91199999999995 180.391 167.78899999999996 177.613 171.16299999999995 175.429 C 163.42299999999994 176.124 153.69899999999996 180.887 146.15799999999996 177.513 z M 192 191.405 C 191.802 186.84 190.61 177.414 187.733 175.727 C 181.78 172.254 171.262 182.772 166.797 184.36 C 167.293 185.74900000000002 168.087 186.84 168.186 188.626 C 170.866 187.93200000000002 174.04000000000002 188.428 176.322 189.519 C 173.643 189.817 170.766 189.817 168.98 191.107 C 168.384 192.992 169.178 195.473 168.682 198.053 C 174.933 199.839 182.177 200.732 190.11499999999998 201.029 C 191.60299999999998 199.045 192.19799999999998 195.274 191.99999999999997 191.405 z M 89.302 179.597 C 88.012 178.704 79.38000000000001 167.491 78.18900000000001 167.98700000000002 C 62.611000000000004 174.14000000000001 48.025000000000006 184.75700000000003 35.02600000000001 194.877 C 47.42900000000001 221.56900000000002 52.49000000000001 254.214 53.38300000000001 285.668 C 67.57300000000001 292.31600000000003 80.07400000000001 301.94100000000003 99.423 302.933 C 97.141 287.157 95.157 272.967 93.867 258.08299999999997 C 89.00500000000001 255.99999999999997 82.059 258.183 77.495 257.48799999999994 C 77.495 252.03099999999995 84.44 255.10699999999994 85.03500000000001 251.43599999999995 C 85.433 248.65699999999995 81.165 248.45899999999995 82.555 244.09299999999996 C 86.12700000000001 245.38299999999995 88.012 248.25999999999996 91.783 249.35199999999998 C 95.256 241.81099999999998 91.783 228.41599999999997 92.279 222.06499999999997 C 92.37899999999999 220.87499999999997 92.874 215.51599999999996 95.553 216.40899999999996 C 97.935 217.20299999999997 95.454 230.79699999999997 95.65299999999999 236.74999999999997 C 95.85099999999998 242.30699999999996 94.958 247.56599999999997 97.24 251.03899999999996 C 115.895 248.45899999999995 134.84699999999998 246.87099999999995 155.088 246.27599999999995 C 150.623 244.39099999999996 145.364 242.60499999999996 139.60899999999998 239.32999999999996 C 136.43399999999997 237.54399999999995 126.61099999999998 233.87299999999996 125.71799999999998 230.89599999999996 C 124.22899999999997 226.13299999999995 129.48799999999997 223.65299999999996 130.38099999999997 219.58399999999995 C 120.95499999999997 224.74399999999994 119.16899999999997 214.62399999999994 116.88699999999997 207.57799999999995 C 114.90199999999997 201.12799999999996 113.71199999999997 196.26699999999994 113.21599999999997 192.59499999999994 C 104.97999999999996 188.42799999999994 96.24799999999996 184.55799999999994 89.30199999999996 179.59699999999995 z M 183.764 169.27700000000002 C 196.763 163.02700000000002 199.144 192.794 193.984 202.419 C 194.77800000000002 205.29600000000002 197.45700000000002 206.388 198.549 208.967 C 191.305 221.966 183.269 234.07100000000003 175.82600000000002 246.871 C 181.28400000000002 243.398 189.22200000000004 246.276 195.67100000000002 243.696 C 198.05300000000003 242.803 199.74 237.346 201.526 232.98 C 206.48600000000002 221.07299999999998 211.64600000000002 205.98999999999998 213.929 194.68 C 214.425 192.1 215.913 186.443 215.516 184.161 C 214.921 179.994 209.364 176.918 206.486 174.437 C 201.22799999999998 169.674 197.953 165.607 192.396 161.14100000000002 C 190.313 164.41600000000003 185.54999999999998 166.598 183.76399999999998 169.27800000000002 z M 59.634000000000015 54.07700000000001 C 53.48200000000001 60.924000000000014 54.77200000000001 73.62500000000001 55.46700000000001 82.75300000000001 C 66.67900000000002 75.70900000000002 81.46400000000001 83.34900000000002 81.364 95.25600000000001 C 86.72200000000001 95.15600000000002 83.349 88.60800000000002 82.357 84.34100000000001 C 79.181 70.549 87.715 55.665000000000006 82.753 43.06400000000001 C 73.129 43.857000000000006 65.28999999999999 47.727000000000004 59.634 54.078 z M 103.888 14.487000000000009 C 89.89800000000001 18.45600000000001 71.938 28.67600000000001 66.183 41.27700000000001 C 70.64800000000001 40.583000000000006 73.724 38.400000000000006 78.09 38.10200000000001 C 79.777 38.003000000000014 81.96000000000001 38.79700000000001 83.845 38.30100000000001 C 87.615 37.30900000000001 90.89 28.77500000000001 93.767 25.60000000000001 C 96.54599999999999 22.524000000000008 99.919 21.13500000000001 102.202 18.357000000000006 C 103.69 17.662000000000006 105.872 17.662000000000006 105.972 15.479000000000006 C 105.377 14.784000000000006 104.68199999999999 14.289000000000007 103.88799999999999 14.487000000000005 z M 176.818 18.25700000000001 C 162.233 10.02200000000001 137.625 3.870000000000008 122.14600000000002 11.609000000000009 C 109.64300000000001 17.86000000000001 92.77600000000001 28.17900000000001 87.02000000000001 41.17900000000001 C 92.37800000000001 53.77900000000001 85.433 65.28900000000002 84.936 78.089 C 84.73800000000001 84.93599999999999 88.11200000000001 90.791 88.409 98.233 C 86.524 101.309 80.96700000000001 101.60600000000001 77.09800000000001 101.408 C 75.808 94.858 73.52600000000001 87.516 66.77800000000002 86.72200000000001 C 57.25300000000002 85.63100000000001 50.20800000000002 93.569 49.81100000000002 101.805 C 49.31500000000002 111.52900000000001 57.25300000000002 127.60300000000001 68.56400000000002 126.512 C 72.93000000000002 126.115 74.02200000000002 121.749 78.78400000000002 121.749 C 81.36400000000002 126.90899999999999 74.81600000000002 128.49599999999998 74.12100000000002 132.167 C 73.92200000000003 133.16 74.61700000000002 136.831 75.11300000000003 138.617 C 77.19700000000003 147.051 81.76100000000002 158.065 86.22600000000003 164.515 C 91.98100000000002 172.75 103.19400000000003 173.94099999999997 115.29900000000004 174.73499999999999 C 117.48200000000003 170.071 125.42000000000003 170.468 130.57900000000004 171.659 C 124.32900000000004 169.179 118.57400000000004 163.225 113.81100000000004 157.96599999999998 C 108.35300000000004 151.91299999999998 102.79700000000004 145.46399999999997 102.49900000000004 137.52599999999998 C 112.91800000000003 151.91299999999998 121.45100000000004 164.515 140.30400000000003 170.86599999999999 C 154.59200000000004 175.628 171.26200000000003 168.682 182.27600000000004 160.94299999999998 C 186.84000000000003 157.767 189.51900000000003 152.60799999999998 192.79400000000004 148.04299999999998 C 204.89900000000003 130.57999999999998 210.55500000000004 105.77299999999997 209.36400000000003 81.66199999999998 C 208.86800000000002 71.73999999999998 208.86800000000002 61.81699999999998 205.49400000000003 55.16899999999998 C 202.02200000000002 48.222999999999985 190.21400000000003 41.87299999999998 183.26800000000003 48.222999999999985 C 181.97800000000004 41.37699999999998 189.02300000000002 37.20899999999999 197.25800000000004 39.68999999999998 C 191.40500000000003 32.04999999999998 185.25300000000004 23.019999999999982 176.81800000000004 18.256999999999984 z M 204.006 242.60500000000002 C 215.417 236.949 236.651 227.42300000000003 243.696 242.60500000000002 C 246.376 248.26000000000002 249.451 257.687 250.74099999999999 263.541 C 252.62599999999998 271.678 248.65699999999998 288.943 240.22299999999998 291.621 C 232.78099999999998 294.003 224.14899999999997 293.904 215.219 292.118 C 214.12699999999998 291.225 213.036 289.736 212.143 288.14799999999997 C 205.793 287.95 199.74 288.44699999999995 194.778 291.126 C 195.274 295.888 192.099 296.58299999999997 189.023 297.57599999999996 C 186.84 306.40599999999995 193.488 317.91599999999994 191.901 325.854 C 190.809 331.609 183.764 332.502 178.60500000000002 333.49399999999997 C 178.406 336.66999999999996 178.80300000000003 339.349 179.20000000000002 342.02799999999996 C 178.01000000000002 346.39399999999995 172.75000000000003 348.87399999999997 167.69000000000003 349.46999999999997 C 151.12000000000003 351.45399999999995 126.01600000000002 352.347 110.14000000000003 346.592 C 105.67400000000004 335.678 102.20200000000003 322.481 98.53000000000003 310.078 C 83.05100000000003 311.76399999999995 70.45000000000003 303.429 58.64200000000003 297.873 C 54.574000000000034 295.988 48.918000000000035 294.896 47.330000000000034 291.622 C 45.842000000000034 288.447 46.43700000000003 282.394 46.040000000000035 276.738 C 45.147000000000034 262.152 44.25400000000003 248.062 40.48400000000004 233.178 C 38.79700000000004 226.43099999999998 35.72100000000004 220.577 33.637000000000036 214.128 C 31.653000000000034 208.17399999999998 28.279000000000035 200.73199999999997 27.386000000000035 194.778 C 26.096000000000036 185.94799999999998 34.43100000000003 185.451 39.69000000000003 181.581 C 47.92600000000003 175.628 54.375000000000036 172.35299999999998 63.305000000000035 166.99499999999998 C 65.98500000000004 165.408 73.92200000000004 161.43899999999996 74.81500000000004 159.55299999999997 C 76.60200000000005 155.88299999999998 71.74000000000004 150.72299999999996 70.45000000000005 147.84499999999997 C 68.36600000000004 143.28099999999998 67.27400000000004 139.41099999999997 66.97700000000005 134.94499999999996 C 59.535000000000046 133.75499999999997 53.780000000000044 129.28999999999996 50.407000000000046 124.32899999999997 C 44.75000000000004 115.99399999999997 40.78100000000005 100.61399999999996 45.743000000000045 89.00499999999997 C 46.14000000000004 88.11199999999997 48.02500000000005 86.22599999999997 48.32300000000004 84.83699999999996 C 48.91800000000004 82.05899999999995 47.231000000000044 78.38699999999996 47.13200000000004 75.41099999999996 C 46.63600000000004 60.22899999999996 49.71200000000004 47.13099999999996 59.932000000000045 42.56699999999996 C 64.09900000000005 25.996999999999957 78.98200000000004 20.539999999999957 92.97400000000005 12.303999999999956 C 98.23300000000005 9.227999999999955 103.98800000000004 7.243999999999956 109.94100000000005 5.059999999999956 C 131.27400000000006 -2.778000000000044 164.11800000000005 -1.2900000000000436 181.87900000000005 12.104999999999956 C 189.42000000000004 17.760999999999957 201.42600000000004 29.766999999999953 205.69300000000004 38.49899999999995 C 217.10300000000004 61.41999999999995 216.21100000000004 99.81999999999995 208.27300000000005 127.80199999999995 C 207.18100000000004 131.57199999999995 205.69300000000004 137.02899999999994 203.51000000000005 141.59399999999994 C 202.02200000000005 144.76899999999995 197.35800000000006 151.01999999999992 197.85400000000004 153.79799999999994 C 198.45000000000005 156.67599999999993 208.57100000000005 164.31599999999995 210.75400000000005 166.39999999999995 C 214.62400000000005 170.16999999999996 222.06500000000005 175.13199999999995 222.66000000000005 179.89499999999995 C 223.35500000000005 184.95499999999996 220.47800000000007 191.90099999999995 218.99000000000007 196.76299999999995 C 214.22600000000006 213.03599999999994 209.46400000000006 228.01899999999995 204.00600000000006 242.60499999999996 z" stroke-linecap="round" />
</g>
		<g transform="matrix(6 0 0 6 25.53 -443.73)"  >
<path style="stroke: none; stroke-width: 1; stroke-dasharray: none; stroke-linecap: butt; stroke-dashoffset: 0; stroke-linejoin: miter; stroke-miterlimit: 4; fill: rgb(247,228,205); fill-rule: nonzero; opacity: 1;" vector-effect="non-scaling-stroke"  transform=" translate(-132.3, -134.6)" d="M 128.1 129.885 C 128.695 129.09099999999998 132.06799999999998 127.80199999999999 136.831 130.084 C 136.831 130.084 131.17499999999998 130.977 131.671 140.404 L 129.29 139.90699999999998 C 129.39 140.00699999999998 126.90899999999999 131.47299999999998 128.1 129.885" stroke-linecap="round" />
</g>
		<g transform="matrix(6 0 0 6 238.86 47.04)"  >
<path style="stroke: none; stroke-width: 1; stroke-dasharray: none; stroke-linecap: butt; stroke-dashoffset: 0; stroke-linejoin: miter; stroke-miterlimit: 4; fill: rgb(29,25,25); fill-rule: nonzero; opacity: 1;" vector-effect="non-scaling-stroke"  transform=" translate(-167.89, -216.46)" d="M 169.178 210.456 C 169.178 211.845 167.988 213.036 166.59799999999998 213.036 C 165.20899999999997 213.036 164.01799999999997 211.845 164.01799999999997 210.456 C 164.01799999999997 209.066 165.20899999999997 207.87599999999998 166.59799999999998 207.87599999999998 C 168.087 207.87599999999998 169.178 209.06599999999997 169.178 210.456 M 171.758 222.462 C 171.758 223.85199999999998 170.568 225.042 169.178 225.042 C 167.789 225.042 166.59799999999998 223.852 166.59799999999998 222.462 C 166.59799999999998 221.072 167.789 219.88199999999998 169.178 219.88199999999998 C 170.667 219.88199999999998 171.758 220.974 171.758 222.462" stroke-linecap="round" />
</g>
		<g transform="matrix(6 0 0 6 0.9 1101.53)"  >
<path style="stroke: none; stroke-width: 1; stroke-dasharray: none; stroke-linecap: butt; stroke-dashoffset: 0; stroke-linejoin: miter; stroke-miterlimit: 4; fill: rgb(35,31,32); fill-rule: nonzero; opacity: 1;" vector-effect="non-scaling-stroke"  transform=" translate(-128.1, -392.34)" d="M 36.614 374.276 C 35.82 374.37600000000003 35.126 374.474 34.529999999999994 374.574 C 33.934999999999995 374.673 33.339999999999996 374.772 32.54599999999999 374.971 C 31.65299999999999 375.169 31.15599999999999 375.56600000000003 30.95799999999999 376.161 C 30.75999999999999 376.757 30.560999999999993 377.351 30.560999999999993 378.146 L 30.560999999999993 402.356 C 30.560758456835796 404.4847091314251 30.08626438824295 406.5866256210232 29.171999999999997 408.509 C 28.278999999999993 410.394 27.087999999999994 411.882 25.500999999999994 413.172 C 23.912999999999993 414.362 22.126999999999995 415.355 20.142999999999994 415.95000000000005 C 18.157999999999994 416.54600000000005 16.073999999999995 416.94300000000004 13.890999999999995 416.94300000000004 C 10.020999999999994 416.94300000000004 6.945999999999994 416.05000000000007 4.563999999999995 414.16400000000004 C 2.182999999999995 412.27900000000005 0.9919999999999947 409.79800000000006 0.9919999999999947 406.52400000000006 C 0.9919999999999947 404.63900000000007 1.4879999999999947 403.05100000000004 2.5799999999999947 401.7610000000001 C 3.670999999999995 400.47100000000006 5.159999999999995 399.8760000000001 7.044999999999995 399.8760000000001 C 8.830999999999994 399.8760000000001 10.219999999999995 400.37200000000007 11.311999999999994 401.4640000000001 C 12.402999999999993 402.5550000000001 12.898999999999994 403.8450000000001 12.898999999999994 405.3340000000001 C 12.898999999999994 406.62400000000014 12.402999999999993 407.9140000000001 11.509999999999994 409.00400000000013 C 10.616999999999994 410.0960000000001 9.525999999999994 411.18800000000016 8.334999999999994 412.08100000000013 L 8.334999999999994 412.4780000000001 C 8.532999999999994 412.87400000000014 8.929999999999994 413.27100000000013 9.524999999999993 413.56900000000013 C 10.120999999999993 413.86700000000013 10.814999999999994 413.9660000000001 11.410999999999992 413.9660000000001 C 13.890999999999993 413.9660000000001 15.875999999999992 413.07300000000015 17.264999999999993 411.2860000000001 C 18.654999999999994 409.5010000000001 19.348999999999993 406.8220000000001 19.348999999999993 403.2500000000001 L 19.348999999999993 378.4430000000001 C 19.348999999999993 377.7490000000001 19.24899999999999 377.0540000000001 19.050999999999995 376.5580000000001 C 18.852999999999994 376.0620000000001 18.256999999999994 375.66500000000013 17.363999999999994 375.2680000000001 C 16.768999999999995 374.97100000000006 15.974999999999994 374.7720000000001 15.081999999999994 374.57400000000007 C 14.188999999999993 374.37500000000006 13.494999999999994 374.27600000000007 12.898999999999994 374.1770000000001 L 12.898999999999994 371.7950000000001 L 36.315999999999995 371.7950000000001 L 36.315999999999995 374.27600000000007 L 36.614 374.27600000000007 z M 73.327 408.41 C 72.633 409.6 71.74 410.69100000000003 70.747 411.783 C 69.755 412.874 68.564 413.668 67.274 414.462 C 65.885 415.256 64.496 415.852 63.107 416.248 C 61.717 416.645 60.031 416.843 58.245 416.843 C 55.169 416.843 52.589 416.447 50.306999999999995 415.553 C 48.123999999999995 414.66 46.239 413.569 44.849999999999994 412.081 C 43.361 410.59200000000004 42.36899999999999 408.90500000000003 41.574999999999996 406.921 C 40.851618989982214 404.8475439817384 40.48278906814053 402.667018779283 40.483999999999995 400.471 C 40.483999999999995 398.388 40.88099999999999 396.30400000000003 41.67399999999999 394.419 C 42.46799999999999 392.53299999999996 43.559999999999995 390.74699999999996 44.94899999999999 389.25899999999996 C 46.33799999999999 387.77099999999996 48.12399999999999 386.57899999999995 50.30699999999999 385.68699999999995 C 52.57438500656483 384.7604881053837 55.0016364132655 384.2882205444494 57.45099999999998 384.29699999999997 C 60.328999999999986 384.29699999999997 62.710999999999984 384.695 64.59499999999998 385.38899999999995 C 66.48099999999998 386.08399999999995 67.96899999999998 387.07599999999996 69.15999999999998 388.26699999999994 C 70.34999999999998 389.45699999999994 71.14399999999998 390.8469999999999 71.73999999999998 392.4339999999999 C 72.23599999999998 394.02199999999993 72.53299999999999 395.7089999999999 72.53299999999999 397.4939999999999 L 72.53299999999999 399.4789999999999 L 51.597 399.4789999999999 C 51.597 403.7459999999999 52.391 406.92099999999994 54.077 409.1039999999999 C 55.665 411.2869999999999 58.344 412.37799999999993 61.817 412.37799999999993 C 63.802 412.37799999999993 65.488 411.88199999999995 67.076 410.79099999999994 C 68.66130946810888 409.7179306842715 70.01170207084132 408.33351458436766 71.04499999999999 406.7219999999999 L 73.32699999999998 408.40899999999993 z M 61.52 396.601 C 61.52 395.41 61.42100000000001 394.12 61.322 392.83 C 61.222 391.53999999999996 61.024 390.449 60.627 389.655 C 60.230000000000004 388.66299999999995 59.834 387.96799999999996 59.139 387.472 C 58.544000000000004 386.976 57.749 386.777 56.857 386.777 C 55.269 386.777 53.979 387.57099999999997 53.086999999999996 389.159 C 52.093999999999994 390.746 51.596999999999994 393.32599999999996 51.498999999999995 396.799 L 61.519999999999996 396.601 z M 117.085 415.752 L 98.431 415.752 L 98.431 413.47 C 98.828 413.47 99.324 413.37 99.821 413.271 C 100.416 413.172 100.812 413.07300000000004 101.111 412.974 C 101.507 412.775 101.805 412.378 102.003 411.981 C 102.202 411.584 102.301 410.89 102.301 410.096 L 102.301 395.61 C 102.301 393.527 101.904 391.939 101.111 390.848 C 100.316 389.75600000000003 99.22500000000001 389.26 97.637 389.26 C 96.843 389.26 96.05 389.36 95.355 389.657 C 94.66000000000001 389.85499999999996 93.965 390.252 93.271 390.748 C 92.676 391.145 92.18 391.542 91.783 392.038 C 91.386 392.435 91.08800000000001 392.832 90.89 393.228 L 90.89 409.79900000000004 C 90.89 410.494 90.99 411.08900000000006 91.188 411.58500000000004 C 91.386 412.08200000000005 91.783 412.47900000000004 92.18 412.677 C 92.47800000000001 412.875 92.87400000000001 413.074 93.37 413.173 L 94.85900000000001 413.471 L 94.85900000000001 415.753 L 76.006 415.753 L 76.006 413.471 C 76.502 413.471 76.998 413.371 77.594 413.272 C 78.08999999999999 413.173 78.586 413.074 78.98299999999999 412.97499999999997 C 79.67799999999998 412.77599999999995 80.07399999999998 412.37899999999996 80.37299999999999 411.883 C 80.57099999999998 411.387 80.76899999999999 410.792 80.76899999999999 409.998 L 80.76899999999999 391.93899999999996 C 80.76899999999999 391.34399999999994 80.571 390.64899999999994 80.273 390.054 C 79.975 389.45799999999997 79.479 388.962 78.98299999999999 388.565 C 78.58599999999998 388.367 78.189 388.069 77.59299999999999 387.96999999999997 C 76.98585017089694 387.76696165009304 76.34917379849571 387.66625593938414 75.70899999999999 387.67199999999997 L 75.70899999999999 385.39 L 90.493 384.596 L 90.98899999999999 385.092 L 90.98899999999999 389.558 L 91.08899999999998 389.558 C 91.81259553776455 388.9624280420637 92.5077010109971 388.3330622607308 93.172 387.67199999999997 C 93.9028127923475 387.03947683033863 94.66440640623068 386.44341802473156 95.45399999999998 385.88599999999997 C 96.24799999999998 385.39 97.23999999999998 384.993 98.43099999999998 384.59599999999995 C 99.62099999999998 384.19899999999996 101.01099999999998 384.09999999999997 102.39999999999998 384.09999999999997 C 105.77399999999997 384.09999999999997 108.25399999999998 385.092 109.94099999999997 386.97799999999995 C 111.62799999999997 388.86299999999994 112.42099999999998 391.4429999999999 112.42099999999998 394.61799999999994 L 112.42099999999998 409.7989999999999 C 112.42099999999998 410.5929999999999 112.52099999999997 411.1889999999999 112.71899999999998 411.5849999999999 C 112.91799999999998 412.08199999999994 113.41399999999997 412.3789999999999 114.00899999999999 412.6769999999999 C 114.30699999999999 412.77699999999993 114.70399999999998 412.9749999999999 115.19999999999999 413.0739999999999 C 115.69599999999998 413.1739999999999 116.192 413.2719999999999 116.88699999999999 413.3719999999999 L 116.88699999999999 415.7519999999999 L 117.08499999999998 415.7519999999999 z M 159.752 415.752 L 145.166 415.752 C 143.6277891238122 413.0034280188455 141.9726068586231 410.32197269424876 140.20499999999998 407.71500000000003 C 138.71599999999998 405.53200000000004 137.327 403.44800000000004 136.03699999999998 401.66200000000003 L 134.25099999999998 403.25000000000006 L 134.25099999999998 409.99700000000007 C 134.25099999999998 410.6910000000001 134.35099999999997 411.3860000000001 134.54899999999998 411.7830000000001 C 134.74699999999999 412.27900000000005 135.14399999999998 412.57700000000006 135.83899999999997 412.8740000000001 C 136.23599999999996 413.0730000000001 136.63299999999998 413.1720000000001 137.12899999999996 413.2710000000001 C 137.62499999999997 413.3710000000001 138.12099999999995 413.4700000000001 138.61699999999996 413.4700000000001 L 138.61699999999996 415.75200000000007 L 119.36699999999996 415.75200000000007 L 119.36699999999996 413.4700000000001 C 119.86399999999996 413.4700000000001 120.35999999999996 413.37000000000006 120.95499999999996 413.2710000000001 C 121.45099999999995 413.1720000000001 121.94699999999996 413.0730000000001 122.34499999999996 412.97400000000005 C 123.03899999999996 412.77500000000003 123.43499999999996 412.37800000000004 123.73299999999996 411.88200000000006 C 123.93199999999996 411.3860000000001 124.12999999999997 410.79100000000005 124.12999999999997 409.99700000000007 L 124.12999999999997 375.4670000000001 C 124.12999999999997 374.7720000000001 123.93199999999997 374.0770000000001 123.63399999999997 373.3830000000001 C 123.33599999999997 372.6880000000001 122.93999999999997 372.0930000000001 122.34399999999997 371.6960000000001 C 121.94699999999996 371.4980000000001 121.35199999999996 371.2000000000001 120.55799999999996 371.10100000000006 C 119.76399999999997 370.90200000000004 119.06999999999996 370.80300000000005 118.37499999999997 370.80300000000005 L 118.37499999999997 368.5210000000001 L 133.75499999999997 367.7270000000001 L 134.25099999999998 368.22300000000007 L 134.25099999999998 400.17300000000006 C 135.73999999999998 398.78400000000005 137.52599999999998 397.19700000000006 139.41099999999997 395.41100000000006 C 141.29599999999996 393.62500000000006 142.884 392.1360000000001 143.97499999999997 390.9460000000001 C 144.66999999999996 390.2510000000001 145.06699999999998 389.7550000000001 145.06699999999998 389.35800000000006 C 145.16599999999997 388.96100000000007 145.16599999999997 388.76300000000003 145.16599999999997 388.66400000000004 C 145.16599999999997 388.26700000000005 144.86799999999997 387.96900000000005 144.17399999999998 387.7710000000001 C 143.47899999999998 387.57200000000006 142.58599999999998 387.27400000000006 141.19699999999997 387.0760000000001 L 141.19699999999997 384.8930000000001 L 156.87399999999997 384.8930000000001 L 156.87399999999997 387.0760000000001 C 154.79099999999997 387.6710000000001 153.20399999999998 388.1670000000001 152.11199999999997 388.6640000000001 C 151.01999999999995 389.1600000000001 149.82899999999998 389.8540000000001 148.53999999999996 390.6480000000001 C 147.69622131503232 391.2196721249124 146.8688862723846 391.81524664573817 146.05899999999997 392.4340000000001 C 145.26499999999996 393.0290000000001 144.37199999999996 393.82400000000007 143.28099999999998 394.71600000000007 C 145.265 397.69300000000004 147.15099999999998 400.37200000000007 148.837 402.85300000000007 C 150.524 405.3330000000001 152.31 408.0130000000001 154.195 410.79100000000005 C 154.791 411.7830000000001 155.58499999999998 412.37800000000004 156.577 412.77500000000003 C 157.569 413.07300000000004 158.462 413.271 159.454 413.37100000000004 L 159.454 415.75100000000003 L 159.752 415.75100000000003 z M 179.597 415.752 L 160.05 415.752 L 160.05 413.47 C 160.54600000000002 413.47 161.14100000000002 413.37 161.637 413.271 C 162.13299999999998 413.172 162.629 413.07300000000004 162.927 412.974 C 163.62199999999999 412.775 164.019 412.378 164.31699999999998 411.882 C 164.61399999999998 411.386 164.71299999999997 410.791 164.71299999999997 409.997 L 164.71299999999997 391.938 C 164.71299999999997 391.243 164.51499999999996 390.548 164.21699999999996 390.053 C 163.9569812347036 389.5145428092121 163.54277385019262 389.06552808146495 163.02699999999996 388.763 C 162.62899999999996 388.56399999999996 162.13299999999995 388.267 161.33999999999995 388.068 C 160.54599999999994 387.87 159.85099999999994 387.671 159.25599999999994 387.671 L 159.25599999999994 385.389 L 174.43699999999995 384.595 L 174.93299999999996 385.091 L 174.93299999999996 409.7 C 174.93299999999996 410.395 175.13199999999998 410.99 175.42899999999997 411.585 C 175.72699999999998 412.082 176.22299999999998 412.479 176.71899999999997 412.67699999999996 C 177.11599999999996 412.87499999999994 177.61199999999997 413.07399999999996 178.10899999999995 413.17299999999994 C 178.60499999999996 413.27299999999997 179.10099999999994 413.37199999999996 179.69599999999994 413.47099999999995 L 179.69599999999994 415.75299999999993 L 179.59599999999995 415.75299999999993 z M 175.132 373.582 C 175.132 375.169 174.536 376.459 173.346 377.55 C 172.155 378.642 170.666 379.237 169.079 379.237 C 167.392 379.237 166.00300000000001 378.642 164.71300000000002 377.55 C 163.52300000000002 376.459 162.92700000000002 375.07 162.92700000000002 373.581 C 162.92700000000002 371.994 163.52200000000002 370.704 164.71300000000002 369.51300000000003 C 165.90300000000002 368.422 167.39300000000003 367.826 169.079 367.826 C 170.76600000000002 367.826 172.155 368.422 173.346 369.51300000000003 C 174.536 370.605 175.132 371.99300000000005 175.132 373.581 z M 223.355 415.752 L 204.701 415.752 L 204.701 413.47 C 205.09799999999998 413.47 205.594 413.37 206.09 413.271 C 206.685 413.172 207.082 413.07300000000004 207.38 412.974 C 207.777 412.775 208.07399999999998 412.378 208.273 411.981 C 208.471 411.584 208.571 410.89 208.571 410.096 L 208.571 395.61 C 208.571 393.527 208.174 391.939 207.38 390.848 C 206.58599999999998 389.75600000000003 205.495 389.26 203.90699999999998 389.26 C 203.11299999999997 389.26 202.319 389.36 201.62499999999997 389.657 C 200.92999999999998 389.954 200.23499999999999 390.252 199.54099999999997 390.748 C 198.94599999999997 391.145 198.44999999999996 391.542 198.05299999999997 392.038 C 197.65599999999998 392.435 197.35799999999998 392.832 197.15999999999997 393.228 L 197.15999999999997 409.79900000000004 C 197.15999999999997 410.494 197.25899999999996 411.08900000000006 197.45699999999997 411.58500000000004 C 197.65599999999998 412.08200000000005 198.05299999999997 412.47900000000004 198.44999999999996 412.677 C 198.74699999999996 412.875 199.14399999999995 413.074 199.63999999999996 413.173 L 201.12899999999996 413.471 L 201.12899999999996 415.753 L 182.27599999999995 415.753 L 182.27599999999995 413.471 C 182.77199999999996 413.471 183.26799999999994 413.371 183.86399999999995 413.272 C 184.35999999999996 413.173 184.85599999999994 413.074 185.25299999999996 412.97499999999997 C 185.94699999999995 412.77599999999995 186.34399999999997 412.37899999999996 186.64199999999997 411.883 C 186.83999999999997 411.387 187.03899999999996 410.792 187.03899999999996 409.998 L 187.03899999999996 391.93899999999996 C 187.03899999999996 391.34399999999994 186.83999999999995 390.64899999999994 186.54299999999995 390.054 C 186.24499999999995 389.45799999999997 185.74899999999994 388.962 185.25299999999996 388.565 C 184.85599999999997 388.367 184.45899999999995 388.069 183.86299999999997 387.96999999999997 C 183.25553236879765 387.7668521225212 182.61850893960204 387.66614497031946 181.97799999999998 387.67199999999997 L 181.97799999999998 385.39 L 196.76299999999998 384.596 L 197.259 385.092 L 197.259 389.558 L 197.35899999999998 389.558 C 198.08259650761232 388.9624291653399 198.77770203271268 388.3330633370445 199.44199999999998 387.67199999999997 C 200.1728127923475 387.03947683033863 200.9344064062307 386.44341802473156 201.724 385.88599999999997 C 202.518 385.39 203.51 384.993 204.701 384.59599999999995 C 205.891 384.19899999999996 207.281 384.09999999999997 208.67 384.09999999999997 C 212.04299999999998 384.09999999999997 214.524 385.092 216.20999999999998 386.97799999999995 C 217.89799999999997 388.86299999999994 218.69099999999997 391.4429999999999 218.69099999999997 394.61799999999994 L 218.69099999999997 409.7989999999999 C 218.69099999999997 410.5929999999999 218.79099999999997 411.1889999999999 218.98899999999998 411.5849999999999 C 219.188 412.08199999999994 219.68399999999997 412.3789999999999 220.27899999999997 412.6769999999999 C 220.57699999999997 412.77699999999993 220.97399999999996 412.9749999999999 221.46899999999997 413.0739999999999 C 221.96599999999998 413.1739999999999 222.46199999999996 413.2719999999999 223.15699999999995 413.3719999999999 L 223.15699999999995 415.7519999999999 L 223.35499999999996 415.7519999999999 z M 240.52 416.843 C 238.536 416.843 236.55200000000002 416.546 234.667 415.95000000000005 C 232.781 415.355 231.293 414.76000000000005 230.202 414.06500000000005 L 229.309 416.14900000000006 L 226.927 416.14900000000006 L 226.53 404.63900000000007 L 228.812 404.63900000000007 C 229.11 405.53200000000004 229.60600000000002 406.62300000000005 230.4 407.8140000000001 C 231.095 409.0040000000001 231.988 409.99700000000007 232.88 410.9890000000001 C 233.90418675403103 411.9165397456923 235.03713227929057 412.7163845118951 236.254 413.3710000000001 C 237.54399999999998 413.9660000000001 238.834 414.3630000000001 240.224 414.3630000000001 C 242.10899999999998 414.3630000000001 243.498 413.9660000000001 244.391 413.27100000000013 C 245.284 412.5770000000001 245.78 411.38600000000014 245.78 409.89800000000014 C 245.78 409.10400000000016 245.581 408.40900000000016 245.184 407.81400000000014 C 244.788 407.31800000000015 244.192 406.8220000000001 243.498 406.42400000000015 C 242.70399999999998 406.02800000000013 241.81099999999998 405.63100000000014 240.81799999999998 405.3340000000002 C 239.826 405.0360000000002 238.636 404.73800000000017 237.24699999999999 404.2420000000002 C 235.857 403.8450000000002 234.66699999999997 403.4480000000002 233.67399999999998 402.95200000000017 C 232.682 402.5550000000002 231.59099999999998 401.8600000000002 230.59799999999998 400.96700000000016 C 229.70499999999998 400.17400000000015 228.91199999999998 399.18100000000015 228.416 398.09000000000015 C 227.82 396.99800000000016 227.62199999999999 395.6100000000001 227.62199999999999 394.02200000000016 C 227.62199999999999 391.1440000000002 228.81199999999998 388.76200000000017 231.29299999999998 386.97700000000015 C 233.77299999999997 385.19100000000014 236.94899999999998 384.29700000000014 240.91799999999998 384.29700000000014 C 242.80299999999997 384.29700000000014 244.48999999999998 384.4970000000001 246.07799999999997 384.89300000000014 C 247.66499999999996 385.29000000000013 248.95499999999998 385.6870000000001 250.04699999999997 386.18300000000016 L 250.74099999999996 384.39700000000016 L 253.12199999999996 384.39700000000016 L 253.61899999999997 394.9150000000002 L 251.43599999999998 394.9150000000002 C 250.74099999999999 392.7320000000002 249.45099999999996 390.94500000000016 247.76399999999998 389.3580000000002 C 245.97799999999998 387.7710000000002 244.093 386.9770000000002 242.10899999999998 386.9770000000002 C 240.521 386.9770000000002 239.231 387.2740000000002 238.338 387.9690000000002 C 237.445 388.6640000000002 236.948 389.55700000000024 236.948 390.74700000000024 C 236.948 392.33500000000026 237.643 393.42700000000025 238.93300000000002 394.12100000000027 C 240.223 394.81600000000026 242.109 395.51100000000025 244.49 396.10500000000025 C 248.161 397.09800000000024 250.84 398.38800000000026 252.626 399.97500000000025 C 254.31300000000002 401.66200000000026 255.20600000000002 403.74500000000023 255.20600000000002 406.2260000000002 C 255.20600000000002 409.60000000000025 253.91600000000003 412.2790000000002 251.23700000000002 414.0660000000002 C 248.26000000000002 415.8510000000002 244.78700000000003 416.8430000000002 240.52100000000002 416.8430000000002 z" stroke-linecap="round" />
</g>
</g>
</g>
</svg>