<?xml version="1.0" encoding="UTF-8" standalone="no" ?>
<!DOCTYPE svg PUBLIC "-//W3C//DTD SVG 1.1//EN" "http://www.w3.org/Graphics/SVG/1.1/DTD/svg11.dtd">
<svg xmlns="http://www.w3.org/2000/svg" xmlns:xlink="http://www.w3.org/1999/xlink" version="1.1" width="1080" height="1080" viewBox="0 0 1080 1080" xml:space="preserve">
<desc>Created with Fabric.js 5.2.4</desc>
<defs>
</defs>
<rect x="0" y="0" width="100%" height="100%" fill="transparent"></rect>
<g transform="matrix(1 0 0 1 540 540)" id="bdffcd9d-ecaa-41c3-9762-2a9583f0442d"  >
</g>
<g transform="matrix(1 0 0 1 540 540)" id="2073f9a8-83b0-4d12-994c-23d3b447b61e"  >
<rect style="stroke: none; stroke-width: 1; stroke-dasharray: none; stroke-linecap: butt; stroke-dashoffset: 0; stroke-linejoin: miter; stroke-miterlimit: 4; fill: rgb(255,255,255); fill-rule: nonzero; opacity: 1; visibility: hidden;" vector-effect="non-scaling-stroke"  x="-540" y="-540" rx="0" ry="0" width="1080" height="1080" />
</g>
<g transform="matrix(1 0 0 1 540 540)"  >
<rect style="stroke: none; stroke-width: 1; stroke-dasharray: none; stroke-linecap: butt; stroke-dashoffset: 0; stroke-linejoin: miter; stroke-miterlimit: 4; fill: rgb(255,255,255); fill-rule: nonzero; opacity: 1; visibility: hidden;" vector-effect="non-scaling-stroke"  x="-250" y="-250" rx="0" ry="0" width="500" height="500" />
</g>
<g transform="matrix(0.46 0 0 0.46 540 540)"  >
<rect style="stroke: none; stroke-width: 1; stroke-dasharray: none; stroke-linecap: butt; stroke-dashoffset: 0; stroke-linejoin: miter; stroke-miterlimit: 4; fill: rgb(255,255,255); fill-rule: nonzero; opacity: 1; visibility: hidden;" vector-effect="non-scaling-stroke"  x="-540" y="-540" rx="0" ry="0" width="1080" height="1080" />
</g>
<g transform="matrix(10.1 0 0 10.1 546.7 560.87)"  >
<path style="stroke: none; stroke-width: 1; stroke-dasharray: none; stroke-linecap: butt; stroke-dashoffset: 0; stroke-linejoin: miter; stroke-miterlimit: 4; fill: rgb(255,255,255); fill-rule: nonzero; opacity: 1;" vector-effect="non-scaling-stroke"  transform=" translate(-48, -48)" d="M 44 2.30935 C 46.4752 0.880283 49.5248 0.880284 52 2.30935 L 85.5692 21.6905 C 88.0444 23.1196 89.5692 25.7606 89.5692 28.6187 L 89.5692 67.3811 C 89.5692 70.2393 88.0444 72.8803 85.5692 74.3093 L 52 93.6905 C 49.5248 95.1196 46.4752 95.1196 44 93.6905 L 10.4308 74.3093 C 7.95558 72.8803 6.43079 70.2393 6.43079 67.3811 L 6.43079 28.6187 C 6.43079 25.7606 7.95558 23.1196 10.4308 21.6905 L 44 2.30935 Z" stroke-linecap="round" />
</g>
<g transform="matrix(10.1 0 0 10.1 557.75 560.88)"  >
<path style="stroke: none; stroke-width: 1; stroke-dasharray: none; stroke-linecap: butt; stroke-dashoffset: 0; stroke-linejoin: miter; stroke-miterlimit: 4; fill: rgb(96,210,91); fill-rule: evenodd; opacity: 1;" vector-effect="non-scaling-stroke"  transform=" translate(-47.95, -48)" d="M 84.1907 22.9024 L 51.5701 4.06896 C 49.3322 2.77689 46.575 2.77689 44.337 4.06896 L 11.7165 22.9024 C 9.47853 24.1945 8.09991 26.5824 8.09991 29.1665 L 8.09991 66.8335 C 8.09991 69.4176 9.47853 71.8055 11.7165 73.0975 L 44.337 91.931 C 46.575 93.2231 49.3322 93.2231 51.5701 91.931 L 84.1907 73.0975 C 86.4286 71.8055 87.8072 69.4176 87.8072 66.8335 L 87.8072 29.1665 C 87.8072 26.5824 86.4286 24.1945 84.1907 22.9024 Z M 53.1201 1.38436 C 49.923 -0.461454 45.9841 -0.461455 42.7871 1.38436 L 10.1665 20.2178 C 6.96946 22.0637 5 25.4749 5 29.1665 L 5 66.8335 C 5 70.5251 6.96946 73.9363 10.1665 75.7821 L 42.7871 94.6156 C 45.9841 96.4614 49.923 96.4614 53.1201 94.6156 L 85.7406 75.7821 C 88.9377 73.9363 90.9071 70.5251 90.9071 66.8335 L 90.9071 29.1665 C 90.9071 25.4749 88.9377 22.0637 85.7406 20.2178 L 53.1201 1.38436 Z" stroke-linecap="round" />
</g>
<g transform="matrix(10.1 0 0 10.1 582.26 652.91)"  >
<path style="stroke: none; stroke-width: 1; stroke-dasharray: none; stroke-linecap: butt; stroke-dashoffset: 0; stroke-linejoin: miter; stroke-miterlimit: 4; fill: rgb(255,255,255); fill-rule: evenodd; opacity: 1;" vector-effect="non-scaling-stroke"  transform=" translate(-51.56, -57.19)" d="M 53.713 62.196 L 53.713 66.8892 C 54.476 67.2803 55.3783 67.5736 56.4201 67.7692 C 57.4618 67.9647 58.5597 68.0625 59.714 68.0625 C 60.8389 68.0625 61.9074 67.955 62.9198 67.7398 C 63.9322 67.5248 64.82 67.1703 65.5829 66.6765 C 66.3458 66.1828 66.9499 65.5374 67.3949 64.7406 C 67.8399 63.9437 68.0625 62.9587 68.0625 61.7854 C 68.0625 60.9347 67.9354 60.1892 67.681 59.5488 C 67.4267 58.9084 67.0599 58.3388 66.5806 57.8402 C 66.1013 57.3415 65.5267 56.8942 64.8566 56.4982 C 64.1866 56.1022 63.431 55.7282 62.5897 55.3762 C 61.9735 55.122 61.4209 54.8752 60.9318 54.6356 C 60.4427 54.396 60.027 54.1516 59.6846 53.9023 C 59.3422 53.6529 59.0782 53.3889 58.8923 53.1103 C 58.7065 52.8316 58.6135 52.5163 58.6135 52.1643 C 58.6135 51.8417 58.6967 51.5508 58.863 51.2917 C 59.0293 51.0325 59.2641 50.8102 59.5673 50.6243 C 59.8705 50.4386 60.2422 50.2943 60.6823 50.1917 C 61.1226 50.089 61.6116 50.0377 62.1496 50.0377 C 62.5408 50.0377 62.9541 50.0671 63.3893 50.1257 C 63.8246 50.1844 64.2623 50.2748 64.7026 50.397 C 65.1428 50.5192 65.5706 50.6733 65.9864 50.859 C 66.4021 51.0448 66.786 51.2599 67.1381 51.5044 L 67.1381 47.1191 C 66.4241 46.8454 65.644 46.6425 64.7979 46.5105 C 63.9518 46.3785 62.981 46.3125 61.8855 46.3125 C 60.7703 46.3125 59.714 46.4323 58.7163 46.6718 C 57.7186 46.9114 56.8407 47.2853 56.0826 47.7938 C 55.3245 48.3023 54.7254 48.95 54.2853 49.7371 C 53.8451 50.5241 53.625 51.4652 53.625 52.5603 C 53.625 53.9585 54.0285 55.1513 54.8355 56.1389 C 55.6424 57.1264 56.8675 57.9623 58.5109 58.6468 C 59.1564 58.9108 59.758 59.1698 60.3156 59.4241 C 60.8731 59.6783 61.3549 59.9423 61.7607 60.2161 C 62.1667 60.4898 62.487 60.7881 62.7218 61.1107 C 62.9566 61.4333 63.074 61.8 63.074 62.2107 C 63.074 62.5138 63.0006 62.7949 62.8538 63.054 C 62.7071 63.3131 62.4846 63.5379 62.1863 63.7286 C 61.8879 63.9193 61.5162 64.0684 61.0712 64.1759 C 60.6261 64.2835 60.1053 64.3373 59.5086 64.3373 C 58.4913 64.3373 57.4838 64.1588 56.4861 63.8019 C 55.4884 63.4451 54.564 62.9098 53.713 62.196 L 53.713 62.196 Z M 45.8231 50.6327 L 51.8438 50.6327 L 51.8438 46.7812 L 35.0625 46.7812 L 35.0625 50.6327 L 41.0537 50.6327 L 41.0537 67.7812 L 45.8231 67.7812 L 45.8231 50.6327 Z" stroke-linecap="round" />
</g>
<g transform="matrix(4.88 0 0 4.88 563.76 559.77)" id="9ec72e54-00e8-4d5e-beeb-b25db848dff4"  >
<path style="stroke: rgb(0,0,0); stroke-width: 0; stroke-dasharray: none; stroke-linecap: butt; stroke-dashoffset: 0; stroke-linejoin: miter; stroke-miterlimit: 4; fill: rgb(131,205,41); fill-rule: nonzero; opacity: 1;" vector-effect="non-scaling-stroke"  transform=" translate(-63.5, -64)" d="M 112.678 30.334 L 68.535 4.728999999999999 C 65.75399999999999 3.144999999999999 62.111 3.144999999999999 59.30799999999999 4.728999999999999 L 14.819999999999993 30.334 C 11.950999999999993 31.985 9.999999999999993 35.088 9.999999999999993 38.407 L 9.999999999999993 89.549 C 9.999999999999993 92.86800000000001 11.991999999999994 95.97200000000001 14.861999999999993 97.632 L 26.590999999999994 104.32000000000001 C 32.217999999999996 107.09200000000001 33.776999999999994 107.09200000000001 36.336999999999996 107.09200000000001 C 44.67099999999999 107.09200000000001 48.998999999999995 102.05300000000001 48.998999999999995 93.26400000000001 L 48.998999999999995 42.77400000000001 C 48.99999999999999 42.06100000000001 49.44499999999999 41.00000000000001 48.74399999999999 41.00000000000001 L 43.12199999999999 41.00000000000001 C 42.40999999999999 41.00000000000001 40.99999999999999 42.06100000000001 40.99999999999999 42.77300000000001 L 40.99999999999999 93.263 C 40.99999999999999 97.159 37.38399999999999 101.036 30.797999999999995 97.74300000000001 L 18.675999999999995 90.73 C 18.253999999999994 90.5 17.999999999999996 90.037 17.999999999999996 89.549 L 17.999999999999996 38.407000000000004 C 17.999999999999996 37.925000000000004 18.462999999999997 37.441 18.891 37.194 L 63.269 11.633000000000003 C 63.684 11.398000000000003 64.271 11.398000000000003 64.684 11.633000000000003 L 108.64699999999999 37.188 C 109.068 37.441 109.00099999999999 37.910000000000004 109.00099999999999 38.407000000000004 L 109.00099999999999 89.549 C 109.00099999999999 90.037 109.09299999999999 90.512 108.678 90.747 L 64.54499999999999 116.32300000000001 C 64.16699999999999 116.55000000000001 63.67499999999999 116.55000000000001 63.25999999999999 116.32300000000001 L 51.94299999999999 109.57400000000001 C 51.60199999999999 109.37600000000002 51.19099999999999 109.305 50.86299999999999 109.48800000000001 C 47.71799999999999 111.27100000000002 47.13399999999999 111.50800000000001 44.18399999999999 112.53100000000002 C 43.456999999999994 112.78400000000002 42.38499999999999 113.22300000000001 44.59199999999999 114.46000000000002 L 59.38999999999999 123.21400000000003 C 60.80599999999999 124.03400000000002 62.416999999999994 124.46000000000002 64.03699999999999 124.46000000000002 C 65.67899999999999 124.46000000000002 67.28599999999999 124.03400000000002 68.70299999999999 123.21400000000003 L 112.67899999999999 97.63200000000003 C 115.54999999999998 95.96000000000004 117.00099999999999 92.86800000000004 117.00099999999999 89.54900000000004 L 117.00099999999999 38.40700000000003 C 116.99999999999999 35.08800000000003 115.54899999999999 31.99300000000003 112.678 30.33400000000003 z M 77.727 81.445 C 66 81.445 63.418000000000006 78.21 62.557 72.37899999999999 C 62.455000000000005 71.75099999999999 61.923 70.99999999999999 61.283 70.99999999999999 L 55.553 70.99999999999999 C 54.843999999999994 70.99999999999999 54.272999999999996 71.85999999999999 54.272999999999996 72.56599999999999 C 54.272999999999996 80.03199999999998 58.333 89.07799999999999 77.727 89.07799999999999 C 91.765 89.07799999999999 99.815 83.62299999999999 99.815 73.969 C 99.815 64.39699999999999 93.348 61.88499999999999 79.733 60.083 C 65.971 58.263999999999996 64.57300000000001 57.345 64.57300000000001 54.120999999999995 C 64.57300000000001 51.462999999999994 65.757 47.91799999999999 75.947 47.91799999999999 C 85.051 47.91799999999999 88.40700000000001 49.87199999999999 89.788 56.00899999999999 C 89.907 56.58599999999999 90.434 56.99999999999999 91.029 56.99999999999999 L 96.783 56.99999999999999 C 97.137 56.99999999999999 97.474 56.85699999999999 97.722 56.60399999999999 C 97.963 56.331999999999994 98.089 55.99099999999999 98.05799999999999 55.62499999999999 C 97.16499999999999 45.05599999999999 90.145 40.13099999999999 75.946 40.13099999999999 C 63.314 40.13099999999999 55.78 45.46499999999999 55.78 54.40599999999999 C 55.78 64.10399999999998 63.277 66.78399999999999 75.402 67.98299999999999 C 89.907 69.40499999999999 91.035 71.52499999999999 91.035 74.37799999999999 C 91.035 79.33399999999999 87.057 81.445 77.727 81.445 z" stroke-linecap="round" />
</g>
</svg>