<?xml version="1.0" encoding="UTF-8" standalone="no" ?>
<!DOCTYPE svg PUBLIC "-//W3C//DTD SVG 1.1//EN" "http://www.w3.org/Graphics/SVG/1.1/DTD/svg11.dtd">
<svg xmlns="http://www.w3.org/2000/svg" xmlns:xlink="http://www.w3.org/1999/xlink" version="1.1" width="1080" height="1080" viewBox="0 0 1080 1080" xml:space="preserve">
<desc>Created with Fabric.js 5.2.4</desc>
<defs>
</defs>
<rect x="0" y="0" width="100%" height="100%" fill="transparent"></rect>
<g transform="matrix(1 0 0 1 540 540)" id="bdffcd9d-ecaa-41c3-9762-2a9583f0442d"  >
</g>
<g transform="matrix(1 0 0 1 540 540)" id="2073f9a8-83b0-4d12-994c-23d3b447b61e"  >
<rect style="stroke: none; stroke-width: 1; stroke-dasharray: none; stroke-linecap: butt; stroke-dashoffset: 0; stroke-linejoin: miter; stroke-miterlimit: 4; fill: rgb(255,255,255); fill-rule: nonzero; opacity: 1; visibility: hidden;" vector-effect="non-scaling-stroke"  x="-540" y="-540" rx="0" ry="0" width="1080" height="1080" />
</g>
<g transform="matrix(1 0 0 1 540 540)"  >
<rect style="stroke: none; stroke-width: 1; stroke-dasharray: none; stroke-linecap: butt; stroke-dashoffset: 0; stroke-linejoin: miter; stroke-miterlimit: 4; fill: rgb(255,255,255); fill-rule: nonzero; opacity: 1; visibility: hidden;" vector-effect="non-scaling-stroke"  x="-250" y="-250" rx="0" ry="0" width="500" height="500" />
</g>
<g transform="matrix(0.46 0 0 0.46 540 540)"  >
<rect style="stroke: none; stroke-width: 1; stroke-dasharray: none; stroke-linecap: butt; stroke-dashoffset: 0; stroke-linejoin: miter; stroke-miterlimit: 4; fill: rgb(255,255,255); fill-rule: nonzero; opacity: 1; visibility: hidden;" vector-effect="non-scaling-stroke"  x="-540" y="-540" rx="0" ry="0" width="1080" height="1080" />
</g>
<g transform="matrix(10.1 0 0 10.1 546.7 560.87)"  >
<path style="stroke: none; stroke-width: 1; stroke-dasharray: none; stroke-linecap: butt; stroke-dashoffset: 0; stroke-linejoin: miter; stroke-miterlimit: 4; fill: rgb(255,255,255); fill-rule: nonzero; opacity: 1;" vector-effect="non-scaling-stroke"  transform=" translate(-48, -48)" d="M 44 2.30935 C 46.4752 0.880283 49.5248 0.880284 52 2.30935 L 85.5692 21.6905 C 88.0444 23.1196 89.5692 25.7606 89.5692 28.6187 L 89.5692 67.3811 C 89.5692 70.2393 88.0444 72.8803 85.5692 74.3093 L 52 93.6905 C 49.5248 95.1196 46.4752 95.1196 44 93.6905 L 10.4308 74.3093 C 7.95558 72.8803 6.43079 70.2393 6.43079 67.3811 L 6.43079 28.6187 C 6.43079 25.7606 7.95558 23.1196 10.4308 21.6905 L 44 2.30935 Z" stroke-linecap="round" />
</g>
<g transform="matrix(10.1 0 0 10.1 557.75 560.88)"  >
<path style="stroke: none; stroke-width: 1; stroke-dasharray: none; stroke-linecap: butt; stroke-dashoffset: 0; stroke-linejoin: miter; stroke-miterlimit: 4; fill: rgb(91,132,210); fill-rule: evenodd; opacity: 1;" vector-effect="non-scaling-stroke"  transform=" translate(-47.95, -48)" d="M 84.1907 22.9024 L 51.5701 4.06896 C 49.3322 2.77689 46.575 2.77689 44.337 4.06896 L 11.7165 22.9024 C 9.47853 24.1945 8.09991 26.5824 8.09991 29.1665 L 8.09991 66.8335 C 8.09991 69.4176 9.47853 71.8055 11.7165 73.0975 L 44.337 91.931 C 46.575 93.2231 49.3322 93.2231 51.5701 91.931 L 84.1907 73.0975 C 86.4286 71.8055 87.8072 69.4176 87.8072 66.8335 L 87.8072 29.1665 C 87.8072 26.5824 86.4286 24.1945 84.1907 22.9024 Z M 53.1201 1.38436 C 49.923 -0.461454 45.9841 -0.461455 42.7871 1.38436 L 10.1665 20.2178 C 6.96946 22.0637 5 25.4749 5 29.1665 L 5 66.8335 C 5 70.5251 6.96946 73.9363 10.1665 75.7821 L 42.7871 94.6156 C 45.9841 96.4614 49.923 96.4614 53.1201 94.6156 L 85.7406 75.7821 C 88.9377 73.9363 90.9071 70.5251 90.9071 66.8335 L 90.9071 29.1665 C 90.9071 25.4749 88.9377 22.0637 85.7406 20.2178 L 53.1201 1.38436 Z" stroke-linecap="round" />
</g>
<g transform="matrix(10.1 0 0 10.1 582.26 652.91)"  >
<path style="stroke: none; stroke-width: 1; stroke-dasharray: none; stroke-linecap: butt; stroke-dashoffset: 0; stroke-linejoin: miter; stroke-miterlimit: 4; fill: rgb(255,255,255); fill-rule: evenodd; opacity: 1;" vector-effect="non-scaling-stroke"  transform=" translate(-51.56, -57.19)" d="M 53.713 62.196 L 53.713 66.8892 C 54.476 67.2803 55.3783 67.5736 56.4201 67.7692 C 57.4618 67.9647 58.5597 68.0625 59.714 68.0625 C 60.8389 68.0625 61.9074 67.955 62.9198 67.7398 C 63.9322 67.5248 64.82 67.1703 65.5829 66.6765 C 66.3458 66.1828 66.9499 65.5374 67.3949 64.7406 C 67.8399 63.9437 68.0625 62.9587 68.0625 61.7854 C 68.0625 60.9347 67.9354 60.1892 67.681 59.5488 C 67.4267 58.9084 67.0599 58.3388 66.5806 57.8402 C 66.1013 57.3415 65.5267 56.8942 64.8566 56.4982 C 64.1866 56.1022 63.431 55.7282 62.5897 55.3762 C 61.9735 55.122 61.4209 54.8752 60.9318 54.6356 C 60.4427 54.396 60.027 54.1516 59.6846 53.9023 C 59.3422 53.6529 59.0782 53.3889 58.8923 53.1103 C 58.7065 52.8316 58.6135 52.5163 58.6135 52.1643 C 58.6135 51.8417 58.6967 51.5508 58.863 51.2917 C 59.0293 51.0325 59.2641 50.8102 59.5673 50.6243 C 59.8705 50.4386 60.2422 50.2943 60.6823 50.1917 C 61.1226 50.089 61.6116 50.0377 62.1496 50.0377 C 62.5408 50.0377 62.9541 50.0671 63.3893 50.1257 C 63.8246 50.1844 64.2623 50.2748 64.7026 50.397 C 65.1428 50.5192 65.5706 50.6733 65.9864 50.859 C 66.4021 51.0448 66.786 51.2599 67.1381 51.5044 L 67.1381 47.1191 C 66.4241 46.8454 65.644 46.6425 64.7979 46.5105 C 63.9518 46.3785 62.981 46.3125 61.8855 46.3125 C 60.7703 46.3125 59.714 46.4323 58.7163 46.6718 C 57.7186 46.9114 56.8407 47.2853 56.0826 47.7938 C 55.3245 48.3023 54.7254 48.95 54.2853 49.7371 C 53.8451 50.5241 53.625 51.4652 53.625 52.5603 C 53.625 53.9585 54.0285 55.1513 54.8355 56.1389 C 55.6424 57.1264 56.8675 57.9623 58.5109 58.6468 C 59.1564 58.9108 59.758 59.1698 60.3156 59.4241 C 60.8731 59.6783 61.3549 59.9423 61.7607 60.2161 C 62.1667 60.4898 62.487 60.7881 62.7218 61.1107 C 62.9566 61.4333 63.074 61.8 63.074 62.2107 C 63.074 62.5138 63.0006 62.7949 62.8538 63.054 C 62.7071 63.3131 62.4846 63.5379 62.1863 63.7286 C 61.8879 63.9193 61.5162 64.0684 61.0712 64.1759 C 60.6261 64.2835 60.1053 64.3373 59.5086 64.3373 C 58.4913 64.3373 57.4838 64.1588 56.4861 63.8019 C 55.4884 63.4451 54.564 62.9098 53.713 62.196 L 53.713 62.196 Z M 45.8231 50.6327 L 51.8438 50.6327 L 51.8438 46.7812 L 35.0625 46.7812 L 35.0625 50.6327 L 41.0537 50.6327 L 41.0537 67.7812 L 45.8231 67.7812 L 45.8231 50.6327 Z" stroke-linecap="round" />
</g>
<g transform="matrix(7.87 0 0 8.62 557.42 549.52)"  >
<g style="" vector-effect="non-scaling-stroke"   >
		<g transform="matrix(1 0 0 1 -8.82 26.19)"  >
<rect style="stroke: none; stroke-width: 1; stroke-dasharray: none; stroke-linecap: butt; stroke-dashoffset: 0; stroke-linejoin: miter; stroke-miterlimit: 4; fill: rgb(250,169,25); fill-rule: nonzero; opacity: 1;" vector-effect="non-scaling-stroke"  x="-7.6025" y="-3.2365" rx="0" ry="0" width="15.205" height="6.473" />
</g>
		<g transform="matrix(1 0 0 1 -8.89 6.24)"  >
<rect style="stroke: none; stroke-width: 1; stroke-dasharray: none; stroke-linecap: butt; stroke-dashoffset: 0; stroke-linejoin: miter; stroke-miterlimit: 4; fill: rgb(228,228,228); fill-rule: nonzero; opacity: 1;" vector-effect="non-scaling-stroke"  x="-22.7885" y="-16.7155" rx="0" ry="0" width="45.577" height="33.431" />
</g>
		<g transform="matrix(1 0 0 1 -8.89 6.24)"  >
<rect style="stroke: none; stroke-width: 1; stroke-dasharray: none; stroke-linecap: butt; stroke-dashoffset: 0; stroke-linejoin: miter; stroke-miterlimit: 4; fill: rgb(255,255,255); fill-rule: nonzero; opacity: 1;" vector-effect="non-scaling-stroke"  x="-19.483" y="-13.7685" rx="0" ry="0" width="38.966" height="27.537" />
</g>
		<g transform="matrix(1 0 0 1 -8.82 29.66)"  >
<rect style="stroke: none; stroke-width: 1; stroke-dasharray: none; stroke-linecap: butt; stroke-dashoffset: 0; stroke-linejoin: miter; stroke-miterlimit: 4; fill: rgb(228,228,228); fill-rule: nonzero; opacity: 1;" vector-effect="non-scaling-stroke"  x="-11.301" y="-2.316" rx="0" ry="0" width="22.602" height="4.632" />
</g>
		<g transform="matrix(1 0 0 1 20.65 22.68)"  >
<path style="stroke: none; stroke-width: 1; stroke-dasharray: none; stroke-linecap: butt; stroke-dashoffset: 0; stroke-linejoin: miter; stroke-miterlimit: 4; fill: rgb(228,228,228); fill-rule: nonzero; opacity: 1;" vector-effect="non-scaling-stroke"  transform=" translate(-53.65, -55.68)" d="M 63.6996 64.8977 L 43.594 64.8977 C 43.0527 64.8977 42.6138 64.4588 42.6138 63.9174 L 42.6138 47.4497 C 42.6138 46.9083 43.052699999999994 46.4694 43.593999999999994 46.4694 L 63.69959999999999 46.4694 C 64.24099999999999 46.4694 64.67989999999999 46.9083 64.67989999999999 47.4497 L 64.67989999999999 63.9174 C 64.6799 64.4588 64.241 64.8977 63.6996 64.8977 z" stroke-linecap="round" />
</g>
		<g transform="matrix(1 0 0 1 20.65 16)"  >
<path style="stroke: none; stroke-width: 1; stroke-dasharray: none; stroke-linecap: butt; stroke-dashoffset: 0; stroke-linejoin: miter; stroke-miterlimit: 4; fill: rgb(228,228,228); fill-rule: nonzero; opacity: 1;" vector-effect="non-scaling-stroke"  transform=" translate(-53.65, -49)" d="M 64.6799 51.5254 L 42.6138 51.5254 L 42.6138 47.4497 C 42.6138 46.9083 43.052699999999994 46.4694 43.593999999999994 46.4694 L 63.69959999999999 46.4694 C 64.24099999999999 46.4694 64.67989999999999 46.9083 64.67989999999999 47.4497 L 64.67989999999999 51.5254 z" stroke-linecap="round" />
</g>
		<g transform="matrix(1 0 0 1 28.86 16)"  >
<circle style="stroke: none; stroke-width: 1; stroke-dasharray: none; stroke-linecap: butt; stroke-dashoffset: 0; stroke-linejoin: miter; stroke-miterlimit: 4; fill: rgb(255,255,255); fill-rule: nonzero; opacity: 1;" vector-effect="non-scaling-stroke"  cx="0" cy="0" r="0.907" />
</g>
		<g transform="matrix(1 0 0 1 26.21 16)"  >
<circle style="stroke: none; stroke-width: 1; stroke-dasharray: none; stroke-linecap: butt; stroke-dashoffset: 0; stroke-linejoin: miter; stroke-miterlimit: 4; fill: rgb(255,255,255); fill-rule: nonzero; opacity: 1;" vector-effect="non-scaling-stroke"  cx="0" cy="0" r="0.907" />
</g>
		<g transform="matrix(1 0 0 1 23.55 16)"  >
<circle style="stroke: none; stroke-width: 1; stroke-dasharray: none; stroke-linecap: butt; stroke-dashoffset: 0; stroke-linejoin: miter; stroke-miterlimit: 4; fill: rgb(255,255,255); fill-rule: nonzero; opacity: 1;" vector-effect="non-scaling-stroke"  cx="0" cy="0" r="0.907" />
</g>
		<g transform="matrix(1 0 0 1 24.09 -21.72)"  >
<path style="stroke: none; stroke-width: 1; stroke-dasharray: none; stroke-linecap: butt; stroke-dashoffset: 0; stroke-linejoin: miter; stroke-miterlimit: 4; fill: rgb(228,228,228); fill-rule: nonzero; opacity: 1;" vector-effect="non-scaling-stroke"  transform=" translate(-57.09, -11.28)" d="M 63.2906 21.5351 L 50.8958 21.5351 C 50.305 21.5351 49.8262 21.0562 49.8262 20.4655 L 49.8262 2.0912 C 49.8262 1.5005000000000002 50.305 1.0215900000000002 50.8958 1.0215900000000002 L 63.2906 1.0215900000000002 C 63.8814 1.0215900000000002 64.36019999999999 1.5005000000000002 64.36019999999999 2.0912 L 64.36019999999999 20.465500000000002 C 64.3602 21.0562 63.8814 21.5351 63.2906 21.5351 z" stroke-linecap="round" />
</g>
		<g transform="matrix(1 0 0 1 24.09 -22.02)"  >
<rect style="stroke: none; stroke-width: 1; stroke-dasharray: none; stroke-linecap: butt; stroke-dashoffset: 0; stroke-linejoin: miter; stroke-miterlimit: 4; fill: rgb(69,159,216); fill-rule: nonzero; opacity: 1;" vector-effect="non-scaling-stroke"  x="-5.086" y="-7.6935" rx="0" ry="0" width="10.172" height="15.387" />
</g>
		<g transform="matrix(1 0 0 1 -8.89 6.24)"  >
<path style="stroke: none; stroke-width: 1; stroke-dasharray: none; stroke-linecap: butt; stroke-dashoffset: 0; stroke-linejoin: miter; stroke-miterlimit: 4; fill: rgb(228,228,228); fill-rule: nonzero; opacity: 1;" vector-effect="non-scaling-stroke"  transform=" translate(-24.11, -39.24)" d="M 34.33465 37.885 L 34.33465 40.698899999999995 L 32.46575 40.980999999999995 C 32.24712 42.08819999999999 31.80988 43.11789999999999 31.20339 44.02759 L 32.2965 45.5085 L 30.307720000000003 47.4974 L 28.81968 46.3972 C 27.89582 47.010799999999996 26.852030000000003 47.4409 25.73073 47.645399999999995 L 25.46274 49.457899999999995 L 22.64884 49.457899999999995 L 22.37379 47.6031 C 21.28068 47.3705 20.25807 46.919 19.36241 46.2985 L 17.83911 47.419799999999995 L 15.850330000000001 45.431099999999994 L 17.01395 43.85829999999999 C 16.44271 42.96979999999999 16.040760000000002 41.96119999999999 15.843280000000002 40.88929999999999 L 13.882700000000002 40.59309999999999 L 13.882700000000002 37.779199999999996 L 15.906770000000002 37.4689 C 16.139460000000003 36.4252 16.562630000000002 35.466 17.14093 34.61259 L 15.920840000000002 32.962399999999995 L 17.90962 30.973699999999994 L 19.59515 32.21489999999999 C 20.45552 31.65769999999999 21.42169 31.26279999999999 22.45135 31.044099999999993 L 22.7546 29.013099999999994 L 25.5685 29.013099999999994 L 25.87179 31.044099999999993 C 26.92258 31.26279999999999 27.90283 31.671899999999994 28.770310000000002 32.23599999999999 L 30.378230000000002 31.05119999999999 L 32.367 33.04 L 31.196329999999996 34.6338 C 31.788699999999995 35.5154 32.21892999999999 36.5238 32.44457 37.6029 L 34.33465 37.885 z" stroke-linecap="round" />
</g>
		<g transform="matrix(1 0 0 1 -8.89 8.21)"  >
<path style="stroke: none; stroke-width: 1; stroke-dasharray: none; stroke-linecap: butt; stroke-dashoffset: 0; stroke-linejoin: miter; stroke-miterlimit: 4; fill: rgb(255,255,255); fill-rule: nonzero; opacity: 1;" vector-effect="non-scaling-stroke"  transform=" translate(-24.11, -41.21)" d="M 26.66563 41.0407 L 26.66563 44.5708 C 25.89568 44.940799999999996 25.02568 45.1508 24.10564 45.1508 C 23.19566 45.1508 22.325670000000002 44.940799999999996 21.55565 44.5708 L 21.55565 41.0407 L 24.19566 37.2608 L 26.66563 41.0407 z" stroke-linecap="round" />
</g>
		<g transform="matrix(1 0 0 1 -18.43 -20.8)"  >
<path style="stroke: none; stroke-width: 1; stroke-dasharray: none; stroke-linecap: butt; stroke-dashoffset: 0; stroke-linejoin: miter; stroke-miterlimit: 4; fill: rgb(228,228,228); fill-rule: nonzero; opacity: 1;" vector-effect="non-scaling-stroke"  transform=" translate(-14.57, -12.2)" d="M 20.11135 11.1188 C 19.959750000000003 10.3945 19.67342 9.7291 19.277530000000002 9.13959 L 20.060820000000003 8.0783 L 18.73853 6.756 L 17.668860000000002 7.5477 C 17.08771 7.168699999999999 16.43916 6.8991 15.740080000000003 6.756 L 15.537950000000002 5.4084 L 13.6682 5.4084 L 13.466 6.756 C 12.7838 6.899100000000001 12.135299999999999 7.160200000000001 11.5626 7.5308 L 10.4424 6.7054 L 9.12 8.0278 L 9.937 9.1311 C 9.5496 9.6954 9.2716 10.3355 9.1116 11.0262 L 7.772399999999999 11.236799999999999 L 7.772399999999999 13.106499999999999 L 9.0695 13.300299999999998 C 9.2043 14.016199999999998 9.473799999999999 14.681589999999998 9.8443 15.271099999999999 L 9.0779 16.3239 L 10.4002 17.646299999999997 L 11.411 16.896589999999996 C 12.008899999999999 17.309399999999997 12.691099999999999 17.612589999999997 13.4155 17.764199999999995 L 13.6008 18.993899999999996 L 15.4706 18.993899999999996 L 15.64744 17.789499999999997 C 16.38863 17.6547 17.08771 17.368299999999998 17.70253 16.963999999999995 L 18.68795 17.696799999999996 L 20.01029 16.374399999999994 L 19.285960000000003 15.388999999999994 C 19.690230000000003 14.782589999999994 19.976610000000004 14.100399999999993 20.119780000000002 13.359199999999994 L 21.36635 13.173899999999994 L 21.36635 11.304099999999995 L 20.11135 11.1188 z M 14.5694 15.4311 C 12.7838 15.4311 11.3351 13.9825 11.3351 12.205400000000001 C 11.3351 10.4198 12.783800000000001 8.9711 14.569400000000002 8.9711 C 16.354950000000002 8.9711 17.795170000000002 10.4198 17.795170000000002 12.205400000000001 C 17.79517 13.9825 16.35495 15.4311 14.5694 15.4311 z" stroke-linecap="round" />
</g>
		<g transform="matrix(1 0 0 1 9.76 -1.01)"  >
<path style="stroke: none; stroke-width: 1; stroke-dasharray: none; stroke-linecap: butt; stroke-dashoffset: 0; stroke-linejoin: miter; stroke-miterlimit: 4; fill: rgb(250,169,25); fill-rule: nonzero; opacity: 1;" vector-effect="non-scaling-stroke"  transform=" translate(-42.76, -31.99)" d="M 36.4451 7.0082 C 36.33219999999999 6.4687 36.1189 5.9731000000000005 35.824 5.533900000000001 L 36.4075 4.743400000000001 L 35.4225 3.7584000000000013 L 34.62576 4.348100000000001 C 34.19287 4.065800000000001 33.70978 3.8651000000000013 33.18905 3.7584000000000013 L 33.03849 2.754590000000001 L 31.645750000000003 2.754590000000001 L 31.49519 3.7584 C 30.98702 3.8651 30.50393 4.0595 30.07732 4.33559 L 29.24291 3.7208 L 28.257929999999998 4.7058 L 28.8665 5.52759 C 28.5779 5.9479 28.37085 6.4247 28.25165 6.9392 L 27.25416 7.096 L 27.25416 8.4888 L 28.22029 8.633099999999999 C 28.32069 9.1663 28.521459999999998 9.661999999999999 28.797459999999997 10.101099999999999 L 28.22657 10.885299999999999 L 29.21155 11.870299999999999 L 29.964399999999998 11.311899999999998 C 30.409809999999997 11.619399999999997 30.917979999999996 11.845199999999998 31.457539999999998 11.958199999999998 L 31.59555 12.874099999999999 L 32.98833 12.874099999999999 L 33.12005 11.976999999999999 C 33.67214 11.876589999999998 34.19287 11.663299999999998 34.65084 11.362099999999998 L 35.3849 11.907999999999998 L 36.369800000000005 10.922999999999998 L 35.83030000000001 10.188999999999998 C 36.131400000000006 9.737299999999998 36.34470000000001 9.229099999999999 36.45140000000001 8.676999999999998 L 37.379900000000006 8.538999999999998 L 37.379900000000006 7.1462 L 36.4451 7.0082 z M 32.31704 10.2203 C 30.987019999999998 10.2203 29.907919999999997 9.1413 29.907919999999997 7.8175 C 29.907919999999997 6.4875 30.987019999999998 5.4084 32.31704 5.4084 C 33.647059999999996 5.4084 34.71984 6.487500000000001 34.71984 7.817500000000001 C 34.71984 9.1413 33.64706 10.2203 32.31704 10.2203 z M 57.6274 61.234 L 49.6662 61.234 C 49.3096 61.234 49.020500000000006 60.944900000000004 49.020500000000006 60.588300000000004 L 49.020500000000006 55.58970000000001 C 49.020500000000006 55.23310000000001 49.3096 54.94400000000001 49.6662 54.94400000000001 L 57.6274 54.94400000000001 C 57.984 54.94400000000001 58.2731 55.23310000000001 58.2731 55.58970000000001 L 58.2731 60.588300000000004 C 58.2731 60.9449 57.984 61.234 57.6274 61.234 z" stroke-linecap="round" />
</g>
		<g transform="matrix(1 0 0 1 20.65 25.09)"  >
<polygon style="stroke: none; stroke-width: 1; stroke-dasharray: none; stroke-linecap: butt; stroke-dashoffset: 0; stroke-linejoin: miter; stroke-miterlimit: 4; fill: rgb(255,255,255); fill-rule: nonzero; opacity: 1;" vector-effect="non-scaling-stroke"  points="1.47,0.01 -1.47,1.52 -1.47,-1.52 " />
</g>
		<g transform="matrix(1 0 0 1 -8.82 29.66)"  >
<path style="stroke: none; stroke-width: 1; stroke-dasharray: none; stroke-linecap: butt; stroke-dashoffset: 0; stroke-linejoin: miter; stroke-miterlimit: 4; fill: rgb(47,24,84); fill-rule: nonzero; opacity: 1;" vector-effect="non-scaling-stroke"  transform=" translate(-24.18, -62.66)" d="M 35.4839 59.8467 L 12.881899999999998 59.8467 C 12.605499999999997 59.8467 12.381899999999998 60.070299999999996 12.381899999999998 60.3467 L 12.381899999999998 64.9785 C 12.381899999999998 65.25489999999999 12.605499999999997 65.4785 12.881899999999998 65.4785 L 35.4839 65.4785 C 35.7602 65.4785 35.9839 65.25489999999999 35.9839 64.9785 L 35.9839 60.3467 C 35.9839 60.0703 35.7602 59.8467 35.4839 59.8467 z M 34.98385 64.4785 L 13.3819 64.4785 L 13.3819 60.8467 L 34.98385 60.8467 L 34.98385 64.4785 z" stroke-linecap="round" />
</g>
		<g transform="matrix(1 0 0 1 0 -0.04)"  >
<path style="stroke: none; stroke-width: 1; stroke-dasharray: none; stroke-linecap: butt; stroke-dashoffset: 0; stroke-linejoin: miter; stroke-miterlimit: 4; fill: rgb(47,24,84); fill-rule: nonzero; opacity: 1;" vector-effect="non-scaling-stroke"  transform=" translate(-33, -32.96)" d="M 63.6997 45.9697 L 47.3969 45.9697 L 47.3969 22.5205 C 47.3969 22.2442 47.173300000000005 22.0205 46.8969 22.0205 L 1.3203 22.0205 C 1.044 22.0205 0.8203 22.2442 0.8203 22.5205 L 0.8203 55.9512 C 0.8203 56.22759 1.044 56.4512 1.3203 56.4512 L 42.1137 56.4512 L 42.1137 63.917 C 42.1137 64.7334 42.7778 65.39750000000001 43.5942 65.39750000000001 L 63.6997 65.39750000000001 C 64.5156 65.39750000000001 65.1797 64.7334 65.1797 63.91700000000001 L 65.1797 51.5254 L 65.1797 47.450199999999995 C 65.1797 46.6338 64.5156 45.9697 63.6997 45.9697 z M 64.1797 47.4502 L 64.1797 51.025400000000005 L 43.113699999999994 51.025400000000005 L 43.113699999999994 47.4502 C 43.113699999999994 46.5219 43.570899999999995 47.180800000000005 63.69969999999999 46.9697 C 63.9643 46.9697 64.1797 47.18559 64.1797 47.4502 z M 43.0918 46.0635 C 42.5232 46.2703 42.1137 46.811 42.1137 47.450199999999995 C 42.1137 47.564099999999996 42.1137 52.6508 42.1137 52.503899999999994 L 5.1255 52.503899999999994 L 5.1255 25.9668 L 43.0918 25.9668 L 43.0918 46.0635 z M 1.8203 55.4512 L 1.8203 23.0205 L 46.3969 23.0205 L 46.3969 45.9697 L 44.0918 45.9697 L 44.0918 24.9668 L 4.1255 24.9668 L 4.1255 53.5039 L 42.1137 53.5039 L 42.1137 55.4512 L 1.8203 55.4512 z M 63.6997 64.3975 L 43.5942 64.3975 C 43.329100000000004 64.3975 43.1137 64.18169999999999 43.1137 63.916999999999994 L 43.1137 52.0254 L 64.1797 52.0254 L 64.1797 63.917 C 64.1797 64.1817 63.9643 64.3975 63.6997 64.3975 z M 50.896 22.0352 L 63.2905 22.0352 C 64.1562 22.0352 64.8603 21.3311 64.8603 20.4658 L 64.8603 2.0908 C 64.8603 1.2255900000000002 64.1562 0.5215000000000003 63.290499999999994 0.5215000000000003 L 50.896 0.5215000000000003 C 50.0302 0.5215000000000003 49.326100000000004 1.2255900000000004 49.326100000000004 2.0908 L 49.326100000000004 20.4658 C 49.3261 21.3311 50.0302 22.0352 50.896 22.0352 z M 50.3261 2.0908 C 50.3261 1.7774 50.581999999999994 1.5215 50.895999999999994 1.5215 L 63.290499999999994 1.5215 C 63.604499999999994 1.5215 63.860299999999995 1.7774 63.860299999999995 2.0908 L 63.860299999999995 20.4658 C 63.860299999999995 20.779300000000003 63.604499999999994 21.035200000000003 63.290499999999994 21.035200000000003 L 50.896 21.035200000000003 C 50.582 21.035200000000003 50.326100000000004 20.779300000000003 50.326100000000004 20.4658 L 50.326100000000004 2.0908 z" stroke-linecap="round" />
</g>
		<g transform="matrix(1 0 0 1 -8.89 6.24)"  >
<path style="stroke: none; stroke-width: 1; stroke-dasharray: none; stroke-linecap: butt; stroke-dashoffset: 0; stroke-linejoin: miter; stroke-miterlimit: 4; fill: rgb(47,24,84); fill-rule: nonzero; opacity: 1;" vector-effect="non-scaling-stroke"  transform=" translate(-24.11, -39.24)" d="M 13.8081 41.0869 L 15.42386 41.3321 C 15.624049999999999 42.2178 15.95511 43.0567 16.41116 43.8321 L 15.448759999999998 45.132799999999996 C 15.301299999999998 45.3321 15.321809999999997 45.609399999999994 15.497099999999998 45.7842 L 17.48587 47.7735 C 17.659699999999997 47.9463 17.93557 47.9688 18.135769999999997 47.8223 L 19.37747 46.9082 C 20.16995 47.4121 21.02591 47.7822 21.929229999999997 48.0127 L 22.15432 49.5313 C 22.190459999999998 49.7764 22.40091 49.958 22.64895 49.958 L 25.46286 49.958 C 25.71091 49.958 25.92136 49.776399999999995 25.95749 49.5313 L 26.17429 48.0655 C 27.10105 47.8574 27.98142 47.501 28.79832 47.0039 L 30.01023 47.8994 C 30.20896 48.0459 30.48582 48.0264 30.66111 47.85059 L 32.64988 45.8623 C 32.82468 45.6875 32.84568 45.4112 32.698710000000005 45.2119 L 31.810040000000004 44.0069 C 32.30369 43.2012 32.66306 42.336 32.880840000000006 41.424800000000005 L 34.40916000000001 41.193400000000004 C 34.65379000000001 41.1563 34.834450000000004 40.9463 34.834450000000004 40.699200000000005 L 34.834450000000004 37.884800000000006 C 34.834450000000004 37.636700000000005 34.6533 37.42680000000001 34.40818 37.39059 L 32.85593 37.1582 C 32.63328 36.26859 32.28025 35.4287 31.80271 34.6524 L 32.77 33.336 C 32.91648 33.1367 32.895480000000006 32.861399999999996 32.72068 32.686499999999995 L 30.731910000000003 30.697299999999995 C 30.556620000000002 30.522499999999994 30.28074 30.501999999999995 30.08152 30.648499999999995 L 28.74705 31.632799999999996 C 27.9907 31.181699999999996 27.17576 30.845699999999997 26.315890000000003 30.632799999999996 L 26.062970000000004 28.938499999999998 C 26.026350000000004 28.694399999999998 25.815900000000003 28.5127 25.568340000000003 28.5127 L 22.754430000000003 28.5127 C 22.506870000000003 28.5127 22.29642 28.694399999999998 22.259800000000002 28.938499999999998 L 22.006870000000003 30.633799999999997 C 21.157260000000004 30.847699999999996 20.356970000000004 31.1758 19.619670000000003 31.611399999999996 L 18.206090000000003 30.571299999999997 C 18.006390000000003 30.423899999999996 17.731 30.444399999999998 17.556190000000004 30.620099999999997 L 15.567420000000004 32.609399999999994 C 15.392130000000003 32.78419999999999 15.371620000000004 33.061499999999995 15.519080000000004 33.260799999999996 L 16.533240000000003 34.6309 C 16.069860000000002 35.376 15.723670000000002 36.1787 15.500040000000002 37.0254 L 13.807210000000001 37.285199999999996 C 13.563010000000002 37.3223 13.382810000000001 37.532199999999996 13.382810000000001 37.7793 L 13.382810000000001 40.5928 C 13.3828 40.8399 13.5635 41.0498 13.8081 41.0869 z M 14.3828 38.208 L 15.98245 37.9629 C 16.18606 37.9317 16.35013 37.778299999999994 16.39456 37.5772 C 16.609399999999997 36.6153 17.00003 35.7119 17.5552 34.89259 C 17.673859999999998 34.7168 17.66946 34.4854 17.543 34.314499999999995 L 16.57913 33.0117 L 17.9595 31.630899999999997 L 19.298859999999998 32.6172 C 19.465359999999997 32.7403 19.69241 32.747099999999996 19.866729999999997 32.6348 C 20.676789999999997 32.1104 21.581079999999996 31.740299999999998 22.555199999999996 31.533199999999997 C 22.759309999999996 31.489299999999997 22.915069999999996 31.324199999999998 22.945829999999997 31.118199999999998 L 23.18509 29.5127 L 25.137719999999998 29.5127 L 25.37692 31.118199999999998 C 25.40817 31.3252 25.56442 31.4912 25.769499999999997 31.533199999999997 C 26.748989999999996 31.737299999999998 27.666959999999996 32.1153 28.498009999999997 32.6553 C 28.672819999999998 32.771499999999996 28.899379999999997 32.7637 29.067349999999998 32.6387 L 30.329069999999998 31.708 L 31.709929999999996 33.0899 L 30.793419999999998 34.3379 C 30.668419999999998 34.507799999999996 30.663539999999998 34.7373 30.781219999999998 34.912099999999995 C 32.18148 36.998099999999994 31.651649999999997 37.991499999999995 32.37106 38.0967 L 33.83444 38.3155 L 33.83444 40.26959 C 32.74954 40.5131 32.08643 40.3227 31.97506 40.8848 C 31.77292 41.907199999999996 31.3735 42.872099999999996 30.78756 43.75 C 30.67087 43.9248 30.67624 44.1543 30.80124 44.3242 L 31.63864 45.458999999999996 L 30.25876 46.838899999999995 L 29.11715 45.995099999999994 C 28.947229999999998 45.87109999999999 28.718719999999998 45.86429999999999 28.543419999999998 45.98049999999999 C 27.65573 46.57029999999999 26.67965 46.96489999999999 25.641569999999998 47.153299999999994 C 25.430629999999997 47.19239999999999 25.267549999999996 47.36039999999999 25.236359999999998 47.57229999999999 L 25.03128 48.95799999999999 L 23.080109999999998 48.95799999999999 L 22.868679999999998 47.53029999999999 C 22.837919999999997 47.32419999999999 22.68265 47.15819999999999 22.47854 47.11429999999999 C 21.462429999999998 46.897499999999994 20.50979 46.484399999999994 19.647 45.887699999999995 C 19.47122 45.766589999999994 19.23831 45.76759 19.065949999999997 45.896499999999996 L 17.889189999999996 46.762699999999995 L 16.508819999999996 45.381899999999995 L 17.416039999999995 44.156299999999995 C 17.539579999999994 43.98929999999999 17.546899999999994 43.762699999999995 17.434599999999996 43.5879 C 16.890159999999995 42.7412 16.520049999999998 41.8028 16.334989999999998 40.798899999999996 C 16.296409999999998 40.588899999999995 16.128929999999997 40.42679999999999 15.917999999999997 40.3955 L 14.382799999999998 40.1631 L 14.382799999999998 38.208 z" stroke-linecap="round" />
</g>
		<g transform="matrix(1 0 0 1 -8.89 6.24)"  >
<path style="stroke: none; stroke-width: 1; stroke-dasharray: none; stroke-linecap: butt; stroke-dashoffset: 0; stroke-linejoin: miter; stroke-miterlimit: 4; fill: rgb(47,24,84); fill-rule: nonzero; opacity: 1;" vector-effect="non-scaling-stroke"  transform=" translate(-24.11, -39.24)" d="M 24.1055 45.6504 C 27.60611 45.6504 30.51559 42.844899999999996 30.51559 39.2305 C 30.51559 35.6963 27.6401 32.8213 24.1055 32.8213 C 20.57132 32.8213 17.69583 35.6963 17.69583 39.2305 C 17.69583 42.71 20.51309 45.6504 24.1055 45.6504 z M 26.16549 44.2364 C 25.509459999999997 44.5043 25.196309999999997 44.5465 24.60549 44.599500000000006 L 24.60549 41.9209 C 24.60549 41.64459 24.38186 41.4209 24.10549 41.4209 C 23.82912 41.4209 23.60549 41.64459 23.60549 41.9209 L 23.60549 44.5981 C 23.20524 44.5612 22.85373 44.549800000000005 22.14107 44.2715 C 22.112379999999998 44.260400000000004 22.08419 44.248200000000004 22.05568 44.23659000000001 L 22.05568 41.1983 L 24.18215 38.1533 L 26.16549 41.1895 L 26.16549 44.2364 z M 24.1055 33.8213 C 29.44328 33.8213 31.500639999999997 40.73759 27.16549 43.7019 L 27.16549 41.041 C 27.16549 40.944399999999995 27.137169999999998 40.848699999999994 27.083949999999998 40.76759 L 24.614289999999997 36.9873 C 24.523469999999996 36.8487 24.369659999999996 36.7637 24.203639999999996 36.760799999999996 C 24.021509999999996 36.723699999999994 23.880399999999998 36.838899999999995 23.785669999999996 36.97459 L 21.145539999999997 40.7549 C 21.08694 40.8389 21.05569 40.9385 21.05569 41.041 L 21.05569 43.702799999999996 C 19.60196 42.7052 18.695829999999997 41.028589999999994 18.695829999999997 39.2305 C 18.69583 36.2481 21.12259 33.8213 24.1055 33.8213 z" stroke-linecap="round" />
</g>
		<g transform="matrix(1 0 0 1 24.09 -13.15)"  >
<circle style="stroke: none; stroke-width: 1; stroke-dasharray: none; stroke-linecap: butt; stroke-dashoffset: 0; stroke-linejoin: miter; stroke-miterlimit: 4; fill: rgb(47,24,84); fill-rule: nonzero; opacity: 1;" vector-effect="non-scaling-stroke"  cx="0" cy="0" r="0.695" />
</g>
</g>
</g>
</svg>