<?xml version="1.0" encoding="UTF-8" standalone="no" ?>
<!DOCTYPE svg PUBLIC "-//W3C//DTD SVG 1.1//EN" "http://www.w3.org/Graphics/SVG/1.1/DTD/svg11.dtd">
<svg xmlns="http://www.w3.org/2000/svg" xmlns:xlink="http://www.w3.org/1999/xlink" version="1.1" width="1080" height="1080" viewBox="0 0 1080 1080" xml:space="preserve">
<desc>Created with Fabric.js 5.2.4</desc>
<defs>
</defs>
<rect x="0" y="0" width="100%" height="100%" fill="transparent"></rect>
<g transform="matrix(1 0 0 1 540 540)" id="bdffcd9d-ecaa-41c3-9762-2a9583f0442d"  >
</g>
<g transform="matrix(1 0 0 1 540 540)" id="2073f9a8-83b0-4d12-994c-23d3b447b61e"  >
<rect style="stroke: none; stroke-width: 1; stroke-dasharray: none; stroke-linecap: butt; stroke-dashoffset: 0; stroke-linejoin: miter; stroke-miterlimit: 4; fill: rgb(255,255,255); fill-rule: nonzero; opacity: 1; visibility: hidden;" vector-effect="non-scaling-stroke"  x="-540" y="-540" rx="0" ry="0" width="1080" height="1080" />
</g>
<g transform="matrix(1 0 0 1 540 540)"  >
<rect style="stroke: none; stroke-width: 1; stroke-dasharray: none; stroke-linecap: butt; stroke-dashoffset: 0; stroke-linejoin: miter; stroke-miterlimit: 4; fill: rgb(255,255,255); fill-rule: nonzero; opacity: 1; visibility: hidden;" vector-effect="non-scaling-stroke"  x="-250" y="-250" rx="0" ry="0" width="500" height="500" />
</g>
<g transform="matrix(0.46 0 0 0.46 540 540)"  >
<rect style="stroke: none; stroke-width: 1; stroke-dasharray: none; stroke-linecap: butt; stroke-dashoffset: 0; stroke-linejoin: miter; stroke-miterlimit: 4; fill: rgb(255,255,255); fill-rule: nonzero; opacity: 1; visibility: hidden;" vector-effect="non-scaling-stroke"  x="-540" y="-540" rx="0" ry="0" width="1080" height="1080" />
</g>
<g transform="matrix(10.1 0 0 10.1 546.7 560.87)"  >
<path style="stroke: none; stroke-width: 1; stroke-dasharray: none; stroke-linecap: butt; stroke-dashoffset: 0; stroke-linejoin: miter; stroke-miterlimit: 4; fill: rgb(255,255,255); fill-rule: nonzero; opacity: 1;" vector-effect="non-scaling-stroke"  transform=" translate(-48, -48)" d="M 44 2.30935 C 46.4752 0.880283 49.5248 0.880284 52 2.30935 L 85.5692 21.6905 C 88.0444 23.1196 89.5692 25.7606 89.5692 28.6187 L 89.5692 67.3811 C 89.5692 70.2393 88.0444 72.8803 85.5692 74.3093 L 52 93.6905 C 49.5248 95.1196 46.4752 95.1196 44 93.6905 L 10.4308 74.3093 C 7.95558 72.8803 6.43079 70.2393 6.43079 67.3811 L 6.43079 28.6187 C 6.43079 25.7606 7.95558 23.1196 10.4308 21.6905 L 44 2.30935 Z" stroke-linecap="round" />
</g>
<g transform="matrix(10.1 0 0 10.1 560.71 557.92)"  >
<path style="stroke: none; stroke-width: 1; stroke-dasharray: none; stroke-linecap: butt; stroke-dashoffset: 0; stroke-linejoin: miter; stroke-miterlimit: 4; fill: rgb(150,116,215); fill-rule: evenodd; opacity: 1;" vector-effect="non-scaling-stroke"  transform=" translate(-47.95, -48)" d="M 84.1907 22.9024 L 51.5701 4.06896 C 49.3322 2.77689 46.575 2.77689 44.337 4.06896 L 11.7165 22.9024 C 9.47853 24.1945 8.09991 26.5824 8.09991 29.1665 L 8.09991 66.8335 C 8.09991 69.4176 9.47853 71.8055 11.7165 73.0975 L 44.337 91.931 C 46.575 93.2231 49.3322 93.2231 51.5701 91.931 L 84.1907 73.0975 C 86.4286 71.8055 87.8072 69.4176 87.8072 66.8335 L 87.8072 29.1665 C 87.8072 26.5824 86.4286 24.1945 84.1907 22.9024 Z M 53.1201 1.38436 C 49.923 -0.461454 45.9841 -0.461455 42.7871 1.38436 L 10.1665 20.2178 C 6.96946 22.0637 5 25.4749 5 29.1665 L 5 66.8335 C 5 70.5251 6.96946 73.9363 10.1665 75.7821 L 42.7871 94.6156 C 45.9841 96.4614 49.923 96.4614 53.1201 94.6156 L 85.7406 75.7821 C 88.9377 73.9363 90.9071 70.5251 90.9071 66.8335 L 90.9071 29.1665 C 90.9071 25.4749 88.9377 22.0637 85.7406 20.2178 L 53.1201 1.38436 Z" stroke-linecap="round" />
</g>
<g transform="matrix(10.1 0 0 10.1 585.22 652.91)"  >
<path style="stroke: none; stroke-width: 1; stroke-dasharray: none; stroke-linecap: butt; stroke-dashoffset: 0; stroke-linejoin: miter; stroke-miterlimit: 4; fill: rgb(255,255,255); fill-rule: evenodd; opacity: 1;" vector-effect="non-scaling-stroke"  transform=" translate(-51.56, -57.19)" d="M 53.713 62.196 L 53.713 66.8892 C 54.476 67.2803 55.3783 67.5736 56.4201 67.7692 C 57.4618 67.9647 58.5597 68.0625 59.714 68.0625 C 60.8389 68.0625 61.9074 67.955 62.9198 67.7398 C 63.9322 67.5248 64.82 67.1703 65.5829 66.6765 C 66.3458 66.1828 66.9499 65.5374 67.3949 64.7406 C 67.8399 63.9437 68.0625 62.9587 68.0625 61.7854 C 68.0625 60.9347 67.9354 60.1892 67.681 59.5488 C 67.4267 58.9084 67.0599 58.3388 66.5806 57.8402 C 66.1013 57.3415 65.5267 56.8942 64.8566 56.4982 C 64.1866 56.1022 63.431 55.7282 62.5897 55.3762 C 61.9735 55.122 61.4209 54.8752 60.9318 54.6356 C 60.4427 54.396 60.027 54.1516 59.6846 53.9023 C 59.3422 53.6529 59.0782 53.3889 58.8923 53.1103 C 58.7065 52.8316 58.6135 52.5163 58.6135 52.1643 C 58.6135 51.8417 58.6967 51.5508 58.863 51.2917 C 59.0293 51.0325 59.2641 50.8102 59.5673 50.6243 C 59.8705 50.4386 60.2422 50.2943 60.6823 50.1917 C 61.1226 50.089 61.6116 50.0377 62.1496 50.0377 C 62.5408 50.0377 62.9541 50.0671 63.3893 50.1257 C 63.8246 50.1844 64.2623 50.2748 64.7026 50.397 C 65.1428 50.5192 65.5706 50.6733 65.9864 50.859 C 66.4021 51.0448 66.786 51.2599 67.1381 51.5044 L 67.1381 47.1191 C 66.4241 46.8454 65.644 46.6425 64.7979 46.5105 C 63.9518 46.3785 62.981 46.3125 61.8855 46.3125 C 60.7703 46.3125 59.714 46.4323 58.7163 46.6718 C 57.7186 46.9114 56.8407 47.2853 56.0826 47.7938 C 55.3245 48.3023 54.7254 48.95 54.2853 49.7371 C 53.8451 50.5241 53.625 51.4652 53.625 52.5603 C 53.625 53.9585 54.0285 55.1513 54.8355 56.1389 C 55.6424 57.1264 56.8675 57.9623 58.5109 58.6468 C 59.1564 58.9108 59.758 59.1698 60.3156 59.4241 C 60.8731 59.6783 61.3549 59.9423 61.7607 60.2161 C 62.1667 60.4898 62.487 60.7881 62.7218 61.1107 C 62.9566 61.4333 63.074 61.8 63.074 62.2107 C 63.074 62.5138 63.0006 62.7949 62.8538 63.054 C 62.7071 63.3131 62.4846 63.5379 62.1863 63.7286 C 61.8879 63.9193 61.5162 64.0684 61.0712 64.1759 C 60.6261 64.2835 60.1053 64.3373 59.5086 64.3373 C 58.4913 64.3373 57.4838 64.1588 56.4861 63.8019 C 55.4884 63.4451 54.564 62.9098 53.713 62.196 L 53.713 62.196 Z M 45.8231 50.6327 L 51.8438 50.6327 L 51.8438 46.7812 L 35.0625 46.7812 L 35.0625 50.6327 L 41.0537 50.6327 L 41.0537 67.7812 L 45.8231 67.7812 L 45.8231 50.6327 Z" stroke-linecap="round" />
</g>
<g transform="matrix(6.36 0 0 6.36 415.82 448.74)"  >
<g style="" vector-effect="non-scaling-stroke"   >
		<g transform="matrix(1 0 0 1 -2.5 -1.5)"  >
<path style="stroke: none; stroke-width: 1; stroke-dasharray: none; stroke-linecap: butt; stroke-dashoffset: 0; stroke-linejoin: miter; stroke-miterlimit: 4; fill: rgb(84,94,115); fill-rule: nonzero; opacity: 1;" vector-effect="non-scaling-stroke"  transform=" translate(-25.5, -26.5)" d="M 49.455 8 L 49.455 8 C 48.724 3.538 38.281 0 25.5 0 C 12.719000000000001 0 2.276 3.538 1.545 8 L 1.545 8 L 1.5 8 L 1.5 8.5 L 1.5 20 L 1.5 20.5 L 1.5 21 L 1.5 32 L 1.5 32.5 L 1.5 33 L 1.5 45 L 1.545 45 C 2.276 49.461 12.72 53 25.5 53 C 38.28 53 48.724000000000004 49.461 49.455 45 L 49.5 45 L 49.5 33 L 49.5 32.5 L 49.5 32 L 49.5 21 L 49.5 20.5 L 49.5 20 L 49.5 8.5 L 49.5 8 L 49.455 8 z" stroke-linecap="round" />
</g>
		<g transform="matrix(1 0 0 1 -2.5 14.75)"  >
<path style="stroke: none; stroke-width: 1; stroke-dasharray: none; stroke-linecap: butt; stroke-dashoffset: 0; stroke-linejoin: miter; stroke-miterlimit: 4; fill: rgb(56,69,79); fill-rule: nonzero; opacity: 1;" vector-effect="non-scaling-stroke"  transform=" translate(-25.5, -42.75)" d="M 25.5 41 C 12.245 41 1.5 37.194 1.5 32.5 L 1.5 45 L 1.545 45 C 2.276 49.461 12.72 53 25.5 53 C 38.28 53 48.724000000000004 49.461 49.455 45 L 49.5 45 L 49.5 32.5 C 49.5 37.194 38.755 41 25.5 41 z" stroke-linecap="round" />
</g>
		<g transform="matrix(1 0 0 1 -26.48 4.25)"  >
<path style="stroke: none; stroke-width: 1; stroke-dasharray: none; stroke-linecap: butt; stroke-dashoffset: 0; stroke-linejoin: miter; stroke-miterlimit: 4; fill: rgb(56,69,79); fill-rule: nonzero; opacity: 1;" vector-effect="non-scaling-stroke"  transform=" translate(-1.52, -32.25)" d="M 1.5 32 L 1.5 32.5 C 1.5 32.332 1.518 32.166 1.545 32 L 1.5 32 z" stroke-linecap="round" />
</g>
		<g transform="matrix(1 0 0 1 21.48 4.25)"  >
<path style="stroke: none; stroke-width: 1; stroke-dasharray: none; stroke-linecap: butt; stroke-dashoffset: 0; stroke-linejoin: miter; stroke-miterlimit: 4; fill: rgb(56,69,79); fill-rule: nonzero; opacity: 1;" vector-effect="non-scaling-stroke"  transform=" translate(-49.48, -32.25)" d="M 49.455 32 C 49.482 32.166 49.5 32.332 49.5 32.5 L 49.5 32 L 49.455 32 z" stroke-linecap="round" />
</g>
		<g transform="matrix(1 0 0 1 -2.5 2.75)"  >
<path style="stroke: none; stroke-width: 1; stroke-dasharray: none; stroke-linecap: butt; stroke-dashoffset: 0; stroke-linejoin: miter; stroke-miterlimit: 4; fill: rgb(85,96,128); fill-rule: nonzero; opacity: 1;" vector-effect="non-scaling-stroke"  transform=" translate(-25.5, -30.75)" d="M 25.5 29 C 12.245 29 1.5 25.194 1.5 20.5 L 1.5 33 L 1.545 33 C 2.276 37.461 12.72 41 25.5 41 C 38.28 41 48.724000000000004 37.461 49.455 33 L 49.5 33 L 49.5 20.5 C 49.5 25.194 38.755 29 25.5 29 z" stroke-linecap="round" />
</g>
		<g transform="matrix(1 0 0 1 -26.48 -7.75)"  >
<path style="stroke: none; stroke-width: 1; stroke-dasharray: none; stroke-linecap: butt; stroke-dashoffset: 0; stroke-linejoin: miter; stroke-miterlimit: 4; fill: rgb(85,96,128); fill-rule: nonzero; opacity: 1;" vector-effect="non-scaling-stroke"  transform=" translate(-1.52, -20.25)" d="M 1.5 20 L 1.5 20.5 C 1.5 20.332 1.518 20.166 1.545 20 L 1.5 20 z" stroke-linecap="round" />
</g>
		<g transform="matrix(1 0 0 1 21.48 -7.75)"  >
<path style="stroke: none; stroke-width: 1; stroke-dasharray: none; stroke-linecap: butt; stroke-dashoffset: 0; stroke-linejoin: miter; stroke-miterlimit: 4; fill: rgb(85,96,128); fill-rule: nonzero; opacity: 1;" vector-effect="non-scaling-stroke"  transform=" translate(-49.48, -20.25)" d="M 49.455 20 C 49.482 20.166 49.5 20.332 49.5 20.5 L 49.5 20 L 49.455 20 z" stroke-linecap="round" />
</g>
		<g transform="matrix(1 0 0 1 -2.5 -19.5)"  >
<ellipse style="stroke: none; stroke-width: 1; stroke-dasharray: none; stroke-linecap: butt; stroke-dashoffset: 0; stroke-linejoin: miter; stroke-miterlimit: 4; fill: rgb(145,186,225); fill-rule: nonzero; opacity: 1;" vector-effect="non-scaling-stroke"  cx="0" cy="0" rx="24" ry="8.5" />
</g>
		<g transform="matrix(1 0 0 1 -2.5 -9.25)"  >
<path style="stroke: none; stroke-width: 1; stroke-dasharray: none; stroke-linecap: butt; stroke-dashoffset: 0; stroke-linejoin: miter; stroke-miterlimit: 4; fill: rgb(134,151,203); fill-rule: nonzero; opacity: 1;" vector-effect="non-scaling-stroke"  transform=" translate(-25.5, -18.75)" d="M 25.5 17 C 12.245 17 1.5 13.193999999999999 1.5 8.5 L 1.5 21 L 1.545 21 C 2.276 25.461 12.72 29 25.5 29 C 38.28 29 48.724000000000004 25.461 49.455 21 L 49.5 21 L 49.5 8.5 C 49.5 13.194 38.755 17 25.5 17 z" stroke-linecap="round" />
</g>
		<g transform="matrix(1 0 0 1 -26.48 -19.75)"  >
<path style="stroke: none; stroke-width: 1; stroke-dasharray: none; stroke-linecap: butt; stroke-dashoffset: 0; stroke-linejoin: miter; stroke-miterlimit: 4; fill: rgb(134,151,203); fill-rule: nonzero; opacity: 1;" vector-effect="non-scaling-stroke"  transform=" translate(-1.52, -8.25)" d="M 1.5 8 L 1.5 8.5 C 1.5 8.332 1.518 8.166 1.545 8 L 1.5 8 z" stroke-linecap="round" />
</g>
		<g transform="matrix(1 0 0 1 21.48 -19.75)"  >
<path style="stroke: none; stroke-width: 1; stroke-dasharray: none; stroke-linecap: butt; stroke-dashoffset: 0; stroke-linejoin: miter; stroke-miterlimit: 4; fill: rgb(134,151,203); fill-rule: nonzero; opacity: 1;" vector-effect="non-scaling-stroke"  transform=" translate(-49.48, -8.25)" d="M 49.455 8 C 49.482 8.166 49.5 8.332 49.5 8.5 L 49.5 8 L 49.455 8 z" stroke-linecap="round" />
</g>
		<g transform="matrix(1 0 0 1 14.5 17)"  >
<polygon style="stroke: none; stroke-width: 1; stroke-dasharray: none; stroke-linecap: butt; stroke-dashoffset: 0; stroke-linejoin: miter; stroke-miterlimit: 4; fill: rgb(243,213,90); fill-rule: nonzero; opacity: 1;" vector-effect="non-scaling-stroke"  points="0,-11 3.71,-3.76 12,-2.6 6,3.04 7.42,11 0,7.24 -7.42,11 -6,3.04 -12,-2.6 -3.71,-3.76 " />
</g>
</g>
</g>
<g transform="matrix(0.67 0 0 0.67 741.2 653.27)"  >
<g style="" vector-effect="non-scaling-stroke"   >
		<g transform="matrix(1 0 0 1 32 0)"  >
<path style="stroke: none; stroke-width: 1; stroke-dasharray: none; stroke-linecap: butt; stroke-dashoffset: 0; stroke-linejoin: miter; stroke-miterlimit: 4; fill: rgb(226,229,231); fill-rule: nonzero; opacity: 1;" vector-effect="non-scaling-stroke"  transform=" translate(-288, -256)" d="M 128 0 C 110.4 0 96 14.4 96 32 L 96 480 C 96 497.6 110.4 512 128 512 L 448 512 C 465.6 512 480 497.6 480 480 L 480 128 L 352 0 L 128 0 z" stroke-linecap="round" />
</g>
		<g transform="matrix(1 0 0 1 160 -192)"  >
<path style="stroke: none; stroke-width: 1; stroke-dasharray: none; stroke-linecap: butt; stroke-dashoffset: 0; stroke-linejoin: miter; stroke-miterlimit: 4; fill: rgb(176,183,189); fill-rule: nonzero; opacity: 1;" vector-effect="non-scaling-stroke"  transform=" translate(-416, -64)" d="M 384 128 L 480 128 L 352 0 L 352 96 C 352 113.6 366.4 128 384 128 z" stroke-linecap="round" />
</g>
		<g transform="matrix(1 0 0 1 176 -80)"  >
<polygon style="stroke: none; stroke-width: 1; stroke-dasharray: none; stroke-linecap: butt; stroke-dashoffset: 0; stroke-linejoin: miter; stroke-miterlimit: 4; fill: rgb(202,209,216); fill-rule: nonzero; opacity: 1;" vector-effect="non-scaling-stroke"  points="48,48 -48,-48 48,-48 " />
</g>
		<g transform="matrix(1 0 0 1 -32 80)"  >
<path style="stroke: none; stroke-width: 1; stroke-dasharray: none; stroke-linecap: butt; stroke-dashoffset: 0; stroke-linejoin: miter; stroke-miterlimit: 4; fill: rgb(241,86,66); fill-rule: nonzero; opacity: 1;" vector-effect="non-scaling-stroke"  transform=" translate(-224, -336)" d="M 416 416 C 416 424.8 408.8 432 400 432 L 48 432 C 39.2 432 32 424.8 32 416 L 32 256 C 32 247.2 39.2 240 48 240 L 400 240 C 408.8 240 416 247.2 416 256 L 416 416 z" stroke-linecap="round" />
</g>
		<g transform="matrix(1 0 0 1 -124.85 83.05)"  >
<path style="stroke: none; stroke-width: 1; stroke-dasharray: none; stroke-linecap: butt; stroke-dashoffset: 0; stroke-linejoin: miter; stroke-miterlimit: 4; fill: rgb(255,255,255); fill-rule: nonzero; opacity: 1;" vector-effect="non-scaling-stroke"  transform=" translate(-131.15, -339.05)" d="M 98.128 314.672 C 101.072 289.84000000000003 138.54399999999998 285.37600000000003 156.192 298.944 C 164.89600000000002 305.968 155.696 317.10400000000004 148 311.47200000000004 C 138.544 305.47200000000004 117.03999999999999 302.65600000000006 114.352 315.93600000000004 C 110.896 336.92800000000005 166.56 324.91200000000003 165.648 358.944 C 164.752 391.44 117.67999999999999 392.192 100.01599999999999 377.61600000000004 C 95.79199999999999 374.16 95.91999999999999 368.54400000000004 98.24 365.07200000000006 C 101.55199999999999 361.76000000000005 105.264 360.60800000000006 109.616 364.19200000000006 C 120.112 371.34400000000005 147.10399999999998 376.7200000000001 149.024 358.54400000000004 C 147.376 339.632 94.16 351.008 98.128 314.672 z" stroke-linecap="round" />
</g>
		<g transform="matrix(1 0 0 1 -29.34 84.13)"  >
<path style="stroke: none; stroke-width: 1; stroke-dasharray: none; stroke-linecap: butt; stroke-dashoffset: 0; stroke-linejoin: miter; stroke-miterlimit: 4; fill: rgb(255,255,255); fill-rule: nonzero; opacity: 1;" vector-effect="non-scaling-stroke"  transform=" translate(-226.66, -340.13)" d="M 265.488 369.424 L 267.536 371.84 C 275.968 379.52 264.976 392.06399999999996 256.4 384 L 252.06399999999996 380.56 C 245.40799999999996 385.152 237.61599999999996 387.344 227.24799999999996 387.344 C 204.73599999999996 387.344 179.00799999999995 371.84 179.00799999999995 340.368 C 179.00799999999995 308.896 204.59199999999996 292.912 227.24799999999996 292.912 C 251.02399999999997 292.912 274.31999999999994 308.89599999999996 274.31999999999994 340.368 C 274.32 352.528 271.232 361.504 265.488 369.424 z M 257.792 340.368 C 257.792 320.032 241.80799999999996 309.68 227.23199999999997 309.68 C 211.50399999999996 309.68 196.01599999999996 320.016 196.01599999999996 340.368 C 196.01599999999996 355.872 209.18399999999997 370.576 227.23199999999997 370.576 C 231.82399999999998 370.576 236.30399999999997 369.42400000000004 240.78399999999996 368.27200000000005 L 226.20799999999997 354.83200000000005 C 219.42399999999998 346.64000000000004 230.17599999999996 334.9920000000001 238.73599999999996 342.54400000000004 L 253.19999999999996 356.992 C 256.384 352.528 257.792 347.024 257.792 340.368 z" stroke-linecap="round" />
</g>
		<g transform="matrix(1 0 0 1 67.13 83.67)"  >
<path style="stroke: none; stroke-width: 1; stroke-dasharray: none; stroke-linecap: butt; stroke-dashoffset: 0; stroke-linejoin: miter; stroke-miterlimit: 4; fill: rgb(255,255,255); fill-rule: nonzero; opacity: 1;" vector-effect="non-scaling-stroke"  transform=" translate(-323.13, -339.67)" d="M 293.168 303.152 C 293.168 298.928 296.752 295.344 301.232 295.344 C 305.32800000000003 295.344 308.78400000000005 298.944 308.78400000000005 303.152 L 308.78400000000005 367.248 L 343.58400000000006 367.248 C 356.1120000000001 367.248 356.38400000000007 384 343.58400000000006 384 L 301.24800000000005 384 C 296.76800000000003 384 293.184 380.816 293.184 376.208 L 293.184 303.15200000000004 L 293.168 303.15200000000004 z" stroke-linecap="round" />
</g>
		<g transform="matrix(1 0 0 1 0 176)"  >
<path style="stroke: none; stroke-width: 1; stroke-dasharray: none; stroke-linecap: butt; stroke-dashoffset: 0; stroke-linejoin: miter; stroke-miterlimit: 4; fill: rgb(202,209,216); fill-rule: nonzero; opacity: 1;" vector-effect="non-scaling-stroke"  transform=" translate(-256, -432)" d="M 400 432 L 96 432 L 96 448 L 400 448 C 408.8 448 416 440.8 416 432 L 416 416 C 416 424.8 408.8 432 400 432 z" stroke-linecap="round" />
</g>
</g>
</g>
</svg>